<svg xmlns="http://www.w3.org/2000/svg" version="1.1" viewBox="0 0 1200 300" width="1200" height="300">
<rect fill="rgb(250,250,250)" x="0" y="0" width="1200" height="300"/><defs/><!--ITEM: Upload 1--><g transform="translate(304.0 125.0) rotate(0.0 929.5 929.5)  scale(4.957333333333334 4.957333452309336)"><svg width="375.0" height="374.999991" viewBox="0.0 0.0 375.0 374.999991"><defs><g/></defs><g fill="#000000" fill-opacity="1"><g transform="translate(81.70119, 193.262507)"><g><path d="M 14.75 0 L 9.203125 -19.53125 L 9.03125 -19.53125 C 9.289062 -16.207031 9.421875 -13.625 9.421875 -11.78125 L 9.421875 0 L 2.9375 0 L 2.9375 -27.125 L 12.6875 -27.125 L 18.34375 -7.875 L 18.5 -7.875 L 24.046875 -27.125 L 33.828125 -27.125 L 33.828125 0 L 27.09375 0 L 27.09375 -11.890625 C 27.09375 -12.515625 27.097656 -13.203125 27.109375 -13.953125 C 27.128906 -14.703125 27.21875 -16.550781 27.375 -19.5 L 27.203125 -19.5 L 21.734375 0 Z M 14.75 0 "/></g></g></g><g fill="#000000" fill-opacity="1"><g transform="translate(118.431916, 193.262507)"><g><path d="M 19.03125 0 L 2.9375 0 L 2.9375 -27.125 L 19.03125 -27.125 L 19.03125 -21.25 L 10.265625 -21.25 L 10.265625 -16.984375 L 18.390625 -16.984375 L 18.390625 -11.09375 L 10.265625 -11.09375 L 10.265625 -5.96875 L 19.03125 -5.96875 Z M 19.03125 0 "/></g></g></g><g fill="#000000" fill-opacity="1"><g transform="translate(139.283096, 193.262507)"><g><path d="M 14.90625 0 L 7.578125 0 L 7.578125 -21.140625 L 0.953125 -21.140625 L 0.953125 -27.125 L 21.5 -27.125 L 21.5 -21.140625 L 14.90625 -21.140625 Z M 14.90625 0 "/></g></g></g><g fill="#000000" fill-opacity="1"><g transform="translate(161.72965, 193.262507)"><g><path d="M 19.578125 0 L 18.234375 -5.078125 L 9.421875 -5.078125 L 8.046875 0 L 0 0 L 8.84375 -27.234375 L 18.625 -27.234375 L 27.59375 0 Z M 16.71875 -11.09375 L 15.546875 -15.546875 C 15.273438 -16.535156 14.941406 -17.816406 14.546875 -19.390625 C 14.160156 -20.960938 13.90625 -22.085938 13.78125 -22.765625 C 13.675781 -22.140625 13.457031 -21.101562 13.125 -19.65625 C 12.800781 -18.207031 12.078125 -15.351562 10.953125 -11.09375 Z M 16.71875 -11.09375 "/></g></g></g><g fill="#000000" fill-opacity="1"><g transform="translate(76.27043, 213.137446)"><g><path d="M 15.796875 -7.875 C 15.796875 -5.363281 15.160156 -3.382812 13.890625 -1.9375 C 12.617188 -0.5 10.847656 0.21875 8.578125 0.21875 C 6.265625 0.21875 4.476562 -0.488281 3.21875 -1.90625 C 1.96875 -3.320312 1.34375 -5.316406 1.34375 -7.890625 C 1.34375 -10.453125 1.972656 -12.4375 3.234375 -13.84375 C 4.492188 -15.25 6.285156 -15.953125 8.609375 -15.953125 C 10.859375 -15.953125 12.617188 -15.234375 13.890625 -13.796875 C 15.160156 -12.367188 15.796875 -10.394531 15.796875 -7.875 Z M 3.28125 -7.875 C 3.28125 -5.75 3.734375 -4.132812 4.640625 -3.03125 C 5.546875 -1.9375 6.859375 -1.390625 8.578125 -1.390625 C 10.316406 -1.390625 11.628906 -1.9375 12.515625 -3.03125 C 13.410156 -4.125 13.859375 -5.738281 13.859375 -7.875 C 13.859375 -9.988281 13.414062 -11.585938 12.53125 -12.671875 C 11.644531 -13.765625 10.335938 -14.3125 8.609375 -14.3125 C 6.867188 -14.3125 5.546875 -13.757812 4.640625 -12.65625 C 3.734375 -11.5625 3.28125 -9.96875 3.28125 -7.875 Z M 3.28125 -7.875 "/></g></g></g><g fill="#000000" fill-opacity="1"><g transform="translate(93.401181, 213.137446)"><g><path d="M 12.125 -11.125 C 12.125 -9.539062 11.578125 -8.316406 10.484375 -7.453125 C 9.398438 -6.597656 7.847656 -6.171875 5.828125 -6.171875 L 3.984375 -6.171875 L 3.984375 0 L 2.15625 0 L 2.15625 -15.703125 L 6.234375 -15.703125 C 10.160156 -15.703125 12.125 -14.175781 12.125 -11.125 Z M 3.984375 -7.75 L 5.625 -7.75 C 7.25 -7.75 8.421875 -8.007812 9.140625 -8.53125 C 9.867188 -9.050781 10.234375 -9.890625 10.234375 -11.046875 C 10.234375 -12.078125 9.890625 -12.847656 9.203125 -13.359375 C 8.523438 -13.867188 7.46875 -14.125 6.03125 -14.125 L 3.984375 -14.125 Z M 3.984375 -7.75 "/></g></g></g><g fill="#000000" fill-opacity="1"><g transform="translate(106.643951, 213.137446)"><g><path d="M 10.921875 0 L 2.15625 0 L 2.15625 -15.703125 L 10.921875 -15.703125 L 10.921875 -14.078125 L 3.984375 -14.078125 L 3.984375 -9.03125 L 10.5 -9.03125 L 10.5 -7.40625 L 3.984375 -7.40625 L 3.984375 -1.640625 L 10.921875 -1.640625 Z M 10.921875 0 "/></g></g></g><g fill="#000000" fill-opacity="1"><g transform="translate(118.877135, 213.137446)"><g><path d="M 14.421875 0 L 12.34375 0 L 3.765625 -13.1875 L 3.671875 -13.1875 C 3.785156 -11.632812 3.84375 -10.210938 3.84375 -8.921875 L 3.84375 0 L 2.15625 0 L 2.15625 -15.703125 L 4.21875 -15.703125 L 12.78125 -2.578125 L 12.875 -2.578125 C 12.851562 -2.773438 12.816406 -3.394531 12.765625 -4.4375 C 12.722656 -5.488281 12.707031 -6.238281 12.71875 -6.6875 L 12.71875 -15.703125 L 14.421875 -15.703125 Z M 14.421875 0 "/></g></g></g><g fill="#000000" fill-opacity="1"><g transform="translate(135.460127, 213.137446)"><g><path d="M 8.890625 -14.296875 C 7.160156 -14.296875 5.796875 -13.71875 4.796875 -12.5625 C 3.796875 -11.414062 3.296875 -9.847656 3.296875 -7.859375 C 3.296875 -5.796875 3.773438 -4.203125 4.734375 -3.078125 C 5.703125 -1.960938 7.078125 -1.40625 8.859375 -1.40625 C 9.953125 -1.40625 11.203125 -1.601562 12.609375 -2 L 12.609375 -0.390625 C 11.523438 0.015625 10.179688 0.21875 8.578125 0.21875 C 6.265625 0.21875 4.476562 -0.484375 3.21875 -1.890625 C 1.96875 -3.296875 1.34375 -5.289062 1.34375 -7.875 C 1.34375 -9.488281 1.644531 -10.90625 2.25 -12.125 C 2.851562 -13.34375 3.722656 -14.28125 4.859375 -14.9375 C 6.003906 -15.601562 7.351562 -15.9375 8.90625 -15.9375 C 10.550781 -15.9375 11.988281 -15.632812 13.21875 -15.03125 L 12.453125 -13.453125 C 11.265625 -14.015625 10.078125 -14.296875 8.890625 -14.296875 Z M 8.890625 -14.296875 "/></g></g></g><g fill="#000000" fill-opacity="1"><g transform="translate(149.336568, 213.137446)"><g><path d="M 15.796875 -7.875 C 15.796875 -5.363281 15.160156 -3.382812 13.890625 -1.9375 C 12.617188 -0.5 10.847656 0.21875 8.578125 0.21875 C 6.265625 0.21875 4.476562 -0.488281 3.21875 -1.90625 C 1.96875 -3.320312 1.34375 -5.316406 1.34375 -7.890625 C 1.34375 -10.453125 1.972656 -12.4375 3.234375 -13.84375 C 4.492188 -15.25 6.285156 -15.953125 8.609375 -15.953125 C 10.859375 -15.953125 12.617188 -15.234375 13.890625 -13.796875 C 15.160156 -12.367188 15.796875 -10.394531 15.796875 -7.875 Z M 3.28125 -7.875 C 3.28125 -5.75 3.734375 -4.132812 4.640625 -3.03125 C 5.546875 -1.9375 6.859375 -1.390625 8.578125 -1.390625 C 10.316406 -1.390625 11.628906 -1.9375 12.515625 -3.03125 C 13.410156 -4.125 13.859375 -5.738281 13.859375 -7.875 C 13.859375 -9.988281 13.414062 -11.585938 12.53125 -12.671875 C 11.644531 -13.765625 10.335938 -14.3125 8.609375 -14.3125 C 6.867188 -14.3125 5.546875 -13.757812 4.640625 -12.65625 C 3.734375 -11.5625 3.28125 -9.96875 3.28125 -7.875 Z M 3.28125 -7.875 "/></g></g></g><g fill="#000000" fill-opacity="1"><g transform="translate(166.46732, 213.137446)"><g><path d="M 14.703125 -8 C 14.703125 -5.40625 13.992188 -3.421875 12.578125 -2.046875 C 11.171875 -0.679688 9.148438 0 6.515625 0 L 2.15625 0 L 2.15625 -15.703125 L 6.96875 -15.703125 C 9.414062 -15.703125 11.316406 -15.023438 12.671875 -13.671875 C 14.023438 -12.316406 14.703125 -10.425781 14.703125 -8 Z M 12.765625 -7.9375 C 12.765625 -9.988281 12.25 -11.53125 11.21875 -12.5625 C 10.1875 -13.601562 8.660156 -14.125 6.640625 -14.125 L 3.984375 -14.125 L 3.984375 -1.578125 L 6.203125 -1.578125 C 8.378906 -1.578125 10.015625 -2.113281 11.109375 -3.1875 C 12.210938 -4.257812 12.765625 -5.84375 12.765625 -7.9375 Z M 12.765625 -7.9375 "/></g></g></g><g fill="#000000" fill-opacity="1"><g transform="translate(182.502562, 213.137446)"><g><path d="M 10.921875 0 L 2.15625 0 L 2.15625 -15.703125 L 10.921875 -15.703125 L 10.921875 -14.078125 L 3.984375 -14.078125 L 3.984375 -9.03125 L 10.5 -9.03125 L 10.5 -7.40625 L 3.984375 -7.40625 L 3.984375 -1.640625 L 10.921875 -1.640625 Z M 10.921875 0 "/></g></g></g><g fill="#000000" fill-opacity="1"><g transform="translate(202.831164, 193.874987)"><g><path d="M 3.15625 -4.390625 C 3.15625 -3.523438 3.296875 -2.867188 3.578125 -2.421875 C 3.859375 -1.984375 4.320312 -1.765625 4.96875 -1.765625 C 5.601562 -1.765625 6.054688 -1.984375 6.328125 -2.421875 C 6.609375 -2.859375 6.75 -3.515625 6.75 -4.390625 C 6.75 -5.253906 6.609375 -5.898438 6.328125 -6.328125 C 6.046875 -6.765625 5.585938 -6.984375 4.953125 -6.984375 C 4.316406 -6.984375 3.859375 -6.765625 3.578125 -6.328125 C 3.296875 -5.898438 3.15625 -5.253906 3.15625 -4.390625 Z M 9.1875 -4.390625 C 9.1875 -2.960938 8.8125 -1.847656 8.0625 -1.046875 C 7.3125 -0.242188 6.269531 0.15625 4.9375 0.15625 C 4.09375 0.15625 3.347656 -0.0234375 2.703125 -0.390625 C 2.066406 -0.765625 1.578125 -1.296875 1.234375 -1.984375 C 0.890625 -2.671875 0.71875 -3.472656 0.71875 -4.390625 C 0.71875 -5.816406 1.085938 -6.925781 1.828125 -7.71875 C 2.578125 -8.507812 3.628906 -8.90625 4.984375 -8.90625 C 5.816406 -8.90625 6.550781 -8.722656 7.1875 -8.359375 C 7.832031 -7.992188 8.328125 -7.46875 8.671875 -6.78125 C 9.015625 -6.101562 9.1875 -5.304688 9.1875 -4.390625 Z M 9.1875 -4.390625 "/></g></g></g><g fill="#000000" fill-opacity="1"><g transform="translate(212.734995, 193.874987)"><g><path d="M 6.078125 -6.953125 L 4.015625 -6.953125 L 4.015625 0 L 1.640625 0 L 1.640625 -6.953125 L 0.328125 -6.953125 L 0.328125 -8.09375 L 1.640625 -8.734375 L 1.640625 -9.375 C 1.640625 -10.375 1.882812 -11.101562 2.375 -11.5625 C 2.863281 -12.019531 3.644531 -12.25 4.71875 -12.25 C 5.539062 -12.25 6.273438 -12.125 6.921875 -11.875 L 6.3125 -10.125 C 5.832031 -10.28125 5.390625 -10.359375 4.984375 -10.359375 C 4.640625 -10.359375 4.390625 -10.253906 4.234375 -10.046875 C 4.085938 -9.847656 4.015625 -9.59375 4.015625 -9.28125 L 4.015625 -8.734375 L 6.078125 -8.734375 Z M 6.078125 -6.953125 "/></g></g></g><g fill="#000000" fill-opacity="1"><g transform="translate(218.9288, 193.874987)"><g><path d="M 6.078125 -6.953125 L 4.015625 -6.953125 L 4.015625 0 L 1.640625 0 L 1.640625 -6.953125 L 0.328125 -6.953125 L 0.328125 -8.09375 L 1.640625 -8.734375 L 1.640625 -9.375 C 1.640625 -10.375 1.882812 -11.101562 2.375 -11.5625 C 2.863281 -12.019531 3.644531 -12.25 4.71875 -12.25 C 5.539062 -12.25 6.273438 -12.125 6.921875 -11.875 L 6.3125 -10.125 C 5.832031 -10.28125 5.390625 -10.359375 4.984375 -10.359375 C 4.640625 -10.359375 4.390625 -10.253906 4.234375 -10.046875 C 4.085938 -9.847656 4.015625 -9.59375 4.015625 -9.28125 L 4.015625 -8.734375 L 6.078125 -8.734375 Z M 6.078125 -6.953125 "/></g></g></g><g fill="#000000" fill-opacity="1"><g transform="translate(225.122605, 193.874987)"><g><path d="M 1.15625 -11 C 1.15625 -11.769531 1.585938 -12.15625 2.453125 -12.15625 C 3.316406 -12.15625 3.75 -11.769531 3.75 -11 C 3.75 -10.625 3.640625 -10.332031 3.421875 -10.125 C 3.203125 -9.925781 2.878906 -9.828125 2.453125 -9.828125 C 1.585938 -9.828125 1.15625 -10.21875 1.15625 -11 Z M 3.640625 0 L 1.25 0 L 1.25 -8.734375 L 3.640625 -8.734375 Z M 3.640625 0 "/></g></g></g><g fill="#000000" fill-opacity="1"><g transform="translate(230.004231, 193.874987)"><g><path d="M 4.796875 0.15625 C 2.078125 0.15625 0.71875 -1.335938 0.71875 -4.328125 C 0.71875 -5.804688 1.085938 -6.9375 1.828125 -7.71875 C 2.566406 -8.507812 3.628906 -8.90625 5.015625 -8.90625 C 6.023438 -8.90625 6.929688 -8.707031 7.734375 -8.3125 L 7.03125 -6.46875 C 6.65625 -6.613281 6.304688 -6.734375 5.984375 -6.828125 C 5.660156 -6.929688 5.335938 -6.984375 5.015625 -6.984375 C 3.773438 -6.984375 3.15625 -6.101562 3.15625 -4.34375 C 3.15625 -2.632812 3.773438 -1.78125 5.015625 -1.78125 C 5.472656 -1.78125 5.894531 -1.835938 6.28125 -1.953125 C 6.675781 -2.078125 7.066406 -2.269531 7.453125 -2.53125 L 7.453125 -0.5 C 7.066406 -0.25 6.675781 -0.078125 6.28125 0.015625 C 5.894531 0.109375 5.398438 0.15625 4.796875 0.15625 Z M 4.796875 0.15625 "/></g></g></g><g fill="#000000" fill-opacity="1"><g transform="translate(238.22879, 193.874987)"><g><path d="M 1.15625 -11 C 1.15625 -11.769531 1.585938 -12.15625 2.453125 -12.15625 C 3.316406 -12.15625 3.75 -11.769531 3.75 -11 C 3.75 -10.625 3.640625 -10.332031 3.421875 -10.125 C 3.203125 -9.925781 2.878906 -9.828125 2.453125 -9.828125 C 1.585938 -9.828125 1.15625 -10.21875 1.15625 -11 Z M 3.640625 0 L 1.25 0 L 1.25 -8.734375 L 3.640625 -8.734375 Z M 3.640625 0 "/></g></g></g><g fill="#000000" fill-opacity="1"><g transform="translate(243.110416, 193.874987)"><g><path d="M 6.796875 0 L 6.34375 -1.1875 L 6.28125 -1.1875 C 5.875 -0.6875 5.457031 -0.335938 5.03125 -0.140625 C 4.613281 0.0546875 4.0625 0.15625 3.375 0.15625 C 2.539062 0.15625 1.878906 -0.0820312 1.390625 -0.5625 C 0.910156 -1.039062 0.671875 -1.722656 0.671875 -2.609375 C 0.671875 -3.535156 0.992188 -4.21875 1.640625 -4.65625 C 2.296875 -5.101562 3.273438 -5.347656 4.578125 -5.390625 L 6.09375 -5.4375 L 6.09375 -5.828125 C 6.09375 -6.710938 5.640625 -7.15625 4.734375 -7.15625 C 4.035156 -7.15625 3.21875 -6.941406 2.28125 -6.515625 L 1.484375 -8.125 C 2.492188 -8.65625 3.609375 -8.921875 4.828125 -8.921875 C 6.003906 -8.921875 6.90625 -8.664062 7.53125 -8.15625 C 8.15625 -7.644531 8.46875 -6.867188 8.46875 -5.828125 L 8.46875 0 Z M 6.09375 -4.046875 L 5.171875 -4.015625 C 4.484375 -3.992188 3.96875 -3.867188 3.625 -3.640625 C 3.289062 -3.410156 3.125 -3.0625 3.125 -2.59375 C 3.125 -1.925781 3.507812 -1.59375 4.28125 -1.59375 C 4.832031 -1.59375 5.269531 -1.75 5.59375 -2.0625 C 5.925781 -2.382812 6.09375 -2.804688 6.09375 -3.328125 Z M 6.09375 -4.046875 "/></g></g></g><g fill="#000000" fill-opacity="1"><g transform="translate(252.772124, 193.874987)"><g><path d="M 3.640625 0 L 1.25 0 L 1.25 -12.15625 L 3.640625 -12.15625 Z M 3.640625 0 "/></g></g></g><g fill="#000000" fill-opacity="1"><g transform="translate(257.65375, 193.874987)"><g/></g></g><g fill="#000000" fill-opacity="1"><g transform="translate(261.808985, 193.874987)"><g><path d="M 6.796875 0 L 6.34375 -1.1875 L 6.28125 -1.1875 C 5.875 -0.6875 5.457031 -0.335938 5.03125 -0.140625 C 4.613281 0.0546875 4.0625 0.15625 3.375 0.15625 C 2.539062 0.15625 1.878906 -0.0820312 1.390625 -0.5625 C 0.910156 -1.039062 0.671875 -1.722656 0.671875 -2.609375 C 0.671875 -3.535156 0.992188 -4.21875 1.640625 -4.65625 C 2.296875 -5.101562 3.273438 -5.347656 4.578125 -5.390625 L 6.09375 -5.4375 L 6.09375 -5.828125 C 6.09375 -6.710938 5.640625 -7.15625 4.734375 -7.15625 C 4.035156 -7.15625 3.21875 -6.941406 2.28125 -6.515625 L 1.484375 -8.125 C 2.492188 -8.65625 3.609375 -8.921875 4.828125 -8.921875 C 6.003906 -8.921875 6.90625 -8.664062 7.53125 -8.15625 C 8.15625 -7.644531 8.46875 -6.867188 8.46875 -5.828125 L 8.46875 0 Z M 6.09375 -4.046875 L 5.171875 -4.015625 C 4.484375 -3.992188 3.96875 -3.867188 3.625 -3.640625 C 3.289062 -3.410156 3.125 -3.0625 3.125 -2.59375 C 3.125 -1.925781 3.507812 -1.59375 4.28125 -1.59375 C 4.832031 -1.59375 5.269531 -1.75 5.59375 -2.0625 C 5.925781 -2.382812 6.09375 -2.804688 6.09375 -3.328125 Z M 6.09375 -4.046875 "/></g></g></g><g fill="#000000" fill-opacity="1"><g transform="translate(271.470693, 193.874987)"><g><path d="M 7.4375 0 L 7.125 -1.125 L 7 -1.125 C 6.738281 -0.71875 6.375 -0.398438 5.90625 -0.171875 C 5.4375 0.046875 4.90625 0.15625 4.3125 0.15625 C 3.28125 0.15625 2.503906 -0.117188 1.984375 -0.671875 C 1.460938 -1.222656 1.203125 -2.015625 1.203125 -3.046875 L 1.203125 -8.734375 L 3.59375 -8.734375 L 3.59375 -3.640625 C 3.59375 -3.003906 3.703125 -2.53125 3.921875 -2.21875 C 4.148438 -1.90625 4.507812 -1.75 5 -1.75 C 5.664062 -1.75 6.144531 -1.96875 6.4375 -2.40625 C 6.738281 -2.851562 6.890625 -3.59375 6.890625 -4.625 L 6.890625 -8.734375 L 9.265625 -8.734375 L 9.265625 0 Z M 7.4375 0 "/></g></g></g><g fill="#000000" fill-opacity="1"><g transform="translate(281.98375, 193.874987)"><g><path d="M 4.796875 0.15625 C 2.078125 0.15625 0.71875 -1.335938 0.71875 -4.328125 C 0.71875 -5.804688 1.085938 -6.9375 1.828125 -7.71875 C 2.566406 -8.507812 3.628906 -8.90625 5.015625 -8.90625 C 6.023438 -8.90625 6.929688 -8.707031 7.734375 -8.3125 L 7.03125 -6.46875 C 6.65625 -6.613281 6.304688 -6.734375 5.984375 -6.828125 C 5.660156 -6.929688 5.335938 -6.984375 5.015625 -6.984375 C 3.773438 -6.984375 3.15625 -6.101562 3.15625 -4.34375 C 3.15625 -2.632812 3.773438 -1.78125 5.015625 -1.78125 C 5.472656 -1.78125 5.894531 -1.835938 6.28125 -1.953125 C 6.675781 -2.078125 7.066406 -2.269531 7.453125 -2.53125 L 7.453125 -0.5 C 7.066406 -0.25 6.675781 -0.078125 6.28125 0.015625 C 5.894531 0.109375 5.398438 0.15625 4.796875 0.15625 Z M 4.796875 0.15625 "/></g></g></g><g fill="#000000" fill-opacity="1"><g transform="translate(290.20831, 193.874987)"><g><path d="M 4.9375 -1.75 C 5.351562 -1.75 5.851562 -1.835938 6.4375 -2.015625 L 6.4375 -0.25 C 5.84375 0.0195312 5.113281 0.15625 4.25 0.15625 C 3.289062 0.15625 2.59375 -0.0820312 2.15625 -0.5625 C 1.726562 -1.050781 1.515625 -1.773438 1.515625 -2.734375 L 1.515625 -6.953125 L 0.375 -6.953125 L 0.375 -7.953125 L 1.6875 -8.75 L 2.375 -10.59375 L 3.890625 -10.59375 L 3.890625 -8.734375 L 6.34375 -8.734375 L 6.34375 -6.953125 L 3.890625 -6.953125 L 3.890625 -2.734375 C 3.890625 -2.398438 3.984375 -2.148438 4.171875 -1.984375 C 4.367188 -1.828125 4.625 -1.75 4.9375 -1.75 Z M 4.9375 -1.75 "/></g></g></g><g fill="#000000" fill-opacity="1"><g transform="translate(297.151932, 193.874987)"><g><path d="M 1.15625 -11 C 1.15625 -11.769531 1.585938 -12.15625 2.453125 -12.15625 C 3.316406 -12.15625 3.75 -11.769531 3.75 -11 C 3.75 -10.625 3.640625 -10.332031 3.421875 -10.125 C 3.203125 -9.925781 2.878906 -9.828125 2.453125 -9.828125 C 1.585938 -9.828125 1.15625 -10.21875 1.15625 -11 Z M 3.640625 0 L 1.25 0 L 1.25 -8.734375 L 3.640625 -8.734375 Z M 3.640625 0 "/></g></g></g><g fill="#000000" fill-opacity="1"><g transform="translate(302.033558, 193.874987)"><g><path d="M 3.15625 -4.390625 C 3.15625 -3.523438 3.296875 -2.867188 3.578125 -2.421875 C 3.859375 -1.984375 4.320312 -1.765625 4.96875 -1.765625 C 5.601562 -1.765625 6.054688 -1.984375 6.328125 -2.421875 C 6.609375 -2.859375 6.75 -3.515625 6.75 -4.390625 C 6.75 -5.253906 6.609375 -5.898438 6.328125 -6.328125 C 6.046875 -6.765625 5.585938 -6.984375 4.953125 -6.984375 C 4.316406 -6.984375 3.859375 -6.765625 3.578125 -6.328125 C 3.296875 -5.898438 3.15625 -5.253906 3.15625 -4.390625 Z M 9.1875 -4.390625 C 9.1875 -2.960938 8.8125 -1.847656 8.0625 -1.046875 C 7.3125 -0.242188 6.269531 0.15625 4.9375 0.15625 C 4.09375 0.15625 3.347656 -0.0234375 2.703125 -0.390625 C 2.066406 -0.765625 1.578125 -1.296875 1.234375 -1.984375 C 0.890625 -2.671875 0.71875 -3.472656 0.71875 -4.390625 C 0.71875 -5.816406 1.085938 -6.925781 1.828125 -7.71875 C 2.578125 -8.507812 3.628906 -8.90625 4.984375 -8.90625 C 5.816406 -8.90625 6.550781 -8.722656 7.1875 -8.359375 C 7.832031 -7.992188 8.328125 -7.46875 8.671875 -6.78125 C 9.015625 -6.101562 9.1875 -5.304688 9.1875 -4.390625 Z M 9.1875 -4.390625 "/></g></g></g><g fill="#000000" fill-opacity="1"><g transform="translate(311.937388, 193.874987)"><g><path d="M 9.3125 0 L 6.9375 0 L 6.9375 -5.109375 C 6.9375 -5.734375 6.820312 -6.203125 6.59375 -6.515625 C 6.375 -6.835938 6.019531 -7 5.53125 -7 C 4.863281 -7 4.378906 -6.773438 4.078125 -6.328125 C 3.785156 -5.878906 3.640625 -5.140625 3.640625 -4.109375 L 3.640625 0 L 1.25 0 L 1.25 -8.734375 L 3.078125 -8.734375 L 3.390625 -7.625 L 3.53125 -7.625 C 3.789062 -8.039062 4.15625 -8.359375 4.625 -8.578125 C 5.09375 -8.796875 5.625 -8.90625 6.21875 -8.90625 C 7.226562 -8.90625 7.992188 -8.628906 8.515625 -8.078125 C 9.046875 -7.523438 9.3125 -6.734375 9.3125 -5.703125 Z M 9.3125 0 "/></g></g></g></svg></g><!--ITEM: Upload 2--><g transform="translate(-54.0 -497.0) rotate(0.0 932.5 932.5)  scale(4.973333333333334 4.9733334526933355)"><svg width="375.0" height="374.999991" viewBox="0.0 0.0 375.0 374.999991"><defs><g/></defs><g fill="#000000" fill-opacity="1"><g transform="translate(81.70119, 193.262507)"><g><path d="M 14.75 0 L 9.203125 -19.53125 L 9.03125 -19.53125 C 9.289062 -16.207031 9.421875 -13.625 9.421875 -11.78125 L 9.421875 0 L 2.9375 0 L 2.9375 -27.125 L 12.6875 -27.125 L 18.34375 -7.875 L 18.5 -7.875 L 24.046875 -27.125 L 33.828125 -27.125 L 33.828125 0 L 27.09375 0 L 27.09375 -11.890625 C 27.09375 -12.515625 27.097656 -13.203125 27.109375 -13.953125 C 27.128906 -14.703125 27.21875 -16.550781 27.375 -19.5 L 27.203125 -19.5 L 21.734375 0 Z M 14.75 0 "/></g></g></g><g fill="#000000" fill-opacity="1"><g transform="translate(118.431916, 193.262507)"><g><path d="M 19.03125 0 L 2.9375 0 L 2.9375 -27.125 L 19.03125 -27.125 L 19.03125 -21.25 L 10.265625 -21.25 L 10.265625 -16.984375 L 18.390625 -16.984375 L 18.390625 -11.09375 L 10.265625 -11.09375 L 10.265625 -5.96875 L 19.03125 -5.96875 Z M 19.03125 0 "/></g></g></g><g fill="#000000" fill-opacity="1"><g transform="translate(139.283096, 193.262507)"><g><path d="M 14.90625 0 L 7.578125 0 L 7.578125 -21.140625 L 0.953125 -21.140625 L 0.953125 -27.125 L 21.5 -27.125 L 21.5 -21.140625 L 14.90625 -21.140625 Z M 14.90625 0 "/></g></g></g><g fill="#000000" fill-opacity="1"><g transform="translate(161.72965, 193.262507)"><g><path d="M 19.578125 0 L 18.234375 -5.078125 L 9.421875 -5.078125 L 8.046875 0 L 0 0 L 8.84375 -27.234375 L 18.625 -27.234375 L 27.59375 0 Z M 16.71875 -11.09375 L 15.546875 -15.546875 C 15.273438 -16.535156 14.941406 -17.816406 14.546875 -19.390625 C 14.160156 -20.960938 13.90625 -22.085938 13.78125 -22.765625 C 13.675781 -22.140625 13.457031 -21.101562 13.125 -19.65625 C 12.800781 -18.207031 12.078125 -15.351562 10.953125 -11.09375 Z M 16.71875 -11.09375 "/></g></g></g><g fill="#000000" fill-opacity="1"><g transform="translate(76.27043, 213.137446)"><g><path d="M 15.796875 -7.875 C 15.796875 -5.363281 15.160156 -3.382812 13.890625 -1.9375 C 12.617188 -0.5 10.847656 0.21875 8.578125 0.21875 C 6.265625 0.21875 4.476562 -0.488281 3.21875 -1.90625 C 1.96875 -3.320312 1.34375 -5.316406 1.34375 -7.890625 C 1.34375 -10.453125 1.972656 -12.4375 3.234375 -13.84375 C 4.492188 -15.25 6.285156 -15.953125 8.609375 -15.953125 C 10.859375 -15.953125 12.617188 -15.234375 13.890625 -13.796875 C 15.160156 -12.367188 15.796875 -10.394531 15.796875 -7.875 Z M 3.28125 -7.875 C 3.28125 -5.75 3.734375 -4.132812 4.640625 -3.03125 C 5.546875 -1.9375 6.859375 -1.390625 8.578125 -1.390625 C 10.316406 -1.390625 11.628906 -1.9375 12.515625 -3.03125 C 13.410156 -4.125 13.859375 -5.738281 13.859375 -7.875 C 13.859375 -9.988281 13.414062 -11.585938 12.53125 -12.671875 C 11.644531 -13.765625 10.335938 -14.3125 8.609375 -14.3125 C 6.867188 -14.3125 5.546875 -13.757812 4.640625 -12.65625 C 3.734375 -11.5625 3.28125 -9.96875 3.28125 -7.875 Z M 3.28125 -7.875 "/></g></g></g><g fill="#000000" fill-opacity="1"><g transform="translate(93.401181, 213.137446)"><g><path d="M 12.125 -11.125 C 12.125 -9.539062 11.578125 -8.316406 10.484375 -7.453125 C 9.398438 -6.597656 7.847656 -6.171875 5.828125 -6.171875 L 3.984375 -6.171875 L 3.984375 0 L 2.15625 0 L 2.15625 -15.703125 L 6.234375 -15.703125 C 10.160156 -15.703125 12.125 -14.175781 12.125 -11.125 Z M 3.984375 -7.75 L 5.625 -7.75 C 7.25 -7.75 8.421875 -8.007812 9.140625 -8.53125 C 9.867188 -9.050781 10.234375 -9.890625 10.234375 -11.046875 C 10.234375 -12.078125 9.890625 -12.847656 9.203125 -13.359375 C 8.523438 -13.867188 7.46875 -14.125 6.03125 -14.125 L 3.984375 -14.125 Z M 3.984375 -7.75 "/></g></g></g><g fill="#000000" fill-opacity="1"><g transform="translate(106.643951, 213.137446)"><g><path d="M 10.921875 0 L 2.15625 0 L 2.15625 -15.703125 L 10.921875 -15.703125 L 10.921875 -14.078125 L 3.984375 -14.078125 L 3.984375 -9.03125 L 10.5 -9.03125 L 10.5 -7.40625 L 3.984375 -7.40625 L 3.984375 -1.640625 L 10.921875 -1.640625 Z M 10.921875 0 "/></g></g></g><g fill="#000000" fill-opacity="1"><g transform="translate(118.877135, 213.137446)"><g><path d="M 14.421875 0 L 12.34375 0 L 3.765625 -13.1875 L 3.671875 -13.1875 C 3.785156 -11.632812 3.84375 -10.210938 3.84375 -8.921875 L 3.84375 0 L 2.15625 0 L 2.15625 -15.703125 L 4.21875 -15.703125 L 12.78125 -2.578125 L 12.875 -2.578125 C 12.851562 -2.773438 12.816406 -3.394531 12.765625 -4.4375 C 12.722656 -5.488281 12.707031 -6.238281 12.71875 -6.6875 L 12.71875 -15.703125 L 14.421875 -15.703125 Z M 14.421875 0 "/></g></g></g><g fill="#000000" fill-opacity="1"><g transform="translate(135.460127, 213.137446)"><g><path d="M 8.890625 -14.296875 C 7.160156 -14.296875 5.796875 -13.71875 4.796875 -12.5625 C 3.796875 -11.414062 3.296875 -9.847656 3.296875 -7.859375 C 3.296875 -5.796875 3.773438 -4.203125 4.734375 -3.078125 C 5.703125 -1.960938 7.078125 -1.40625 8.859375 -1.40625 C 9.953125 -1.40625 11.203125 -1.601562 12.609375 -2 L 12.609375 -0.390625 C 11.523438 0.015625 10.179688 0.21875 8.578125 0.21875 C 6.265625 0.21875 4.476562 -0.484375 3.21875 -1.890625 C 1.96875 -3.296875 1.34375 -5.289062 1.34375 -7.875 C 1.34375 -9.488281 1.644531 -10.90625 2.25 -12.125 C 2.851562 -13.34375 3.722656 -14.28125 4.859375 -14.9375 C 6.003906 -15.601562 7.351562 -15.9375 8.90625 -15.9375 C 10.550781 -15.9375 11.988281 -15.632812 13.21875 -15.03125 L 12.453125 -13.453125 C 11.265625 -14.015625 10.078125 -14.296875 8.890625 -14.296875 Z M 8.890625 -14.296875 "/></g></g></g><g fill="#000000" fill-opacity="1"><g transform="translate(149.336568, 213.137446)"><g><path d="M 15.796875 -7.875 C 15.796875 -5.363281 15.160156 -3.382812 13.890625 -1.9375 C 12.617188 -0.5 10.847656 0.21875 8.578125 0.21875 C 6.265625 0.21875 4.476562 -0.488281 3.21875 -1.90625 C 1.96875 -3.320312 1.34375 -5.316406 1.34375 -7.890625 C 1.34375 -10.453125 1.972656 -12.4375 3.234375 -13.84375 C 4.492188 -15.25 6.285156 -15.953125 8.609375 -15.953125 C 10.859375 -15.953125 12.617188 -15.234375 13.890625 -13.796875 C 15.160156 -12.367188 15.796875 -10.394531 15.796875 -7.875 Z M 3.28125 -7.875 C 3.28125 -5.75 3.734375 -4.132812 4.640625 -3.03125 C 5.546875 -1.9375 6.859375 -1.390625 8.578125 -1.390625 C 10.316406 -1.390625 11.628906 -1.9375 12.515625 -3.03125 C 13.410156 -4.125 13.859375 -5.738281 13.859375 -7.875 C 13.859375 -9.988281 13.414062 -11.585938 12.53125 -12.671875 C 11.644531 -13.765625 10.335938 -14.3125 8.609375 -14.3125 C 6.867188 -14.3125 5.546875 -13.757812 4.640625 -12.65625 C 3.734375 -11.5625 3.28125 -9.96875 3.28125 -7.875 Z M 3.28125 -7.875 "/></g></g></g><g fill="#000000" fill-opacity="1"><g transform="translate(166.46732, 213.137446)"><g><path d="M 14.703125 -8 C 14.703125 -5.40625 13.992188 -3.421875 12.578125 -2.046875 C 11.171875 -0.679688 9.148438 0 6.515625 0 L 2.15625 0 L 2.15625 -15.703125 L 6.96875 -15.703125 C 9.414062 -15.703125 11.316406 -15.023438 12.671875 -13.671875 C 14.023438 -12.316406 14.703125 -10.425781 14.703125 -8 Z M 12.765625 -7.9375 C 12.765625 -9.988281 12.25 -11.53125 11.21875 -12.5625 C 10.1875 -13.601562 8.660156 -14.125 6.640625 -14.125 L 3.984375 -14.125 L 3.984375 -1.578125 L 6.203125 -1.578125 C 8.378906 -1.578125 10.015625 -2.113281 11.109375 -3.1875 C 12.210938 -4.257812 12.765625 -5.84375 12.765625 -7.9375 Z M 12.765625 -7.9375 "/></g></g></g><g fill="#000000" fill-opacity="1"><g transform="translate(182.502562, 213.137446)"><g><path d="M 10.921875 0 L 2.15625 0 L 2.15625 -15.703125 L 10.921875 -15.703125 L 10.921875 -14.078125 L 3.984375 -14.078125 L 3.984375 -9.03125 L 10.5 -9.03125 L 10.5 -7.40625 L 3.984375 -7.40625 L 3.984375 -1.640625 L 10.921875 -1.640625 Z M 10.921875 0 "/></g></g></g><g fill="#000000" fill-opacity="1"><g transform="translate(202.831164, 193.874987)"><g><path d="M 3.15625 -4.390625 C 3.15625 -3.523438 3.296875 -2.867188 3.578125 -2.421875 C 3.859375 -1.984375 4.320312 -1.765625 4.96875 -1.765625 C 5.601562 -1.765625 6.054688 -1.984375 6.328125 -2.421875 C 6.609375 -2.859375 6.75 -3.515625 6.75 -4.390625 C 6.75 -5.253906 6.609375 -5.898438 6.328125 -6.328125 C 6.046875 -6.765625 5.585938 -6.984375 4.953125 -6.984375 C 4.316406 -6.984375 3.859375 -6.765625 3.578125 -6.328125 C 3.296875 -5.898438 3.15625 -5.253906 3.15625 -4.390625 Z M 9.1875 -4.390625 C 9.1875 -2.960938 8.8125 -1.847656 8.0625 -1.046875 C 7.3125 -0.242188 6.269531 0.15625 4.9375 0.15625 C 4.09375 0.15625 3.347656 -0.0234375 2.703125 -0.390625 C 2.066406 -0.765625 1.578125 -1.296875 1.234375 -1.984375 C 0.890625 -2.671875 0.71875 -3.472656 0.71875 -4.390625 C 0.71875 -5.816406 1.085938 -6.925781 1.828125 -7.71875 C 2.578125 -8.507812 3.628906 -8.90625 4.984375 -8.90625 C 5.816406 -8.90625 6.550781 -8.722656 7.1875 -8.359375 C 7.832031 -7.992188 8.328125 -7.46875 8.671875 -6.78125 C 9.015625 -6.101562 9.1875 -5.304688 9.1875 -4.390625 Z M 9.1875 -4.390625 "/></g></g></g><g fill="#000000" fill-opacity="1"><g transform="translate(212.734995, 193.874987)"><g><path d="M 6.078125 -6.953125 L 4.015625 -6.953125 L 4.015625 0 L 1.640625 0 L 1.640625 -6.953125 L 0.328125 -6.953125 L 0.328125 -8.09375 L 1.640625 -8.734375 L 1.640625 -9.375 C 1.640625 -10.375 1.882812 -11.101562 2.375 -11.5625 C 2.863281 -12.019531 3.644531 -12.25 4.71875 -12.25 C 5.539062 -12.25 6.273438 -12.125 6.921875 -11.875 L 6.3125 -10.125 C 5.832031 -10.28125 5.390625 -10.359375 4.984375 -10.359375 C 4.640625 -10.359375 4.390625 -10.253906 4.234375 -10.046875 C 4.085938 -9.847656 4.015625 -9.59375 4.015625 -9.28125 L 4.015625 -8.734375 L 6.078125 -8.734375 Z M 6.078125 -6.953125 "/></g></g></g><g fill="#000000" fill-opacity="1"><g transform="translate(218.9288, 193.874987)"><g><path d="M 6.078125 -6.953125 L 4.015625 -6.953125 L 4.015625 0 L 1.640625 0 L 1.640625 -6.953125 L 0.328125 -6.953125 L 0.328125 -8.09375 L 1.640625 -8.734375 L 1.640625 -9.375 C 1.640625 -10.375 1.882812 -11.101562 2.375 -11.5625 C 2.863281 -12.019531 3.644531 -12.25 4.71875 -12.25 C 5.539062 -12.25 6.273438 -12.125 6.921875 -11.875 L 6.3125 -10.125 C 5.832031 -10.28125 5.390625 -10.359375 4.984375 -10.359375 C 4.640625 -10.359375 4.390625 -10.253906 4.234375 -10.046875 C 4.085938 -9.847656 4.015625 -9.59375 4.015625 -9.28125 L 4.015625 -8.734375 L 6.078125 -8.734375 Z M 6.078125 -6.953125 "/></g></g></g><g fill="#000000" fill-opacity="1"><g transform="translate(225.122605, 193.874987)"><g><path d="M 1.15625 -11 C 1.15625 -11.769531 1.585938 -12.15625 2.453125 -12.15625 C 3.316406 -12.15625 3.75 -11.769531 3.75 -11 C 3.75 -10.625 3.640625 -10.332031 3.421875 -10.125 C 3.203125 -9.925781 2.878906 -9.828125 2.453125 -9.828125 C 1.585938 -9.828125 1.15625 -10.21875 1.15625 -11 Z M 3.640625 0 L 1.25 0 L 1.25 -8.734375 L 3.640625 -8.734375 Z M 3.640625 0 "/></g></g></g><g fill="#000000" fill-opacity="1"><g transform="translate(230.004231, 193.874987)"><g><path d="M 4.796875 0.15625 C 2.078125 0.15625 0.71875 -1.335938 0.71875 -4.328125 C 0.71875 -5.804688 1.085938 -6.9375 1.828125 -7.71875 C 2.566406 -8.507812 3.628906 -8.90625 5.015625 -8.90625 C 6.023438 -8.90625 6.929688 -8.707031 7.734375 -8.3125 L 7.03125 -6.46875 C 6.65625 -6.613281 6.304688 -6.734375 5.984375 -6.828125 C 5.660156 -6.929688 5.335938 -6.984375 5.015625 -6.984375 C 3.773438 -6.984375 3.15625 -6.101562 3.15625 -4.34375 C 3.15625 -2.632812 3.773438 -1.78125 5.015625 -1.78125 C 5.472656 -1.78125 5.894531 -1.835938 6.28125 -1.953125 C 6.675781 -2.078125 7.066406 -2.269531 7.453125 -2.53125 L 7.453125 -0.5 C 7.066406 -0.25 6.675781 -0.078125 6.28125 0.015625 C 5.894531 0.109375 5.398438 0.15625 4.796875 0.15625 Z M 4.796875 0.15625 "/></g></g></g><g fill="#000000" fill-opacity="1"><g transform="translate(238.22879, 193.874987)"><g><path d="M 1.15625 -11 C 1.15625 -11.769531 1.585938 -12.15625 2.453125 -12.15625 C 3.316406 -12.15625 3.75 -11.769531 3.75 -11 C 3.75 -10.625 3.640625 -10.332031 3.421875 -10.125 C 3.203125 -9.925781 2.878906 -9.828125 2.453125 -9.828125 C 1.585938 -9.828125 1.15625 -10.21875 1.15625 -11 Z M 3.640625 0 L 1.25 0 L 1.25 -8.734375 L 3.640625 -8.734375 Z M 3.640625 0 "/></g></g></g><g fill="#000000" fill-opacity="1"><g transform="translate(243.110416, 193.874987)"><g><path d="M 6.796875 0 L 6.34375 -1.1875 L 6.28125 -1.1875 C 5.875 -0.6875 5.457031 -0.335938 5.03125 -0.140625 C 4.613281 0.0546875 4.0625 0.15625 3.375 0.15625 C 2.539062 0.15625 1.878906 -0.0820312 1.390625 -0.5625 C 0.910156 -1.039062 0.671875 -1.722656 0.671875 -2.609375 C 0.671875 -3.535156 0.992188 -4.21875 1.640625 -4.65625 C 2.296875 -5.101562 3.273438 -5.347656 4.578125 -5.390625 L 6.09375 -5.4375 L 6.09375 -5.828125 C 6.09375 -6.710938 5.640625 -7.15625 4.734375 -7.15625 C 4.035156 -7.15625 3.21875 -6.941406 2.28125 -6.515625 L 1.484375 -8.125 C 2.492188 -8.65625 3.609375 -8.921875 4.828125 -8.921875 C 6.003906 -8.921875 6.90625 -8.664062 7.53125 -8.15625 C 8.15625 -7.644531 8.46875 -6.867188 8.46875 -5.828125 L 8.46875 0 Z M 6.09375 -4.046875 L 5.171875 -4.015625 C 4.484375 -3.992188 3.96875 -3.867188 3.625 -3.640625 C 3.289062 -3.410156 3.125 -3.0625 3.125 -2.59375 C 3.125 -1.925781 3.507812 -1.59375 4.28125 -1.59375 C 4.832031 -1.59375 5.269531 -1.75 5.59375 -2.0625 C 5.925781 -2.382812 6.09375 -2.804688 6.09375 -3.328125 Z M 6.09375 -4.046875 "/></g></g></g><g fill="#000000" fill-opacity="1"><g transform="translate(252.772124, 193.874987)"><g><path d="M 3.640625 0 L 1.25 0 L 1.25 -12.15625 L 3.640625 -12.15625 Z M 3.640625 0 "/></g></g></g><g fill="#000000" fill-opacity="1"><g transform="translate(257.65375, 193.874987)"><g/></g></g><g fill="#000000" fill-opacity="1"><g transform="translate(261.808985, 193.874987)"><g><path d="M 6.796875 0 L 6.34375 -1.1875 L 6.28125 -1.1875 C 5.875 -0.6875 5.457031 -0.335938 5.03125 -0.140625 C 4.613281 0.0546875 4.0625 0.15625 3.375 0.15625 C 2.539062 0.15625 1.878906 -0.0820312 1.390625 -0.5625 C 0.910156 -1.039062 0.671875 -1.722656 0.671875 -2.609375 C 0.671875 -3.535156 0.992188 -4.21875 1.640625 -4.65625 C 2.296875 -5.101562 3.273438 -5.347656 4.578125 -5.390625 L 6.09375 -5.4375 L 6.09375 -5.828125 C 6.09375 -6.710938 5.640625 -7.15625 4.734375 -7.15625 C 4.035156 -7.15625 3.21875 -6.941406 2.28125 -6.515625 L 1.484375 -8.125 C 2.492188 -8.65625 3.609375 -8.921875 4.828125 -8.921875 C 6.003906 -8.921875 6.90625 -8.664062 7.53125 -8.15625 C 8.15625 -7.644531 8.46875 -6.867188 8.46875 -5.828125 L 8.46875 0 Z M 6.09375 -4.046875 L 5.171875 -4.015625 C 4.484375 -3.992188 3.96875 -3.867188 3.625 -3.640625 C 3.289062 -3.410156 3.125 -3.0625 3.125 -2.59375 C 3.125 -1.925781 3.507812 -1.59375 4.28125 -1.59375 C 4.832031 -1.59375 5.269531 -1.75 5.59375 -2.0625 C 5.925781 -2.382812 6.09375 -2.804688 6.09375 -3.328125 Z M 6.09375 -4.046875 "/></g></g></g><g fill="#000000" fill-opacity="1"><g transform="translate(271.470693, 193.874987)"><g><path d="M 7.4375 0 L 7.125 -1.125 L 7 -1.125 C 6.738281 -0.71875 6.375 -0.398438 5.90625 -0.171875 C 5.4375 0.046875 4.90625 0.15625 4.3125 0.15625 C 3.28125 0.15625 2.503906 -0.117188 1.984375 -0.671875 C 1.460938 -1.222656 1.203125 -2.015625 1.203125 -3.046875 L 1.203125 -8.734375 L 3.59375 -8.734375 L 3.59375 -3.640625 C 3.59375 -3.003906 3.703125 -2.53125 3.921875 -2.21875 C 4.148438 -1.90625 4.507812 -1.75 5 -1.75 C 5.664062 -1.75 6.144531 -1.96875 6.4375 -2.40625 C 6.738281 -2.851562 6.890625 -3.59375 6.890625 -4.625 L 6.890625 -8.734375 L 9.265625 -8.734375 L 9.265625 0 Z M 7.4375 0 "/></g></g></g><g fill="#000000" fill-opacity="1"><g transform="translate(281.98375, 193.874987)"><g><path d="M 4.796875 0.15625 C 2.078125 0.15625 0.71875 -1.335938 0.71875 -4.328125 C 0.71875 -5.804688 1.085938 -6.9375 1.828125 -7.71875 C 2.566406 -8.507812 3.628906 -8.90625 5.015625 -8.90625 C 6.023438 -8.90625 6.929688 -8.707031 7.734375 -8.3125 L 7.03125 -6.46875 C 6.65625 -6.613281 6.304688 -6.734375 5.984375 -6.828125 C 5.660156 -6.929688 5.335938 -6.984375 5.015625 -6.984375 C 3.773438 -6.984375 3.15625 -6.101562 3.15625 -4.34375 C 3.15625 -2.632812 3.773438 -1.78125 5.015625 -1.78125 C 5.472656 -1.78125 5.894531 -1.835938 6.28125 -1.953125 C 6.675781 -2.078125 7.066406 -2.269531 7.453125 -2.53125 L 7.453125 -0.5 C 7.066406 -0.25 6.675781 -0.078125 6.28125 0.015625 C 5.894531 0.109375 5.398438 0.15625 4.796875 0.15625 Z M 4.796875 0.15625 "/></g></g></g><g fill="#000000" fill-opacity="1"><g transform="translate(290.20831, 193.874987)"><g><path d="M 4.9375 -1.75 C 5.351562 -1.75 5.851562 -1.835938 6.4375 -2.015625 L 6.4375 -0.25 C 5.84375 0.0195312 5.113281 0.15625 4.25 0.15625 C 3.289062 0.15625 2.59375 -0.0820312 2.15625 -0.5625 C 1.726562 -1.050781 1.515625 -1.773438 1.515625 -2.734375 L 1.515625 -6.953125 L 0.375 -6.953125 L 0.375 -7.953125 L 1.6875 -8.75 L 2.375 -10.59375 L 3.890625 -10.59375 L 3.890625 -8.734375 L 6.34375 -8.734375 L 6.34375 -6.953125 L 3.890625 -6.953125 L 3.890625 -2.734375 C 3.890625 -2.398438 3.984375 -2.148438 4.171875 -1.984375 C 4.367188 -1.828125 4.625 -1.75 4.9375 -1.75 Z M 4.9375 -1.75 "/></g></g></g><g fill="#000000" fill-opacity="1"><g transform="translate(297.151932, 193.874987)"><g><path d="M 1.15625 -11 C 1.15625 -11.769531 1.585938 -12.15625 2.453125 -12.15625 C 3.316406 -12.15625 3.75 -11.769531 3.75 -11 C 3.75 -10.625 3.640625 -10.332031 3.421875 -10.125 C 3.203125 -9.925781 2.878906 -9.828125 2.453125 -9.828125 C 1.585938 -9.828125 1.15625 -10.21875 1.15625 -11 Z M 3.640625 0 L 1.25 0 L 1.25 -8.734375 L 3.640625 -8.734375 Z M 3.640625 0 "/></g></g></g><g fill="#000000" fill-opacity="1"><g transform="translate(302.033558, 193.874987)"><g><path d="M 3.15625 -4.390625 C 3.15625 -3.523438 3.296875 -2.867188 3.578125 -2.421875 C 3.859375 -1.984375 4.320312 -1.765625 4.96875 -1.765625 C 5.601562 -1.765625 6.054688 -1.984375 6.328125 -2.421875 C 6.609375 -2.859375 6.75 -3.515625 6.75 -4.390625 C 6.75 -5.253906 6.609375 -5.898438 6.328125 -6.328125 C 6.046875 -6.765625 5.585938 -6.984375 4.953125 -6.984375 C 4.316406 -6.984375 3.859375 -6.765625 3.578125 -6.328125 C 3.296875 -5.898438 3.15625 -5.253906 3.15625 -4.390625 Z M 9.1875 -4.390625 C 9.1875 -2.960938 8.8125 -1.847656 8.0625 -1.046875 C 7.3125 -0.242188 6.269531 0.15625 4.9375 0.15625 C 4.09375 0.15625 3.347656 -0.0234375 2.703125 -0.390625 C 2.066406 -0.765625 1.578125 -1.296875 1.234375 -1.984375 C 0.890625 -2.671875 0.71875 -3.472656 0.71875 -4.390625 C 0.71875 -5.816406 1.085938 -6.925781 1.828125 -7.71875 C 2.578125 -8.507812 3.628906 -8.90625 4.984375 -8.90625 C 5.816406 -8.90625 6.550781 -8.722656 7.1875 -8.359375 C 7.832031 -7.992188 8.328125 -7.46875 8.671875 -6.78125 C 9.015625 -6.101562 9.1875 -5.304688 9.1875 -4.390625 Z M 9.1875 -4.390625 "/></g></g></g><g fill="#000000" fill-opacity="1"><g transform="translate(311.937388, 193.874987)"><g><path d="M 9.3125 0 L 6.9375 0 L 6.9375 -5.109375 C 6.9375 -5.734375 6.820312 -6.203125 6.59375 -6.515625 C 6.375 -6.835938 6.019531 -7 5.53125 -7 C 4.863281 -7 4.378906 -6.773438 4.078125 -6.328125 C 3.785156 -5.878906 3.640625 -5.140625 3.640625 -4.109375 L 3.640625 0 L 1.25 0 L 1.25 -8.734375 L 3.078125 -8.734375 L 3.390625 -7.625 L 3.53125 -7.625 C 3.789062 -8.039062 4.15625 -8.359375 4.625 -8.578125 C 5.09375 -8.796875 5.625 -8.90625 6.21875 -8.90625 C 7.226562 -8.90625 7.992188 -8.628906 8.515625 -8.078125 C 9.046875 -7.523438 9.3125 -6.734375 9.3125 -5.703125 Z M 9.3125 0 "/></g></g></g></svg></g><!--ITEM: Upload 3--><g transform="translate(-348.0 -730.0) rotate(0.0 880.0 880.0) translate(0.0 0.0) scale(4.693333333333333 4.693333445973336)"><svg width="375.0" height="374.999991" viewBox="0.0 0.0 375.0 374.999991"><defs><g/></defs><g fill="rgb(252,212,54)"><g transform="translate(81.70119, 193.262507)"><g><path d="M 14.75 0 L 9.203125 -19.53125 L 9.03125 -19.53125 C 9.289062 -16.207031 9.421875 -13.625 9.421875 -11.78125 L 9.421875 0 L 2.9375 0 L 2.9375 -27.125 L 12.6875 -27.125 L 18.34375 -7.875 L 18.5 -7.875 L 24.046875 -27.125 L 33.828125 -27.125 L 33.828125 0 L 27.09375 0 L 27.09375 -11.890625 C 27.09375 -12.515625 27.097656 -13.203125 27.109375 -13.953125 C 27.128906 -14.703125 27.21875 -16.550781 27.375 -19.5 L 27.203125 -19.5 L 21.734375 0 Z M 14.75 0 "/></g></g></g><g fill="rgb(252,212,54)"><g transform="translate(118.431916, 193.262507)"><g><path d="M 19.03125 0 L 2.9375 0 L 2.9375 -27.125 L 19.03125 -27.125 L 19.03125 -21.25 L 10.265625 -21.25 L 10.265625 -16.984375 L 18.390625 -16.984375 L 18.390625 -11.09375 L 10.265625 -11.09375 L 10.265625 -5.96875 L 19.03125 -5.96875 Z M 19.03125 0 "/></g></g></g><g fill="rgb(252,212,54)"><g transform="translate(139.283096, 193.262507)"><g><path d="M 14.90625 0 L 7.578125 0 L 7.578125 -21.140625 L 0.953125 -21.140625 L 0.953125 -27.125 L 21.5 -27.125 L 21.5 -21.140625 L 14.90625 -21.140625 Z M 14.90625 0 "/></g></g></g><g fill="rgb(252,212,54)"><g transform="translate(161.72965, 193.262507)"><g><path d="M 19.578125 0 L 18.234375 -5.078125 L 9.421875 -5.078125 L 8.046875 0 L 0 0 L 8.84375 -27.234375 L 18.625 -27.234375 L 27.59375 0 Z M 16.71875 -11.09375 L 15.546875 -15.546875 C 15.273438 -16.535156 14.941406 -17.816406 14.546875 -19.390625 C 14.160156 -20.960938 13.90625 -22.085938 13.78125 -22.765625 C 13.675781 -22.140625 13.457031 -21.101562 13.125 -19.65625 C 12.800781 -18.207031 12.078125 -15.351562 10.953125 -11.09375 Z M 16.71875 -11.09375 "/></g></g></g><g fill="rgb(252,212,54)"><g transform="translate(76.27043, 213.137446)"><g><path d="M 15.796875 -7.875 C 15.796875 -5.363281 15.160156 -3.382812 13.890625 -1.9375 C 12.617188 -0.5 10.847656 0.21875 8.578125 0.21875 C 6.265625 0.21875 4.476562 -0.488281 3.21875 -1.90625 C 1.96875 -3.320312 1.34375 -5.316406 1.34375 -7.890625 C 1.34375 -10.453125 1.972656 -12.4375 3.234375 -13.84375 C 4.492188 -15.25 6.285156 -15.953125 8.609375 -15.953125 C 10.859375 -15.953125 12.617188 -15.234375 13.890625 -13.796875 C 15.160156 -12.367188 15.796875 -10.394531 15.796875 -7.875 Z M 3.28125 -7.875 C 3.28125 -5.75 3.734375 -4.132812 4.640625 -3.03125 C 5.546875 -1.9375 6.859375 -1.390625 8.578125 -1.390625 C 10.316406 -1.390625 11.628906 -1.9375 12.515625 -3.03125 C 13.410156 -4.125 13.859375 -5.738281 13.859375 -7.875 C 13.859375 -9.988281 13.414062 -11.585938 12.53125 -12.671875 C 11.644531 -13.765625 10.335938 -14.3125 8.609375 -14.3125 C 6.867188 -14.3125 5.546875 -13.757812 4.640625 -12.65625 C 3.734375 -11.5625 3.28125 -9.96875 3.28125 -7.875 Z M 3.28125 -7.875 "/></g></g></g><g fill="rgb(252,212,54)"><g transform="translate(93.401181, 213.137446)"><g><path d="M 12.125 -11.125 C 12.125 -9.539062 11.578125 -8.316406 10.484375 -7.453125 C 9.398438 -6.597656 7.847656 -6.171875 5.828125 -6.171875 L 3.984375 -6.171875 L 3.984375 0 L 2.15625 0 L 2.15625 -15.703125 L 6.234375 -15.703125 C 10.160156 -15.703125 12.125 -14.175781 12.125 -11.125 Z M 3.984375 -7.75 L 5.625 -7.75 C 7.25 -7.75 8.421875 -8.007812 9.140625 -8.53125 C 9.867188 -9.050781 10.234375 -9.890625 10.234375 -11.046875 C 10.234375 -12.078125 9.890625 -12.847656 9.203125 -13.359375 C 8.523438 -13.867188 7.46875 -14.125 6.03125 -14.125 L 3.984375 -14.125 Z M 3.984375 -7.75 "/></g></g></g><g fill="rgb(252,212,54)"><g transform="translate(106.643951, 213.137446)"><g><path d="M 10.921875 0 L 2.15625 0 L 2.15625 -15.703125 L 10.921875 -15.703125 L 10.921875 -14.078125 L 3.984375 -14.078125 L 3.984375 -9.03125 L 10.5 -9.03125 L 10.5 -7.40625 L 3.984375 -7.40625 L 3.984375 -1.640625 L 10.921875 -1.640625 Z M 10.921875 0 "/></g></g></g><g fill="rgb(252,212,54)"><g transform="translate(118.877135, 213.137446)"><g><path d="M 14.421875 0 L 12.34375 0 L 3.765625 -13.1875 L 3.671875 -13.1875 C 3.785156 -11.632812 3.84375 -10.210938 3.84375 -8.921875 L 3.84375 0 L 2.15625 0 L 2.15625 -15.703125 L 4.21875 -15.703125 L 12.78125 -2.578125 L 12.875 -2.578125 C 12.851562 -2.773438 12.816406 -3.394531 12.765625 -4.4375 C 12.722656 -5.488281 12.707031 -6.238281 12.71875 -6.6875 L 12.71875 -15.703125 L 14.421875 -15.703125 Z M 14.421875 0 "/></g></g></g><g fill="rgb(252,212,54)"><g transform="translate(135.460127, 213.137446)"><g><path d="M 8.890625 -14.296875 C 7.160156 -14.296875 5.796875 -13.71875 4.796875 -12.5625 C 3.796875 -11.414062 3.296875 -9.847656 3.296875 -7.859375 C 3.296875 -5.796875 3.773438 -4.203125 4.734375 -3.078125 C 5.703125 -1.960938 7.078125 -1.40625 8.859375 -1.40625 C 9.953125 -1.40625 11.203125 -1.601562 12.609375 -2 L 12.609375 -0.390625 C 11.523438 0.015625 10.179688 0.21875 8.578125 0.21875 C 6.265625 0.21875 4.476562 -0.484375 3.21875 -1.890625 C 1.96875 -3.296875 1.34375 -5.289062 1.34375 -7.875 C 1.34375 -9.488281 1.644531 -10.90625 2.25 -12.125 C 2.851562 -13.34375 3.722656 -14.28125 4.859375 -14.9375 C 6.003906 -15.601562 7.351562 -15.9375 8.90625 -15.9375 C 10.550781 -15.9375 11.988281 -15.632812 13.21875 -15.03125 L 12.453125 -13.453125 C 11.265625 -14.015625 10.078125 -14.296875 8.890625 -14.296875 Z M 8.890625 -14.296875 "/></g></g></g><g fill="rgb(252,212,54)"><g transform="translate(149.336568, 213.137446)"><g><path d="M 15.796875 -7.875 C 15.796875 -5.363281 15.160156 -3.382812 13.890625 -1.9375 C 12.617188 -0.5 10.847656 0.21875 8.578125 0.21875 C 6.265625 0.21875 4.476562 -0.488281 3.21875 -1.90625 C 1.96875 -3.320312 1.34375 -5.316406 1.34375 -7.890625 C 1.34375 -10.453125 1.972656 -12.4375 3.234375 -13.84375 C 4.492188 -15.25 6.285156 -15.953125 8.609375 -15.953125 C 10.859375 -15.953125 12.617188 -15.234375 13.890625 -13.796875 C 15.160156 -12.367188 15.796875 -10.394531 15.796875 -7.875 Z M 3.28125 -7.875 C 3.28125 -5.75 3.734375 -4.132812 4.640625 -3.03125 C 5.546875 -1.9375 6.859375 -1.390625 8.578125 -1.390625 C 10.316406 -1.390625 11.628906 -1.9375 12.515625 -3.03125 C 13.410156 -4.125 13.859375 -5.738281 13.859375 -7.875 C 13.859375 -9.988281 13.414062 -11.585938 12.53125 -12.671875 C 11.644531 -13.765625 10.335938 -14.3125 8.609375 -14.3125 C 6.867188 -14.3125 5.546875 -13.757812 4.640625 -12.65625 C 3.734375 -11.5625 3.28125 -9.96875 3.28125 -7.875 Z M 3.28125 -7.875 "/></g></g></g><g fill="rgb(252,212,54)"><g transform="translate(166.46732, 213.137446)"><g><path d="M 14.703125 -8 C 14.703125 -5.40625 13.992188 -3.421875 12.578125 -2.046875 C 11.171875 -0.679688 9.148438 0 6.515625 0 L 2.15625 0 L 2.15625 -15.703125 L 6.96875 -15.703125 C 9.414062 -15.703125 11.316406 -15.023438 12.671875 -13.671875 C 14.023438 -12.316406 14.703125 -10.425781 14.703125 -8 Z M 12.765625 -7.9375 C 12.765625 -9.988281 12.25 -11.53125 11.21875 -12.5625 C 10.1875 -13.601562 8.660156 -14.125 6.640625 -14.125 L 3.984375 -14.125 L 3.984375 -1.578125 L 6.203125 -1.578125 C 8.378906 -1.578125 10.015625 -2.113281 11.109375 -3.1875 C 12.210938 -4.257812 12.765625 -5.84375 12.765625 -7.9375 Z M 12.765625 -7.9375 "/></g></g></g><g fill="rgb(252,212,54)"><g transform="translate(182.502562, 213.137446)"><g><path d="M 10.921875 0 L 2.15625 0 L 2.15625 -15.703125 L 10.921875 -15.703125 L 10.921875 -14.078125 L 3.984375 -14.078125 L 3.984375 -9.03125 L 10.5 -9.03125 L 10.5 -7.40625 L 3.984375 -7.40625 L 3.984375 -1.640625 L 10.921875 -1.640625 Z M 10.921875 0 "/></g></g></g><g fill="#000"><g transform="translate(202.831164, 193.874987)"><g><path d="M 3.15625 -4.390625 C 3.15625 -3.523438 3.296875 -2.867188 3.578125 -2.421875 C 3.859375 -1.984375 4.320312 -1.765625 4.96875 -1.765625 C 5.601562 -1.765625 6.054688 -1.984375 6.328125 -2.421875 C 6.609375 -2.859375 6.75 -3.515625 6.75 -4.390625 C 6.75 -5.253906 6.609375 -5.898438 6.328125 -6.328125 C 6.046875 -6.765625 5.585938 -6.984375 4.953125 -6.984375 C 4.316406 -6.984375 3.859375 -6.765625 3.578125 -6.328125 C 3.296875 -5.898438 3.15625 -5.253906 3.15625 -4.390625 Z M 9.1875 -4.390625 C 9.1875 -2.960938 8.8125 -1.847656 8.0625 -1.046875 C 7.3125 -0.242188 6.269531 0.15625 4.9375 0.15625 C 4.09375 0.15625 3.347656 -0.0234375 2.703125 -0.390625 C 2.066406 -0.765625 1.578125 -1.296875 1.234375 -1.984375 C 0.890625 -2.671875 0.71875 -3.472656 0.71875 -4.390625 C 0.71875 -5.816406 1.085938 -6.925781 1.828125 -7.71875 C 2.578125 -8.507812 3.628906 -8.90625 4.984375 -8.90625 C 5.816406 -8.90625 6.550781 -8.722656 7.1875 -8.359375 C 7.832031 -7.992188 8.328125 -7.46875 8.671875 -6.78125 C 9.015625 -6.101562 9.1875 -5.304688 9.1875 -4.390625 Z M 9.1875 -4.390625 "/></g></g></g><g fill="#000"><g transform="translate(212.734995, 193.874987)"><g><path d="M 6.078125 -6.953125 L 4.015625 -6.953125 L 4.015625 0 L 1.640625 0 L 1.640625 -6.953125 L 0.328125 -6.953125 L 0.328125 -8.09375 L 1.640625 -8.734375 L 1.640625 -9.375 C 1.640625 -10.375 1.882812 -11.101562 2.375 -11.5625 C 2.863281 -12.019531 3.644531 -12.25 4.71875 -12.25 C 5.539062 -12.25 6.273438 -12.125 6.921875 -11.875 L 6.3125 -10.125 C 5.832031 -10.28125 5.390625 -10.359375 4.984375 -10.359375 C 4.640625 -10.359375 4.390625 -10.253906 4.234375 -10.046875 C 4.085938 -9.847656 4.015625 -9.59375 4.015625 -9.28125 L 4.015625 -8.734375 L 6.078125 -8.734375 Z M 6.078125 -6.953125 "/></g></g></g><g fill="#000"><g transform="translate(218.9288, 193.874987)"><g><path d="M 6.078125 -6.953125 L 4.015625 -6.953125 L 4.015625 0 L 1.640625 0 L 1.640625 -6.953125 L 0.328125 -6.953125 L 0.328125 -8.09375 L 1.640625 -8.734375 L 1.640625 -9.375 C 1.640625 -10.375 1.882812 -11.101562 2.375 -11.5625 C 2.863281 -12.019531 3.644531 -12.25 4.71875 -12.25 C 5.539062 -12.25 6.273438 -12.125 6.921875 -11.875 L 6.3125 -10.125 C 5.832031 -10.28125 5.390625 -10.359375 4.984375 -10.359375 C 4.640625 -10.359375 4.390625 -10.253906 4.234375 -10.046875 C 4.085938 -9.847656 4.015625 -9.59375 4.015625 -9.28125 L 4.015625 -8.734375 L 6.078125 -8.734375 Z M 6.078125 -6.953125 "/></g></g></g><g fill="#000"><g transform="translate(225.122605, 193.874987)"><g><path d="M 1.15625 -11 C 1.15625 -11.769531 1.585938 -12.15625 2.453125 -12.15625 C 3.316406 -12.15625 3.75 -11.769531 3.75 -11 C 3.75 -10.625 3.640625 -10.332031 3.421875 -10.125 C 3.203125 -9.925781 2.878906 -9.828125 2.453125 -9.828125 C 1.585938 -9.828125 1.15625 -10.21875 1.15625 -11 Z M 3.640625 0 L 1.25 0 L 1.25 -8.734375 L 3.640625 -8.734375 Z M 3.640625 0 "/></g></g></g><g fill="#000"><g transform="translate(230.004231, 193.874987)"><g><path d="M 4.796875 0.15625 C 2.078125 0.15625 0.71875 -1.335938 0.71875 -4.328125 C 0.71875 -5.804688 1.085938 -6.9375 1.828125 -7.71875 C 2.566406 -8.507812 3.628906 -8.90625 5.015625 -8.90625 C 6.023438 -8.90625 6.929688 -8.707031 7.734375 -8.3125 L 7.03125 -6.46875 C 6.65625 -6.613281 6.304688 -6.734375 5.984375 -6.828125 C 5.660156 -6.929688 5.335938 -6.984375 5.015625 -6.984375 C 3.773438 -6.984375 3.15625 -6.101562 3.15625 -4.34375 C 3.15625 -2.632812 3.773438 -1.78125 5.015625 -1.78125 C 5.472656 -1.78125 5.894531 -1.835938 6.28125 -1.953125 C 6.675781 -2.078125 7.066406 -2.269531 7.453125 -2.53125 L 7.453125 -0.5 C 7.066406 -0.25 6.675781 -0.078125 6.28125 0.015625 C 5.894531 0.109375 5.398438 0.15625 4.796875 0.15625 Z M 4.796875 0.15625 "/></g></g></g><g fill="#000"><g transform="translate(238.22879, 193.874987)"><g><path d="M 1.15625 -11 C 1.15625 -11.769531 1.585938 -12.15625 2.453125 -12.15625 C 3.316406 -12.15625 3.75 -11.769531 3.75 -11 C 3.75 -10.625 3.640625 -10.332031 3.421875 -10.125 C 3.203125 -9.925781 2.878906 -9.828125 2.453125 -9.828125 C 1.585938 -9.828125 1.15625 -10.21875 1.15625 -11 Z M 3.640625 0 L 1.25 0 L 1.25 -8.734375 L 3.640625 -8.734375 Z M 3.640625 0 "/></g></g></g><g fill="#000"><g transform="translate(243.110416, 193.874987)"><g><path d="M 6.796875 0 L 6.34375 -1.1875 L 6.28125 -1.1875 C 5.875 -0.6875 5.457031 -0.335938 5.03125 -0.140625 C 4.613281 0.0546875 4.0625 0.15625 3.375 0.15625 C 2.539062 0.15625 1.878906 -0.0820312 1.390625 -0.5625 C 0.910156 -1.039062 0.671875 -1.722656 0.671875 -2.609375 C 0.671875 -3.535156 0.992188 -4.21875 1.640625 -4.65625 C 2.296875 -5.101562 3.273438 -5.347656 4.578125 -5.390625 L 6.09375 -5.4375 L 6.09375 -5.828125 C 6.09375 -6.710938 5.640625 -7.15625 4.734375 -7.15625 C 4.035156 -7.15625 3.21875 -6.941406 2.28125 -6.515625 L 1.484375 -8.125 C 2.492188 -8.65625 3.609375 -8.921875 4.828125 -8.921875 C 6.003906 -8.921875 6.90625 -8.664062 7.53125 -8.15625 C 8.15625 -7.644531 8.46875 -6.867188 8.46875 -5.828125 L 8.46875 0 Z M 6.09375 -4.046875 L 5.171875 -4.015625 C 4.484375 -3.992188 3.96875 -3.867188 3.625 -3.640625 C 3.289062 -3.410156 3.125 -3.0625 3.125 -2.59375 C 3.125 -1.925781 3.507812 -1.59375 4.28125 -1.59375 C 4.832031 -1.59375 5.269531 -1.75 5.59375 -2.0625 C 5.925781 -2.382812 6.09375 -2.804688 6.09375 -3.328125 Z M 6.09375 -4.046875 "/></g></g></g><g fill="#000"><g transform="translate(252.772124, 193.874987)"><g><path d="M 3.640625 0 L 1.25 0 L 1.25 -12.15625 L 3.640625 -12.15625 Z M 3.640625 0 "/></g></g></g><g fill="#000"><g transform="translate(257.65375, 193.874987)"><g/></g></g><g fill="#000"><g transform="translate(261.808985, 193.874987)"><g><path d="M 6.796875 0 L 6.34375 -1.1875 L 6.28125 -1.1875 C 5.875 -0.6875 5.457031 -0.335938 5.03125 -0.140625 C 4.613281 0.0546875 4.0625 0.15625 3.375 0.15625 C 2.539062 0.15625 1.878906 -0.0820312 1.390625 -0.5625 C 0.910156 -1.039062 0.671875 -1.722656 0.671875 -2.609375 C 0.671875 -3.535156 0.992188 -4.21875 1.640625 -4.65625 C 2.296875 -5.101562 3.273438 -5.347656 4.578125 -5.390625 L 6.09375 -5.4375 L 6.09375 -5.828125 C 6.09375 -6.710938 5.640625 -7.15625 4.734375 -7.15625 C 4.035156 -7.15625 3.21875 -6.941406 2.28125 -6.515625 L 1.484375 -8.125 C 2.492188 -8.65625 3.609375 -8.921875 4.828125 -8.921875 C 6.003906 -8.921875 6.90625 -8.664062 7.53125 -8.15625 C 8.15625 -7.644531 8.46875 -6.867188 8.46875 -5.828125 L 8.46875 0 Z M 6.09375 -4.046875 L 5.171875 -4.015625 C 4.484375 -3.992188 3.96875 -3.867188 3.625 -3.640625 C 3.289062 -3.410156 3.125 -3.0625 3.125 -2.59375 C 3.125 -1.925781 3.507812 -1.59375 4.28125 -1.59375 C 4.832031 -1.59375 5.269531 -1.75 5.59375 -2.0625 C 5.925781 -2.382812 6.09375 -2.804688 6.09375 -3.328125 Z M 6.09375 -4.046875 "/></g></g></g><g fill="#000"><g transform="translate(271.470693, 193.874987)"><g><path d="M 7.4375 0 L 7.125 -1.125 L 7 -1.125 C 6.738281 -0.71875 6.375 -0.398438 5.90625 -0.171875 C 5.4375 0.046875 4.90625 0.15625 4.3125 0.15625 C 3.28125 0.15625 2.503906 -0.117188 1.984375 -0.671875 C 1.460938 -1.222656 1.203125 -2.015625 1.203125 -3.046875 L 1.203125 -8.734375 L 3.59375 -8.734375 L 3.59375 -3.640625 C 3.59375 -3.003906 3.703125 -2.53125 3.921875 -2.21875 C 4.148438 -1.90625 4.507812 -1.75 5 -1.75 C 5.664062 -1.75 6.144531 -1.96875 6.4375 -2.40625 C 6.738281 -2.851562 6.890625 -3.59375 6.890625 -4.625 L 6.890625 -8.734375 L 9.265625 -8.734375 L 9.265625 0 Z M 7.4375 0 "/></g></g></g><g fill="#000"><g transform="translate(281.98375, 193.874987)"><g><path d="M 4.796875 0.15625 C 2.078125 0.15625 0.71875 -1.335938 0.71875 -4.328125 C 0.71875 -5.804688 1.085938 -6.9375 1.828125 -7.71875 C 2.566406 -8.507812 3.628906 -8.90625 5.015625 -8.90625 C 6.023438 -8.90625 6.929688 -8.707031 7.734375 -8.3125 L 7.03125 -6.46875 C 6.65625 -6.613281 6.304688 -6.734375 5.984375 -6.828125 C 5.660156 -6.929688 5.335938 -6.984375 5.015625 -6.984375 C 3.773438 -6.984375 3.15625 -6.101562 3.15625 -4.34375 C 3.15625 -2.632812 3.773438 -1.78125 5.015625 -1.78125 C 5.472656 -1.78125 5.894531 -1.835938 6.28125 -1.953125 C 6.675781 -2.078125 7.066406 -2.269531 7.453125 -2.53125 L 7.453125 -0.5 C 7.066406 -0.25 6.675781 -0.078125 6.28125 0.015625 C 5.894531 0.109375 5.398438 0.15625 4.796875 0.15625 Z M 4.796875 0.15625 "/></g></g></g><g fill="#000"><g transform="translate(290.20831, 193.874987)"><g><path d="M 4.9375 -1.75 C 5.351562 -1.75 5.851562 -1.835938 6.4375 -2.015625 L 6.4375 -0.25 C 5.84375 0.0195312 5.113281 0.15625 4.25 0.15625 C 3.289062 0.15625 2.59375 -0.0820312 2.15625 -0.5625 C 1.726562 -1.050781 1.515625 -1.773438 1.515625 -2.734375 L 1.515625 -6.953125 L 0.375 -6.953125 L 0.375 -7.953125 L 1.6875 -8.75 L 2.375 -10.59375 L 3.890625 -10.59375 L 3.890625 -8.734375 L 6.34375 -8.734375 L 6.34375 -6.953125 L 3.890625 -6.953125 L 3.890625 -2.734375 C 3.890625 -2.398438 3.984375 -2.148438 4.171875 -1.984375 C 4.367188 -1.828125 4.625 -1.75 4.9375 -1.75 Z M 4.9375 -1.75 "/></g></g></g><g fill="#000"><g transform="translate(297.151932, 193.874987)"><g><path d="M 1.15625 -11 C 1.15625 -11.769531 1.585938 -12.15625 2.453125 -12.15625 C 3.316406 -12.15625 3.75 -11.769531 3.75 -11 C 3.75 -10.625 3.640625 -10.332031 3.421875 -10.125 C 3.203125 -9.925781 2.878906 -9.828125 2.453125 -9.828125 C 1.585938 -9.828125 1.15625 -10.21875 1.15625 -11 Z M 3.640625 0 L 1.25 0 L 1.25 -8.734375 L 3.640625 -8.734375 Z M 3.640625 0 "/></g></g></g><g fill="#000"><g transform="translate(302.033558, 193.874987)"><g><path d="M 3.15625 -4.390625 C 3.15625 -3.523438 3.296875 -2.867188 3.578125 -2.421875 C 3.859375 -1.984375 4.320312 -1.765625 4.96875 -1.765625 C 5.601562 -1.765625 6.054688 -1.984375 6.328125 -2.421875 C 6.609375 -2.859375 6.75 -3.515625 6.75 -4.390625 C 6.75 -5.253906 6.609375 -5.898438 6.328125 -6.328125 C 6.046875 -6.765625 5.585938 -6.984375 4.953125 -6.984375 C 4.316406 -6.984375 3.859375 -6.765625 3.578125 -6.328125 C 3.296875 -5.898438 3.15625 -5.253906 3.15625 -4.390625 Z M 9.1875 -4.390625 C 9.1875 -2.960938 8.8125 -1.847656 8.0625 -1.046875 C 7.3125 -0.242188 6.269531 0.15625 4.9375 0.15625 C 4.09375 0.15625 3.347656 -0.0234375 2.703125 -0.390625 C 2.066406 -0.765625 1.578125 -1.296875 1.234375 -1.984375 C 0.890625 -2.671875 0.71875 -3.472656 0.71875 -4.390625 C 0.71875 -5.816406 1.085938 -6.925781 1.828125 -7.71875 C 2.578125 -8.507812 3.628906 -8.90625 4.984375 -8.90625 C 5.816406 -8.90625 6.550781 -8.722656 7.1875 -8.359375 C 7.832031 -7.992188 8.328125 -7.46875 8.671875 -6.78125 C 9.015625 -6.101562 9.1875 -5.304688 9.1875 -4.390625 Z M 9.1875 -4.390625 "/></g></g></g><g fill="#000"><g transform="translate(311.937388, 193.874987)"><g><path d="M 9.3125 0 L 6.9375 0 L 6.9375 -5.109375 C 6.9375 -5.734375 6.820312 -6.203125 6.59375 -6.515625 C 6.375 -6.835938 6.019531 -7 5.53125 -7 C 4.863281 -7 4.378906 -6.773438 4.078125 -6.328125 C 3.785156 -5.878906 3.640625 -5.140625 3.640625 -4.109375 L 3.640625 0 L 1.25 0 L 1.25 -8.734375 L 3.078125 -8.734375 L 3.390625 -7.625 L 3.53125 -7.625 C 3.789062 -8.039062 4.15625 -8.359375 4.625 -8.578125 C 5.09375 -8.796875 5.625 -8.90625 6.21875 -8.90625 C 7.226562 -8.90625 7.992188 -8.628906 8.515625 -8.078125 C 9.046875 -7.523438 9.3125 -6.734375 9.3125 -5.703125 Z M 9.3125 0 "/></g></g></g></svg></g></svg>
