<svg xmlns="http://www.w3.org/2000/svg" xmlns:xlink="http://www.w3.org/1999/xlink" width="500" zoomAndPan="magnify" viewBox="0 0 375 374.999991" height="500" preserveAspectRatio="xMidYMid meet" version="1.0"><defs><clipPath id="id1"><path d="M 42.441406 42.441406 L 332.691406 42.441406 L 332.691406 332.691406 L 42.441406 332.691406 Z M 42.441406 42.441406 " clip-rule="nonzero"/></clipPath><clipPath id="id2"><path d="M 51.902344 51.902344 L 323.402344 51.902344 L 323.402344 323.402344 L 51.902344 323.402344 Z M 51.902344 51.902344 " clip-rule="nonzero"/></clipPath><clipPath id="id3"><path d="M 75 89 L 300.390625 89 L 300.390625 305.613281 L 75 305.613281 Z M 75 89 " clip-rule="nonzero"/></clipPath><clipPath id="id4"><path d="M 8.339844 172.117188 L 26.339844 172.117188 L 26.339844 190.117188 L 8.339844 190.117188 Z M 8.339844 172.117188 " clip-rule="nonzero"/></clipPath><clipPath id="id5"><path d="M 348.59375 172.117188 L 366.59375 172.117188 L 366.59375 190.117188 L 348.59375 190.117188 Z M 348.59375 172.117188 " clip-rule="nonzero"/></clipPath><clipPath id="id6"><path d="M 177.125 76.660156 L 197.839844 76.660156 L 197.839844 96.070312 L 177.125 96.070312 Z M 177.125 76.660156 " clip-rule="nonzero"/></clipPath><clipPath id="id7"><path d="M 177.125 175.964844 L 198.125 175.964844 L 198.125 186.464844 L 177.125 186.464844 Z M 177.125 175.964844 " clip-rule="nonzero"/></clipPath><clipPath id="id8"><path d="M 157.246094 234.199219 L 217.996094 234.199219 L 217.996094 264.199219 L 157.246094 264.199219 Z M 157.246094 234.199219 " clip-rule="nonzero"/></clipPath><clipPath id="id9"><path d="M 180.234375 197.324219 L 194.484375 197.324219 L 194.484375 211.574219 L 180.234375 211.574219 Z M 180.234375 197.324219 " clip-rule="nonzero"/></clipPath><clipPath id="id10"><path d="M 26.40625 26.40625 L 348.90625 26.40625 L 348.90625 348.90625 L 26.40625 348.90625 Z M 26.40625 26.40625 " clip-rule="nonzero"/></clipPath><clipPath id="id11"><path d="M 178.464844 8.339844 L 196.464844 8.339844 L 196.464844 26.339844 L 178.464844 26.339844 Z M 178.464844 8.339844 " clip-rule="nonzero"/></clipPath><clipPath id="id12"><path d="M 178.464844 348.59375 L 196.464844 348.59375 L 196.464844 366.59375 L 178.464844 366.59375 Z M 178.464844 348.59375 " clip-rule="nonzero"/></clipPath><clipPath id="id13"><path d="M 305.027344 296.753906 L 323.027344 296.753906 L 323.027344 314.753906 L 305.027344 314.753906 Z M 305.027344 296.753906 " clip-rule="nonzero"/></clipPath><clipPath id="id14"><path d="M 52.070312 296.753906 L 70.070312 296.753906 L 70.070312 314.753906 L 52.070312 314.753906 Z M 52.070312 296.753906 " clip-rule="nonzero"/></clipPath><clipPath id="id15"><path d="M 305.027344 58.589844 L 323.027344 58.589844 L 323.027344 76.589844 L 305.027344 76.589844 Z M 305.027344 58.589844 " clip-rule="nonzero"/></clipPath><clipPath id="id16"><path d="M 52.070312 58.589844 L 70.070312 58.589844 L 70.070312 76.589844 L 52.070312 76.589844 Z M 52.070312 58.589844 " clip-rule="nonzero"/></clipPath></defs><g clip-path="url(#id1)"><path fill="#bd9d60" d="M 187.515625 332.691406 C 107.5625 332.691406 42.441406 267.570312 42.441406 187.515625 C 42.441406 107.464844 107.5625 42.441406 187.515625 42.441406 C 267.46875 42.441406 332.59375 107.5625 332.59375 187.515625 C 332.691406 267.570312 267.570312 332.691406 187.515625 332.691406 Z M 187.515625 44.898438 C 108.839844 44.898438 44.898438 108.839844 44.898438 187.515625 C 44.898438 266.195312 108.9375 330.234375 187.515625 330.234375 C 266.09375 330.234375 330.234375 266.195312 330.234375 187.515625 C 330.234375 108.839844 266.195312 44.898438 187.515625 44.898438 Z M 187.515625 44.898438 " fill-opacity="1" fill-rule="nonzero"/></g><g clip-path="url(#id2)"><path fill="#bd9d60" d="M 187.605469 323.402344 C 112.816406 323.402344 51.902344 262.488281 51.902344 187.605469 C 51.902344 112.726562 112.816406 51.902344 187.605469 51.902344 C 262.394531 51.902344 323.3125 112.816406 323.3125 187.605469 C 323.402344 262.488281 262.488281 323.402344 187.605469 323.402344 Z M 187.605469 54.199219 C 114.011719 54.199219 54.199219 114.011719 54.199219 187.605469 C 54.199219 261.203125 114.105469 321.105469 187.605469 321.105469 C 261.109375 321.105469 321.105469 261.203125 321.105469 187.605469 C 321.105469 114.011719 261.203125 54.199219 187.605469 54.199219 Z M 187.605469 54.199219 " fill-opacity="1" fill-rule="nonzero"/></g><g clip-path="url(#id3)"><path fill="#bd9d60" d="M 139.332031 90.753906 C 140.355469 90.070312 141.25 88.863281 142.636719 89.210938 C 141.929688 90.757812 140.332031 91.613281 139.53125 93.09375 C 135.46875 103.722656 127.953125 104.046875 127.5625 109.015625 C 130.652344 107.21875 133.507812 105.019531 136.691406 103.351562 C 137.71875 102.875 138.566406 102.105469 139.203125 101.179688 C 146.394531 91.425781 158.210938 89.417969 169.988281 92.285156 C 170.636719 92.359375 170.832031 92.9375 170.984375 93.480469 C 169.15625 93.738281 167.296875 93.648438 165.480469 93.917969 C 158.175781 96.070312 156.210938 105.714844 144.394531 103.8125 C 142.738281 103.863281 141.117188 103.386719 139.46875 103.410156 C 135.917969 105.160156 128.742188 109.664062 127.074219 111.410156 C 128.257812 112.046875 129.632812 111.855469 130.925781 111.789062 C 132.945312 111.542969 134.5625 110.230469 136.324219 109.339844 C 142.152344 106.304688 142.535156 107.101562 150.34375 108.066406 C 153.148438 108.632812 156.015625 108.152344 158.84375 108.296875 C 158.792969 108.472656 158.6875 108.824219 158.632812 109 C 157.039062 109.558594 155.34375 109.632812 153.695312 109.90625 C 150.390625 111.136719 147.566406 113.519531 144.113281 114.359375 C 137.359375 114.507812 130.648438 113.460938 123.90625 113.707031 C 119.332031 117.433594 114.933594 121.417969 111.160156 125.972656 C 113.929688 127.742188 118.804688 122.347656 121.046875 120.929688 C 122.980469 119.503906 125.390625 118.921875 127.761719 118.875 C 139.78125 117.820312 133.332031 118.667969 140.78125 117.054688 C 140.773438 117.289062 140.761719 117.753906 140.757812 117.988281 C 139.292969 118.695312 137.679688 119.027344 136.210938 119.71875 C 133.496094 121.199219 129.59375 125.675781 126.941406 126.011719 C 107.171875 129.058594 109.515625 128.082031 108.308594 129.410156 C 104.476562 134.113281 99.65625 141.609375 99.121094 143.457031 C 103.082031 143.394531 105.6875 136.527344 109.523438 134.558594 C 114.335938 131.871094 116.488281 133.328125 125.792969 128.75 C 125.820312 128.976562 125.875 129.429688 125.898438 129.65625 C 124.453125 130.988281 122.402344 131.472656 121.0625 132.945312 C 117.945312 136.363281 116.460938 139.238281 113.660156 140.347656 C 96.324219 146.632812 97.636719 145.707031 96.777344 147.636719 C 94.546875 152.578125 92.355469 157.601562 91.109375 162.890625 C 94.117188 163 95.742188 155.894531 99.125 152.429688 C 102.648438 149.386719 107.351562 148.332031 111.113281 145.65625 C 112.246094 144.871094 113.3125 144 114.453125 143.21875 C 114.480469 143.683594 114.703125 144.230469 114.277344 144.59375 C 113.179688 145.855469 111.613281 146.65625 110.671875 148.070312 C 108.796875 150.898438 107.789062 154.367188 105.230469 156.710938 C 100.464844 159.785156 91.148438 165.320312 90.019531 166.6875 C 88.875 171.367188 88.238281 176.148438 87.644531 180.921875 C 89.96875 180.632812 90.285156 173.90625 93.277344 169.902344 C 96.160156 166.660156 100.28125 164.9375 103.449219 162.027344 C 104.253906 161.289062 104.304688 159.984375 105.328125 159.4375 C 105.449219 161.0625 104.140625 162.269531 103.839844 163.796875 C 101.703125 173.886719 99.546875 173.132812 90.425781 181.921875 C 89.488281 182.855469 88.335938 183.589844 87.570312 184.683594 C 87.316406 187.761719 87.4375 197.210938 88.246094 200.820312 L 88.824219 200.820312 C 89.507812 199.648438 90.105469 198.347656 90.074219 196.964844 C 90.125 187.207031 91.988281 188.289062 99.121094 180.355469 C 100.195312 179.417969 100.53125 178 100.851562 176.683594 C 101.003906 176.632812 101.304688 176.535156 101.457031 176.488281 C 101.648438 178.070312 100.671875 179.445312 100.675781 181 C 100.160156 191.222656 98.929688 187.289062 88.707031 203.714844 C 89.324219 208.980469 90.789062 214.144531 92.421875 219.191406 C 92.527344 219.835938 93.582031 219.476562 93.554688 218.921875 C 94.121094 216.210938 93.472656 213.46875 93.222656 210.765625 C 93.132812 209.820312 92.664062 208.859375 93.039062 207.917969 C 94.273438 203.449219 97.6875 200.070312 99.554688 195.90625 C 100.027344 195 99.402344 193.550781 100.375 192.988281 C 101.792969 211.042969 101.992188 199.851562 94.25 221.203125 C 94.085938 221.789062 93.734375 222.40625 93.90625 223.027344 C 95.703125 228.042969 98.246094 232.746094 100.828125 237.390625 C 100.96875 237.433594 101.25 237.519531 101.386719 237.566406 C 101.53125 236.003906 101.695312 234.335938 101.023438 232.871094 C 97.105469 223.792969 99.515625 223.960938 102.847656 213.035156 C 103.199219 211.707031 102.675781 210.339844 102.996094 209.003906 C 103.496094 209.75 103.902344 210.589844 103.914062 211.507812 C 104.125 214.613281 107.820312 221.421875 106.0625 225.539062 C 104.363281 230.15625 103.539062 235.019531 102.433594 239.792969 C 106.28125 245.980469 112.253906 253.1875 113.828125 254.25 C 114.222656 250.296875 109.121094 245.742188 108.980469 241.542969 C 109.078125 237.609375 110.160156 233.769531 110.394531 229.847656 C 110.558594 228.597656 109.902344 227.480469 109.765625 226.269531 C 111.40625 227.03125 111.214844 229.242188 112.097656 230.609375 C 117.824219 239.140625 116.363281 245.984375 115.527344 254.882812 C 115.535156 255.375 115.238281 256.011719 115.714844 256.382812 C 117.160156 257.824219 126.761719 266.980469 128.683594 266.929688 C 128.730469 263.5625 123.960938 259.507812 121.902344 256.613281 C 119.847656 252.753906 120.820312 248.25 120.207031 244.105469 C 120.121094 242.757812 118.976562 241.777344 118.921875 240.425781 C 120.484375 241.554688 120.9375 243.566406 122.316406 244.863281 C 124.933594 247.457031 126.75 250.730469 128.207031 254.082031 C 129.121094 257.003906 129.230469 260.089844 129.707031 263.09375 C 130.121094 269.636719 130.472656 268.476562 132.328125 269.90625 C 136.222656 272.332031 140.191406 274.695312 144.40625 276.527344 C 144.289062 276.066406 144.378906 275.511719 144.042969 275.144531 C 142.058594 272.804688 139.121094 271.609375 136.878906 269.574219 C 134.179688 265.875 132.832031 257.300781 131.714844 254.617188 C 131.207031 253.707031 130.421875 253 129.917969 252.09375 C 131.222656 252.203125 131.882812 253.4375 132.699219 254.292969 C 133.65625 255.441406 138.53125 258.339844 141.261719 263.375 C 143.769531 268.972656 145.636719 277.292969 147.792969 278.140625 C 152.910156 280.3125 158.199219 282.101562 163.597656 283.433594 C 163.648438 283.214844 163.753906 282.785156 163.8125 282.574219 C 162.449219 280.40625 158.183594 279.089844 154.273438 276.882812 C 149.980469 274.476562 150.261719 270.273438 147.148438 265.699219 C 146.277344 264.28125 144.324219 263.824219 143.789062 262.152344 C 145.71875 262.421875 147.105469 263.914062 148.761719 264.800781 C 150.617188 265.941406 152.730469 266.613281 154.503906 267.882812 C 160.105469 272.445312 162.402344 279.867188 168.070312 284.355469 C 170.363281 284.9375 179.554688 286.359375 181.203125 286.066406 C 181.167969 283.332031 175.238281 283.398438 170.917969 280.816406 C 167.179688 278.332031 166.433594 273.054688 162.34375 270.972656 C 161.71875 270.621094 161.167969 270.152344 160.796875 269.542969 C 162.578125 269.6875 164.179688 270.601562 165.890625 271.074219 C 168.316406 271.984375 171.054688 272.09375 173.253906 273.5625 C 178.117188 276.820312 180.351562 282.675781 185.03125 286.140625 C 185.816406 286.515625 186.753906 286.304688 187.605469 286.378906 C 188.625 286.289062 189.816406 286.601562 190.6875 285.90625 C 192.242188 284.898438 193.179688 283.25 194.46875 281.96875 C 203.324219 270.542969 202.941406 273.4375 209.40625 271.09375 C 211.101562 270.53125 212.75 269.726562 214.546875 269.542969 C 213.871094 270.867188 212.230469 271.160156 211.234375 272.171875 C 208.722656 274.699219 207.652344 278.378906 204.769531 280.585938 C 201.976562 282.53125 198.4375 282.792969 195.4375 284.296875 C 194.746094 284.566406 194.386719 285.226562 193.992188 285.808594 C 194.800781 286.457031 195.820312 285.972656 196.742188 285.96875 C 208.464844 284.554688 207.113281 284.578125 208.691406 283.097656 C 212.980469 278.882812 215.394531 273.175781 219.640625 268.921875 C 221.542969 266.984375 224.222656 266.242188 226.488281 264.851562 C 228.121094 263.914062 229.578125 262.632812 231.402344 262.054688 C 231.394531 262.28125 231.371094 262.734375 231.359375 262.960938 C 229.980469 264.050781 228.453125 265.089844 227.609375 266.683594 C 226.101562 269.082031 225.464844 271.917969 223.90625 274.285156 C 221.292969 278.480469 212.226562 279.613281 211.398438 283.148438 C 214.453125 283.417969 225.210938 279.175781 228.203125 277.855469 C 232.679688 271.5625 231.078125 262.382812 241.691406 255.261719 C 243.085938 254.367188 243.597656 252.296875 245.398438 252.074219 C 244.90625 253.238281 243.710938 253.980469 243.402344 255.234375 C 241.03125 264.132812 240.359375 266.796875 238.589844 269.476562 C 236.417969 271.464844 233.578125 272.640625 231.578125 274.84375 C 231.191406 275.269531 231.089844 275.855469 230.941406 276.394531 C 235.222656 274.898438 244.113281 269.488281 244.976562 268.347656 C 245.484375 266.667969 245.792969 260.308594 246.683594 255.890625 C 247.28125 253.007812 248.882812 250.476562 250.449219 248.023438 C 251.585938 246.144531 253.476562 244.839844 254.507812 242.886719 C 254.964844 241.988281 255.527344 241.132812 256.296875 240.46875 C 256.355469 240.644531 256.476562 240.984375 256.535156 241.160156 C 253.761719 244.75 255.980469 246.484375 254.363281 254.167969 C 254.117188 255.566406 253.496094 256.894531 252.507812 257.921875 C 246.640625 264.332031 246.914062 264.921875 246.773438 266.980469 C 249.152344 266.238281 256.902344 259.226562 260.007812 256.042969 C 259.53125 253.921875 259.683594 251.742188 259.320312 249.609375 C 258.875 243.246094 258.304688 241.296875 261.410156 233.882812 C 262.117188 232.066406 263.558594 230.621094 264.0625 228.71875 C 264.457031 227.828125 264.46875 226.4375 265.664062 226.25 C 263.464844 231.265625 267.679688 239.277344 265.945312 243.832031 C 264.53125 247.261719 261.710938 250.207031 261.464844 254.042969 C 263.351562 253.410156 270.289062 243.996094 272.761719 240.085938 C 272.863281 237.796875 270.59375 229.917969 270.390625 228.921875 C 269.367188 224.125 268 225.769531 269.464844 218.542969 C 270.128906 215.257812 270.84375 216.253906 271.769531 209.589844 C 271.949219 209.527344 272.304688 209.402344 272.480469 209.34375 C 272.484375 210.511719 272.15625 211.691406 272.433594 212.847656 C 273.632812 216.699219 275.457031 220.363281 276.238281 224.339844 C 276.808594 227.796875 275 230.964844 273.882812 234.109375 C 273.8125 235.28125 273.539062 236.652344 274.28125 237.664062 C 277.085938 233.132812 279.421875 228.316406 281.386719 223.363281 C 281.824219 222.589844 281.285156 221.769531 281.074219 221.019531 C 279.359375 216.574219 277.742188 212.070312 275.511719 207.855469 C 272.738281 203.523438 275.242188 199.582031 274.859375 193.257812 C 275.039062 193.234375 275.398438 193.175781 275.574219 193.148438 C 275.597656 193.933594 275.5625 194.726562 275.679688 195.503906 C 277.480469 200.125 281.550781 203.6875 282.429688 208.6875 C 282.152344 211.203125 280.402344 220.503906 282.859375 219.453125 C 283.472656 217.59375 287.507812 204.683594 286.3125 203.136719 C 276.449219 187.78125 276.0625 190.761719 275.046875 185.054688 C 274.675781 183.445312 274.972656 181.765625 274.574219 180.160156 C 274.34375 178.886719 273.621094 177.519531 274.296875 176.269531 C 274.796875 177.566406 274.960938 179.066406 275.96875 180.109375 C 277.988281 182.332031 280.265625 184.3125 282.28125 186.539062 C 287.542969 192.988281 283.742188 196.195312 286.367188 200.480469 C 286.523438 200.871094 286.792969 200.972656 287.179688 200.785156 C 287.699219 198.324219 288.214844 189.269531 287.804688 184.652344 C 276.550781 173.109375 274.109375 175.40625 271.589844 164.035156 C 271.214844 162.4375 270.066406 161.097656 270.015625 159.410156 C 271.097656 160.101562 271.195312 161.539062 272.207031 162.300781 C 275.472656 165.1875 279.746094 166.910156 282.449219 170.4375 C 285.132812 174.554688 285.335938 180.304688 287.539062 180.582031 C 287.550781 176.214844 285.414062 166.925781 285.378906 166.585938 C 280.410156 162.917969 274.992188 159.921875 269.863281 156.5 C 267.441406 154.019531 266.445312 150.550781 264.449219 147.765625 C 263.242188 146.410156 261.683594 145.386719 260.59375 143.917969 C 260.792969 143.71875 260.992188 143.519531 261.195312 143.316406 C 269.296875 150.023438 275.019531 149.238281 278.125 154.945312 C 279.320312 156.628906 281.972656 163.351562 284.269531 162.863281 C 282.796875 157.152344 280.585938 151.613281 277.867188 146.382812 C 273.117188 144.1875 268.054688 142.714844 263.152344 140.878906 C 261.945312 140.394531 260.554688 140.140625 259.640625 139.144531 C 257.640625 137.109375 255.988281 134.773438 254.03125 132.703125 C 252.828125 131.449219 251.070312 130.992188 249.722656 129.9375 C 249.316406 129.6875 249.414062 129.140625 249.3125 128.75 C 251.390625 129.347656 253.136719 130.769531 255.261719 131.242188 C 258.742188 132.375 262.507812 132.710938 265.761719 134.492188 C 270.160156 136.894531 272 143.222656 276.234375 143.425781 C 273.871094 138.414062 270.527344 133.914062 267.191406 129.511719 C 266.304688 127.933594 259.683594 127.855469 248.28125 125.992188 C 246.128906 125.632812 242.46875 122.128906 240.199219 120.351562 C 238.738281 119.203125 236.828125 119.03125 235.191406 118.246094 C 234.699219 118.070312 234.53125 117.535156 234.339844 117.109375 C 236.476562 117.222656 238.449219 118.265625 240.597656 118.308594 C 243.632812 118.714844 246.714844 118.703125 249.753906 119.0625 C 256.136719 119.929688 257.832031 126.382812 263.964844 126.375 C 263.972656 125.503906 263.316406 124.914062 262.796875 124.308594 C 259.15625 120.578125 255.53125 116.769531 251.328125 113.667969 C 244.316406 113.558594 232.242188 114.882812 230.480469 114.179688 C 227.972656 113.285156 225.707031 111.863281 223.351562 110.648438 C 221.390625 109.375 218.933594 109.820312 216.785156 109.070312 C 216.765625 108.855469 216.71875 108.417969 216.695312 108.199219 C 228.425781 108.660156 229.402344 106.65625 234.199219 107.351562 C 240.125 108.730469 242.828125 113.398438 248.183594 111.4375 C 246.183594 109.238281 238.695312 104.859375 236.082031 103.4375 C 234.386719 103.144531 227.726562 105.152344 222.332031 102.816406 C 218.132812 100.84375 215.589844 96.609375 211.480469 94.519531 C 209.238281 93.304688 206.609375 94.082031 204.242188 93.367188 C 205.425781 91.582031 207.886719 91.992188 209.710938 91.460938 C 232.46875 89.78125 234.386719 101.0625 238.097656 103.027344 C 240.847656 104.613281 243.582031 106.234375 246.175781 108.066406 C 246.6875 108.441406 247.246094 108.746094 247.847656 108.964844 C 247.164062 104.179688 239.953125 103.183594 236.328125 94.234375 C 235.0625 91.003906 233.023438 90.886719 232.898438 89.121094 C 234.25 89.023438 235.121094 90.148438 236.140625 90.828125 C 237.871094 92.234375 240.148438 92.625 241.96875 93.882812 C 247.484375 97.230469 248.710938 106.46875 250.191406 110.78125 C 251.335938 112.222656 253.101562 113.007812 254.367188 114.339844 C 256.679688 116.261719 258.800781 118.394531 260.984375 120.460938 C 261.929688 121.445312 262.777344 122.550781 263.90625 123.34375 C 264.066406 117.582031 256 114.035156 255.066406 107.4375 C 254.773438 105.058594 254.378906 102.355469 252.328125 100.800781 C 251.179688 99.613281 249.269531 99.011719 248.789062 97.308594 C 250.414062 96.917969 251.398438 98.34375 252.410156 99.324219 C 254.792969 101.804688 257.878906 103.472656 260.289062 105.925781 C 266.449219 112.511719 265.050781 121.265625 265.785156 125.585938 C 268.734375 129.261719 271.667969 132.964844 274.160156 136.976562 C 274.707031 137.773438 275.066406 138.789062 276.003906 139.230469 C 276.269531 134.457031 270.96875 130.828125 270.96875 123.414062 C 270.976562 121.109375 270.976562 118.757812 270.191406 116.5625 C 269.28125 114.101562 266.066406 112.121094 265.886719 110.46875 C 266.285156 110.445312 266.6875 110.425781 267.09375 110.414062 C 268.085938 111.449219 268.976562 112.582031 269.789062 113.765625 C 272.453125 117.144531 276.378906 119.785156 277.597656 124.109375 C 278.730469 129.25 277.199219 134.476562 277.398438 139.660156 C 277.039062 143.554688 279.53125 144.574219 284.351562 158.085938 C 284.535156 158.132812 284.898438 158.21875 285.082031 158.265625 C 285.371094 152.988281 281.515625 148.855469 283.355469 141.839844 C 283.699219 139.734375 284.246094 137.605469 283.941406 135.460938 C 283.230469 132.554688 281.019531 130.335938 280.085938 127.519531 C 280.503906 127.519531 281.121094 127.175781 281.4375 127.621094 C 283.363281 129.949219 284.503906 132.78125 286.097656 135.320312 C 287.746094 138.3125 289.546875 141.453125 289.582031 144.964844 C 289.367188 150.597656 287.300781 155.902344 286.015625 161.335938 C 285.382812 163.945312 287.511719 166.578125 288.476562 176.449219 C 288.6875 176.5 289.105469 176.601562 289.316406 176.65625 C 289.660156 173.027344 288.421875 169.386719 289.21875 165.769531 C 289.875 162.398438 292.179688 159.632812 292.882812 156.273438 C 293.351562 153.082031 291.269531 150.289062 291.003906 147.179688 C 291.25 147.183594 291.746094 147.1875 291.988281 147.191406 C 292.871094 148.441406 297.125 159.667969 296.011719 166.03125 C 294.160156 172.265625 289.757812 178.179688 289.058594 181.027344 C 289.6875 186.976562 289.371094 192.976562 288.867188 198.921875 C 291.683594 198.65625 289.726562 189.660156 294.253906 183.585938 C 300.390625 175.003906 297.195312 174.71875 297.808594 168.347656 C 298.039062 168.367188 298.5 168.410156 298.726562 168.433594 C 299.601562 171.09375 299.511719 173.9375 299.722656 176.699219 C 300.183594 179.066406 300.054688 181.492188 300.066406 183.890625 C 300.242188 188.214844 296.007812 193 292.808594 197.03125 C 289.054688 201.875 288.375 200.816406 287.953125 205.085938 C 287.335938 209.082031 286.152344 212.964844 285.269531 216.902344 C 287.101562 216.554688 287.496094 210.699219 290.132812 207.058594 C 291.878906 203.992188 296.605469 202.417969 297.828125 198.097656 C 298.320312 196.300781 298.460938 194.421875 299.066406 192.652344 C 299.34375 192.128906 300.191406 192.59375 300.054688 193.136719 C 299.738281 196.292969 298.75 199.351562 298.496094 202.519531 C 296.675781 209.824219 297.09375 209.148438 292.671875 213.113281 C 290.25 215.335938 287.585938 217.269531 284.976562 219.261719 C 283.890625 220 283.636719 221.375 283.183594 222.519531 C 281.882812 226.335938 279.894531 229.871094 278.355469 233.578125 C 281.472656 233.390625 281.917969 224.035156 288.742188 222.058594 C 296.660156 219.488281 294.554688 215.179688 297.039062 213.886719 C 297.226562 214.6875 297.128906 215.511719 296.808594 216.265625 C 290.300781 232.3125 288.636719 229.445312 277.046875 235.757812 C 276.582031 236.347656 272.558594 243.886719 266.449219 250.949219 C 266.351562 251.1875 266.164062 251.65625 266.074219 251.890625 C 270.742188 250.46875 271.207031 244.652344 276.992188 242.132812 C 279.230469 241.261719 281.722656 240.992188 283.753906 239.636719 C 287.421875 237.167969 285.917969 237.742188 289.269531 233.109375 C 289.5 233.113281 289.957031 233.128906 290.1875 233.136719 C 290.351562 235.378906 288.617188 237.066406 287.636719 238.921875 C 280.890625 249.503906 282.035156 247.519531 265.691406 253.695312 C 264.695312 254.089844 263.566406 254.296875 262.800781 255.109375 C 253.710938 264.714844 251.425781 264.558594 251.089844 266.433594 C 256.402344 265.34375 258.796875 259.371094 264.046875 258.183594 C 266.78125 257.503906 269.765625 258.59375 272.390625 257.320312 C 273.824219 256.445312 274.914062 255.125 276.253906 254.125 C 276.9375 253.691406 277.265625 254.820312 276.875 255.257812 C 275.628906 257.28125 268.519531 264.171875 264.738281 265.828125 C 260.820312 267.679688 249.117188 267.273438 247.695312 268.3125 C 243.882812 271.0625 239.886719 273.578125 235.6875 275.699219 C 235.027344 276.039062 234.316406 276.347656 233.925781 277.019531 C 234.964844 277.054688 236.039062 277.144531 237.050781 276.84375 C 240.414062 275.984375 242.542969 272.605469 246.054688 272.117188 C 248.921875 271.921875 251.832031 272.457031 254.667969 271.847656 C 259.230469 270.972656 256.921875 271.867188 262.261719 268.5 C 262.433594 268.609375 262.777344 268.828125 262.949219 268.941406 C 262.339844 270.800781 260.476562 271.773438 258.980469 272.847656 C 255.074219 275.550781 251.003906 278.769531 246.035156 278.945312 C 230.875 278.097656 231.199219 277.804688 229.742188 278.632812 C 226.261719 280.222656 222.671875 281.570312 219.035156 282.742188 C 217.929688 283.105469 216.789062 283.382812 215.753906 283.910156 C 218.832031 286.078125 223.574219 282.800781 226.539062 281.832031 C 228.359375 281.269531 230.132812 282.21875 231.875 282.632812 C 234.351562 283.339844 236.960938 283.125 239.503906 283.074219 C 241.847656 283.152344 243.679688 281.457031 245.871094 280.921875 C 245.996094 281.0625 246.238281 281.34375 246.359375 281.492188 C 244.96875 283.0625 242.9375 283.839844 241.03125 284.59375 C 236.492188 286.351562 231.875 288.402344 226.90625 288.339844 C 217.382812 287.164062 214.84375 285.167969 212.765625 284.578125 C 199.628906 287.972656 197.921875 286.289062 196.480469 287.855469 C 197.910156 288.304688 199.410156 288.949219 200.933594 288.523438 C 203.257812 288.195312 205.671875 287.222656 207.988281 288.058594 C 209.25 288.46875 210.273438 289.355469 211.484375 289.875 C 214.066406 291.125 219.007812 291.988281 224.980469 290.800781 C 225.085938 290.964844 225.304688 291.296875 225.410156 291.464844 C 223.785156 292.832031 221.53125 292.828125 219.539062 293.160156 C 205.867188 295.636719 205.558594 294.371094 200.871094 292.226562 C 198.304688 290.980469 195.84375 289.515625 193.601562 287.75 C 192.667969 287.605469 191.71875 287.707031 190.785156 287.753906 C 191.554688 288.832031 192.882812 289.285156 193.890625 290.109375 C 204.511719 298.109375 204.257812 303.21875 213.957031 303.28125 C 209.46875 304.832031 204.652344 305.617188 199.902344 305.355469 C 197.273438 293.015625 189.910156 287.746094 187.296875 288.066406 C 180.882812 289.992188 176.980469 298.632812 175.40625 305.417969 C 170.636719 305.527344 165.804688 304.878906 161.3125 303.25 C 171.414062 303.089844 171.300781 297.566406 182.011719 289.71875 C 182.804688 289.082031 183.933594 288.753906 184.34375 287.746094 C 183.296875 287.792969 182.0625 287.328125 181.210938 288.140625 C 178.605469 290.144531 175.695312 291.726562 172.707031 293.082031 C 168.183594 295.539062 162.835938 294.359375 158.027344 293.582031 C 155.5 292.832031 152.699219 293.144531 150.339844 291.84375 C 150.234375 291.5 150.152344 291.152344 150.097656 290.804688 C 152.105469 290.964844 154.074219 291.640625 156.101562 291.453125 C 158.25 291.160156 160.460938 291.183594 162.53125 290.445312 C 164.871094 289.785156 166.691406 287.765625 169.214844 287.675781 C 171.25 287.777344 173.214844 288.410156 175.226562 288.652344 C 176.40625 288.804688 177.515625 288.316406 178.617188 287.984375 C 178.632812 287.832031 178.667969 287.523438 178.6875 287.371094 C 173.25 286.761719 167.820312 285.925781 162.507812 284.554688 C 158.28125 286.597656 153.648438 287.636719 149.019531 288.300781 C 143.625 288.5625 138.621094 286.199219 133.675781 284.378906 C 132.207031 283.710938 130.621094 283.121094 129.488281 281.921875 C 129.050781 281.558594 129.207031 280.636719 129.914062 281.066406 C 133.484375 282.324219 133.050781 283.601562 141.902344 283.007812 C 144.320312 282.769531 146.640625 281.097656 149.101562 281.941406 C 152.964844 283.054688 154.050781 285.292969 158.949219 284.375 C 159.058594 284.191406 159.277344 283.832031 159.386719 283.652344 C 154.640625 282.355469 149.996094 280.652344 145.527344 278.582031 C 144.234375 277.84375 142.722656 278.167969 141.3125 278.222656 C 138.101562 278.617188 134.84375 278.390625 131.636719 278.824219 C 129.609375 279.078125 127.53125 278.902344 125.582031 278.289062 C 121.636719 276.917969 114.019531 271.417969 112.773438 269.953125 C 112.558594 269.515625 112.507812 268.488281 113.226562 268.570312 C 115.453125 269.9375 117.097656 272.761719 127.78125 272.074219 C 133.25 271.570312 135.546875 278.0625 141.433594 276.976562 C 141.09375 276.585938 140.695312 276.265625 140.234375 276.046875 C 135.855469 273.71875 131.585938 271.167969 127.558594 268.277344 C 124.894531 267.460938 122.015625 267.707031 119.273438 267.238281 C 112.273438 266.800781 109.980469 266.609375 104.207031 261.183594 C 102.144531 259.183594 99.765625 257.441406 98.269531 254.941406 C 98.359375 254.679688 98.539062 254.160156 98.632812 253.898438 C 100.351562 254.773438 101.421875 256.507812 103.121094 257.417969 C 106.058594 258.652344 109.375 257.296875 112.332031 258.484375 C 116.984375 260.117188 119.308594 265.640625 124.40625 266.324219 C 124.140625 265.828125 123.804688 265.378906 123.355469 265.042969 C 119.5625 262.019531 115.988281 258.730469 112.6875 255.183594 C 111.324219 253.523438 97.308594 250.308594 93.6875 246.917969 C 90.488281 243.863281 88.3125 239.957031 86.078125 236.1875 C 85.496094 235.121094 84.558594 233.75 85.6875 232.710938 C 88.265625 235.410156 87.761719 237.519531 92.179688 239.992188 C 94.523438 241.308594 97.34375 241.40625 99.65625 242.796875 C 103.769531 245.066406 105.507812 251.316406 109.625 251.960938 C 108.78125 250.585938 107.609375 249.457031 106.617188 248.191406 C 92.785156 229.878906 104.964844 239.917969 87.542969 230.417969 C 84.28125 228.589844 82.160156 224.121094 79.886719 219.40625 C 79.148438 217.632812 77.921875 215.882812 78.410156 213.859375 C 80.164062 215.300781 80.128906 217.988281 81.902344 219.453125 C 83.90625 221.710938 87.214844 221.71875 89.515625 223.539062 C 93.433594 226.472656 94.074219 232.746094 97.078125 233.878906 C 96.972656 233.363281 96.835938 232.851562 96.574219 232.394531 C 91.136719 221.570312 91.914062 220.246094 90.679688 219.503906 C 78.257812 210.21875 78.234375 209.25 77.019531 203.21875 C 76.144531 196.644531 75.0625 194.539062 75.453125 192.460938 C 75.667969 192.457031 76.101562 192.449219 76.316406 192.441406 C 77.078125 195.164062 76.996094 198.25 78.832031 200.558594 C 80.683594 203.195312 83.800781 204.609375 85.5 207.367188 C 88.382812 212.011719 88.09375 216.394531 90.085938 216.625 C 88.953125 212.242188 87.6875 207.867188 87.160156 203.351562 C 86.960938 200.894531 81.609375 197.195312 76.558594 188.757812 C 74.644531 185.101562 75.261719 180.835938 75.613281 176.894531 C 76.117188 174.089844 75.480469 171.054688 76.730469 168.40625 C 76.96875 168.398438 77.4375 168.394531 77.671875 168.390625 C 77.859375 170.964844 77.144531 173.503906 77.34375 176.074219 C 78.535156 182.273438 83.097656 183.378906 84.125 191.636719 C 84.597656 194.476562 84.699219 198.570312 86.480469 198.582031 C 86.214844 193.804688 85.617188 189.003906 86.09375 184.207031 C 86.066406 182.652344 86.675781 180.933594 85.796875 179.515625 C 79.535156 167.636719 77.378906 165.589844 80.519531 155.316406 C 81.285156 152.824219 81.777344 150.21875 82.992188 147.886719 C 83.25 147.363281 83.800781 147.105469 84.261719 146.789062 C 84.460938 149.703125 82.394531 152.285156 82.386719 155.1875 C 82.6875 159.070312 85.484375 162.144531 86.1875 165.910156 C 86.828125 173.238281 85.117188 174.738281 86.375 176.78125 C 87.417969 175.5 86.402344 175.300781 89.253906 164 C 89.8125 161.3125 88.605469 158.742188 87.929688 156.199219 C 84.757812 143.179688 84.664062 143.527344 90.761719 132.71875 C 91.824219 130.96875 92.609375 129.015625 94.035156 127.507812 C 94.414062 127.410156 94.800781 127.351562 95.195312 127.332031 C 94.570312 130.546875 91.613281 132.84375 91.347656 136.175781 C 91.175781 139.859375 92.878906 143.402344 92.378906 147.097656 C 92.242188 150.945312 89.960938 154.445312 90.394531 158.351562 C 90.5625 158.328125 90.898438 158.277344 91.066406 158.253906 C 92.527344 153.269531 94.824219 148.574219 97.09375 143.921875 C 98.785156 140.519531 97.375 132.769531 97.445312 129.753906 C 97.566406 124.15625 96.390625 123.171875 104.035156 115.585938 C 105.578125 114.042969 106.566406 112.023438 108.21875 110.578125 C 108.582031 110.460938 108.957031 110.371094 109.34375 110.324219 C 109.25 110.867188 109.3125 111.515625 108.839844 111.90625 C 104.066406 116.988281 104.882812 116.289062 104.320312 123.761719 C 104.550781 130 99.261719 134.667969 99.332031 139.097656 C 100.808594 138.773438 99.46875 138.273438 109.484375 125.738281 C 110.242188 122.714844 109.234375 115.449219 112.679688 108.988281 C 114.375 106.0625 117.175781 104.027344 119.820312 102.019531 C 121.613281 100.78125 122.992188 99.054688 124.6875 97.703125 C 125.113281 97.300781 125.71875 97.28125 126.261719 97.148438 C 126.261719 97.410156 126.265625 97.929688 126.265625 98.191406 C 124.859375 99.515625 123.105469 100.46875 121.898438 102 C 120.003906 104.621094 120.785156 108.160156 119.125 110.871094 C 116.597656 115.390625 111.65625 118.457031 111.460938 123.207031 C 112.605469 122.554688 113.382812 121.453125 114.304688 120.542969 C 116.148438 118.726562 117.960938 116.875 119.96875 115.230469 C 121.523438 113.695312 123.4375 112.574219 124.953125 111.003906 C 126.683594 108.027344 126.972656 97.15625 134.417969 93.289062 C 136.023438 92.378906 137.878906 91.929688 139.332031 90.757812 Z M 139.332031 90.753906 " fill-opacity="1" fill-rule="nonzero"/></g><path fill="#bd9d60" d="M 185.621094 116.4375 C 186.960938 116.332031 188.300781 116.367188 189.640625 116.453125 C 190.023438 120.09375 189.625 123.777344 189.855469 127.429688 C 192.253906 125.039062 193.75 121.84375 196.183594 119.484375 C 195.949219 145.730469 196.546875 145.816406 195.84375 146.863281 C 193.875 149.589844 191.722656 152.1875 189.867188 154.988281 C 189.726562 156.734375 189.703125 158.535156 189.925781 160.28125 C 197.242188 153.636719 203.433594 155.707031 216.460938 154.171875 C 221.761719 153.332031 227.386719 152.179688 231.542969 148.539062 C 232.925781 147.339844 233.542969 145.585938 233.957031 143.859375 C 235.554688 142.011719 238.703125 141.679688 240.546875 143.347656 C 241.855469 144.964844 241.769531 147.421875 240.566406 149.074219 C 239.675781 150.125 238.320312 150.566406 237.179688 151.273438 C 237.46875 152.027344 262.707031 208.71875 264.386719 210.113281 C 248.375 226.5 222.4375 225.324219 208.066406 210.0625 C 209.765625 209.398438 207.378906 213.699219 233.871094 155.40625 C 234.375 154.316406 234.902344 153.234375 235.25 152.085938 C 220.945312 155.539062 195.675781 157.203125 189.972656 170.359375 C 189.71875 170.964844 189.675781 250.753906 189.902344 252.824219 C 191.734375 251.839844 193.570312 250.863281 195.449219 249.976562 C 193.277344 255.390625 190.597656 260.59375 188.300781 265.960938 C 188.058594 266.273438 188.042969 267.171875 187.476562 266.804688 C 184.929688 261.179688 182.332031 255.578125 179.808594 249.9375 C 181.804688 250.75 183.585938 252.019531 185.59375 252.8125 C 185.644531 240.324219 185.652344 175.855469 185.589844 170.796875 C 180.296875 157.117188 152.78125 155.226562 140.140625 152.082031 C 140.402344 153.101562 138.863281 149.613281 165.640625 208.574219 C 165.878906 209.335938 166.46875 209.816406 167.167969 210.152344 C 152.546875 225.832031 125.824219 225.925781 111.09375 210.113281 C 112.476562 208.890625 137.339844 153.371094 138.148438 151.273438 C 137.046875 150.621094 135.816406 150.101562 134.886719 149.203125 C 131.710938 144.929688 136.101562 139.734375 141.246094 143.550781 C 142.117188 145.425781 141.519531 149.050781 150.601562 152.285156 C 164.316406 156.996094 175.542969 152.226562 183.835938 159.023438 C 184.40625 159.472656 184.972656 159.925781 185.589844 160.308594 C 185.632812 158.617188 185.664062 156.917969 185.613281 155.222656 C 183.726562 152.199219 181.328125 149.507812 179.351562 146.542969 C 179.207031 145.597656 179.285156 119.59375 179.289062 119.457031 C 182.394531 123.085938 184.222656 126.464844 185.582031 127.449219 C 185.703125 123.78125 185.59375 120.109375 185.621094 116.4375 M 186.761719 118.714844 C 186.917969 120.472656 186.410156 122.34375 187.097656 124.011719 C 188.75 123.28125 188.554688 125.511719 188.523438 118.589844 C 187.9375 118.632812 187.347656 118.667969 186.761719 118.714844 M 190.308594 129.992188 C 189.449219 130.945312 189.75 132.324219 189.636719 133.492188 C 189.816406 133.441406 190.167969 133.34375 190.351562 133.292969 C 191.605469 131.796875 192.671875 130.136719 193.902344 128.605469 C 194.871094 127.5 194.457031 125.933594 194.429688 124.601562 C 192.929688 126.296875 191.714844 128.222656 190.308594 129.992188 M 180.757812 124.863281 C 180.757812 125.789062 180.714844 126.714844 180.773438 127.640625 C 181.667969 129.1875 182.890625 130.511719 183.917969 131.96875 C 184.402344 132.609375 184.746094 133.503906 185.671875 133.578125 C 185.628906 132.566406 185.804688 131.519531 185.515625 130.542969 C 184.671875 129.253906 183.632812 128.113281 182.785156 126.832031 C 182.222656 126.070312 181.789062 125.050781 180.757812 124.863281 M 192.667969 133.089844 C 191.710938 134.488281 190.546875 135.746094 189.664062 137.199219 C 189.5625 138.023438 189.597656 138.855469 189.597656 139.6875 C 189.78125 139.605469 190.144531 139.445312 190.328125 139.371094 C 195.636719 132.109375 194.425781 134.636719 194.515625 131.046875 C 193.632812 131.445312 193.222656 132.351562 192.667969 133.089844 M 180.746094 131.128906 C 180.765625 131.941406 180.648438 132.785156 180.84375 133.585938 C 181.566406 134.851562 182.574219 135.925781 183.402344 137.117188 C 184.058594 138.027344 184.613281 139.074219 185.625 139.644531 C 185.65625 138.824219 185.703125 137.996094 185.601562 137.179688 C 184.441406 135.140625 182.875 133.378906 181.46875 131.511719 C 181.289062 131.414062 180.925781 131.222656 180.746094 131.128906 M 180.777344 137.003906 C 180.734375 137.882812 180.699219 138.773438 180.785156 139.652344 C 181.585938 140.871094 182.574219 141.960938 183.359375 143.191406 C 183.96875 144.003906 184.488281 145.082031 185.601562 145.246094 C 185.585938 144.460938 185.734375 143.65625 185.566406 142.882812 C 181.890625 137.660156 181.597656 137.382812 180.777344 137.003906 M 192.050781 139.894531 C 191.339844 140.9375 190.511719 141.898438 189.8125 142.949219 C 189.742188 143.785156 189.78125 144.628906 189.800781 145.46875 C 190.199219 145.257812 190.621094 145.054688 190.851562 144.644531 C 192.027344 142.945312 193.394531 141.386719 194.535156 139.667969 C 194.617188 138.738281 194.554688 137.800781 194.476562 136.871094 C 193.410156 137.652344 192.816406 138.851562 192.050781 139.894531 M 192.078125 145.917969 C 191.277344 147.027344 190.332031 148.039062 189.675781 149.242188 C 189.539062 149.992188 189.753906 150.75 189.824219 151.496094 C 191.523438 150.355469 192.355469 148.3125 193.730469 146.824219 C 194.796875 145.839844 194.542969 144.351562 194.484375 143.058594 C 193.417969 143.761719 192.851562 144.945312 192.078125 145.917969 M 180.730469 143.261719 C 180.75 144.046875 180.671875 144.839844 180.8125 145.621094 C 181.53125 146.800781 182.453125 147.835938 183.210938 148.988281 C 183.945312 149.933594 184.523438 151.082031 185.628906 151.660156 C 185.445312 147.984375 186.804688 150.78125 182.078125 144.164062 C 181.773438 143.671875 181.285156 143.378906 180.730469 143.261719 M 114.503906 206.351562 C 114.015625 207.492188 113.347656 208.574219 113.15625 209.820312 C 130.382812 209.882812 147.609375 209.859375 164.835938 209.832031 C 163.980469 207.378906 139.664062 153.855469 138.835938 152.9375 C 130.65625 170.707031 122.617188 188.546875 114.503906 206.351562 M 236.171875 153.132812 C 209.355469 212.160156 210.792969 208.679688 210.621094 209.839844 C 227.847656 209.867188 245.074219 209.863281 262.300781 209.835938 C 261.898438 208.410156 247.363281 176.769531 237.042969 153.972656 C 236.863281 153.566406 236.714844 153.066406 236.171875 153.128906 Z M 236.171875 153.132812 " fill-opacity="1" fill-rule="nonzero"/><g clip-path="url(#id4)"><path fill="#bd9d60" d="M 17.339844 172.117188 C 12.367188 172.117188 8.339844 176.144531 8.339844 181.117188 C 8.339844 186.085938 12.367188 190.117188 17.339844 190.117188 C 22.308594 190.117188 26.339844 186.085938 26.339844 181.117188 C 26.339844 176.144531 22.308594 172.117188 17.339844 172.117188 " fill-opacity="1" fill-rule="nonzero"/></g><g clip-path="url(#id5)"><path fill="#bd9d60" d="M 357.59375 172.117188 C 352.621094 172.117188 348.59375 176.144531 348.59375 181.117188 C 348.59375 186.085938 352.621094 190.117188 357.59375 190.117188 C 362.5625 190.117188 366.59375 186.085938 366.59375 181.117188 C 366.59375 176.144531 362.5625 172.117188 357.59375 172.117188 " fill-opacity="1" fill-rule="nonzero"/></g><g clip-path="url(#id6)"><path fill="#bd9d60" d="M 187.941406 77.019531 L 189.976562 83.429688 C 190.023438 83.574219 190.15625 83.65625 190.300781 83.65625 L 197.5 83.609375 C 197.824219 83.609375 197.957031 84.015625 197.695312 84.210938 L 191.832031 88.402344 C 191.71875 88.484375 191.667969 88.648438 191.71875 88.777344 L 194 95.613281 C 194.097656 95.921875 193.753906 96.183594 193.492188 95.988281 L 187.761719 91.796875 C 187.582031 91.664062 187.371094 91.664062 187.191406 91.796875 L 181.472656 96.003906 C 181.214844 96.199219 180.855469 95.9375 180.96875 95.628906 L 183.25 88.792969 C 183.296875 88.664062 183.25 88.5 183.136719 88.417969 L 177.273438 84.226562 C 177.011719 84.03125 177.140625 83.625 177.46875 83.625 L 184.667969 83.671875 C 184.8125 83.671875 184.941406 83.574219 184.992188 83.445312 L 187.011719 77.019531 C 187.175781 76.546875 187.792969 76.546875 187.941406 77.019531 Z M 187.941406 77.019531 " fill-opacity="1" fill-rule="nonzero"/></g><g clip-path="url(#id7)"><path fill="#bd9d60" d="M 187.625 186.464844 C 193.425781 186.464844 198.125 181.761719 198.125 175.964844 L 177.125 175.964844 C 177.125 181.761719 181.828125 186.464844 187.625 186.464844 Z M 187.625 186.464844 " fill-opacity="1" fill-rule="nonzero"/></g><g clip-path="url(#id8)"><path fill="#bd9d60" d="M 187.621094 264.199219 C 204.394531 264.199219 217.992188 250.769531 217.992188 234.199219 L 157.253906 234.199219 C 157.253906 250.769531 170.851562 264.199219 187.621094 264.199219 Z M 187.621094 264.199219 " fill-opacity="1" fill-rule="nonzero"/></g><g clip-path="url(#id9)"><path fill="#bd9d60" d="M 194.484375 204.449219 C 194.484375 204.917969 194.4375 205.382812 194.347656 205.839844 C 194.257812 206.300781 194.121094 206.746094 193.941406 207.175781 C 193.761719 207.609375 193.542969 208.019531 193.285156 208.410156 C 193.023438 208.796875 192.730469 209.15625 192.398438 209.488281 C 192.066406 209.820312 191.707031 210.113281 191.316406 210.375 C 190.929688 210.632812 190.519531 210.855469 190.085938 211.03125 C 189.652344 211.210938 189.207031 211.347656 188.75 211.4375 C 188.292969 211.53125 187.828125 211.574219 187.359375 211.574219 C 186.890625 211.574219 186.429688 211.53125 185.96875 211.4375 C 185.511719 211.347656 185.066406 211.210938 184.632812 211.03125 C 184.199219 210.855469 183.789062 210.632812 183.402344 210.375 C 183.011719 210.113281 182.652344 209.820312 182.320312 209.488281 C 181.992188 209.15625 181.695312 208.796875 181.4375 208.410156 C 181.175781 208.019531 180.957031 207.609375 180.777344 207.175781 C 180.597656 206.746094 180.464844 206.300781 180.371094 205.839844 C 180.28125 205.382812 180.234375 204.917969 180.234375 204.449219 C 180.234375 203.980469 180.28125 203.519531 180.371094 203.058594 C 180.464844 202.601562 180.597656 202.15625 180.777344 201.722656 C 180.957031 201.292969 181.175781 200.878906 181.4375 200.492188 C 181.695312 200.101562 181.992188 199.742188 182.320312 199.410156 C 182.652344 199.082031 183.011719 198.785156 183.402344 198.527344 C 183.789062 198.265625 184.199219 198.046875 184.632812 197.867188 C 185.066406 197.6875 185.511719 197.554688 185.96875 197.460938 C 186.429688 197.371094 186.890625 197.324219 187.359375 197.324219 C 187.828125 197.324219 188.292969 197.371094 188.75 197.460938 C 189.207031 197.554688 189.652344 197.6875 190.085938 197.867188 C 190.519531 198.046875 190.929688 198.265625 191.316406 198.527344 C 191.707031 198.785156 192.066406 199.082031 192.398438 199.410156 C 192.730469 199.742188 193.023438 200.101562 193.285156 200.492188 C 193.542969 200.878906 193.761719 201.292969 193.941406 201.722656 C 194.121094 202.15625 194.257812 202.601562 194.347656 203.058594 C 194.4375 203.519531 194.484375 203.980469 194.484375 204.449219 Z M 194.484375 204.449219 " fill-opacity="1" fill-rule="nonzero"/></g><g clip-path="url(#id10)"><path fill="#000000" d="M 187.65625 348.90625 C 98.570312 348.90625 26.40625 276.246094 26.40625 187.65625 C 26.40625 99.070312 98.570312 26.40625 187.65625 26.40625 C 276.742188 26.40625 348.90625 98.570312 348.90625 187.65625 C 348.90625 276.742188 276.246094 348.90625 187.65625 348.90625 Z M 187.65625 36.359375 C 104.046875 36.359375 36.359375 104.046875 36.359375 187.65625 C 36.359375 271.269531 104.046875 338.953125 187.65625 338.953125 C 271.269531 338.953125 338.953125 271.269531 338.953125 187.65625 C 338.953125 104.046875 270.769531 36.359375 187.65625 36.359375 Z M 187.65625 36.359375 " fill-opacity="1" fill-rule="nonzero"/></g><g clip-path="url(#id11)"><path fill="#bd9d60" d="M 187.464844 8.339844 C 182.496094 8.339844 178.464844 12.367188 178.464844 17.339844 C 178.464844 22.308594 182.496094 26.339844 187.464844 26.339844 C 192.4375 26.339844 196.464844 22.308594 196.464844 17.339844 C 196.464844 12.367188 192.4375 8.339844 187.464844 8.339844 " fill-opacity="1" fill-rule="nonzero"/></g><g clip-path="url(#id12)"><path fill="#bd9d60" d="M 187.464844 348.59375 C 182.496094 348.59375 178.464844 352.621094 178.464844 357.59375 C 178.464844 362.5625 182.496094 366.59375 187.464844 366.59375 C 192.4375 366.59375 196.464844 362.5625 196.464844 357.59375 C 196.464844 352.621094 192.4375 348.59375 187.464844 348.59375 " fill-opacity="1" fill-rule="nonzero"/></g><g clip-path="url(#id13)"><path fill="#bd9d60" d="M 314.027344 296.753906 C 309.058594 296.753906 305.027344 300.78125 305.027344 305.753906 C 305.027344 310.722656 309.058594 314.753906 314.027344 314.753906 C 319 314.753906 323.027344 310.722656 323.027344 305.753906 C 323.027344 300.78125 319 296.753906 314.027344 296.753906 " fill-opacity="1" fill-rule="nonzero"/></g><g clip-path="url(#id14)"><path fill="#bd9d60" d="M 61.070312 296.753906 C 56.101562 296.753906 52.070312 300.78125 52.070312 305.753906 C 52.070312 310.722656 56.101562 314.753906 61.070312 314.753906 C 66.042969 314.753906 70.070312 310.722656 70.070312 305.753906 C 70.070312 300.78125 66.042969 296.753906 61.070312 296.753906 " fill-opacity="1" fill-rule="nonzero"/></g><g clip-path="url(#id15)"><path fill="#bd9d60" d="M 314.027344 58.589844 C 309.058594 58.589844 305.027344 62.621094 305.027344 67.589844 C 305.027344 72.5625 309.058594 76.589844 314.027344 76.589844 C 319 76.589844 323.027344 72.5625 323.027344 67.589844 C 323.027344 62.621094 319 58.589844 314.027344 58.589844 " fill-opacity="1" fill-rule="nonzero"/></g><g clip-path="url(#id16)"><path fill="#bd9d60" d="M 61.070312 58.589844 C 56.101562 58.589844 52.070312 62.621094 52.070312 67.589844 C 52.070312 72.5625 56.101562 76.589844 61.070312 76.589844 C 66.042969 76.589844 70.070312 72.5625 70.070312 67.589844 C 70.070312 62.621094 66.042969 58.589844 61.070312 58.589844 " fill-opacity="1" fill-rule="nonzero"/></g></svg>