<svg xmlns="http://www.w3.org/2000/svg" xmlns:xlink="http://www.w3.org/1999/xlink" width="500" zoomAndPan="magnify" viewBox="0 0 375 374.999991" height="500" preserveAspectRatio="xMidYMid meet" version="1.0"><defs><g/><clipPath id="id1"><path d="M 40.480469 52.179688 L 330.621094 52.179688 L 330.621094 342.320312 L 40.480469 342.320312 Z M 40.480469 52.179688 " clip-rule="nonzero"/></clipPath><clipPath id="id2"><path d="M 49.941406 61.640625 L 321.363281 61.640625 L 321.363281 333.066406 L 49.941406 333.066406 Z M 49.941406 61.640625 " clip-rule="nonzero"/></clipPath><clipPath id="id3"><path d="M 73 98.601562 L 298.640625 98.601562 L 298.640625 315.203125 L 73 315.203125 Z M 73 98.601562 " clip-rule="nonzero"/></clipPath><clipPath id="id4"><path d="M 15.3125 135.457031 L 34.03125 135.457031 L 34.03125 154.175781 L 15.3125 154.175781 Z M 15.3125 135.457031 " clip-rule="nonzero"/></clipPath><clipPath id="id5"><path d="M 337.695312 135.457031 L 356.414062 135.457031 L 356.414062 154.175781 L 337.695312 154.175781 Z M 337.695312 135.457031 " clip-rule="nonzero"/></clipPath><clipPath id="id6"><path d="M 175.164062 86.394531 L 195.878906 86.394531 L 195.878906 105.808594 L 175.164062 105.808594 Z M 175.164062 86.394531 " clip-rule="nonzero"/></clipPath><clipPath id="id7"><path d="M 175.164062 185.703125 L 196.558594 185.703125 L 196.558594 196.398438 L 175.164062 196.398438 Z M 175.164062 185.703125 " clip-rule="nonzero"/></clipPath><clipPath id="id8"><path d="M 155.285156 243.9375 L 215.453125 243.9375 L 215.453125 274.691406 L 155.285156 274.691406 Z M 155.285156 243.9375 " clip-rule="nonzero"/></clipPath><clipPath id="id9"><path d="M 178.273438 207.0625 L 192.980469 207.0625 L 192.980469 221.769531 L 178.273438 221.769531 Z M 178.273438 207.0625 " clip-rule="nonzero"/></clipPath></defs><g clip-path="url(#id1)"><path fill="#bd9d60" d="M 185.5 342.320312 C 105.578125 342.320312 40.480469 277.222656 40.480469 197.199219 C 40.480469 117.179688 105.578125 52.179688 185.5 52.179688 C 265.425781 52.179688 330.523438 117.277344 330.523438 197.199219 C 330.621094 277.222656 265.523438 342.320312 185.5 342.320312 Z M 185.5 54.632812 C 106.851562 54.632812 42.933594 118.554688 42.933594 197.199219 C 42.933594 275.847656 106.953125 339.867188 185.5 339.867188 C 264.050781 339.867188 328.167969 275.847656 328.167969 197.199219 C 328.167969 118.554688 264.148438 54.632812 185.5 54.632812 Z M 185.5 54.632812 " fill-opacity="1" fill-rule="nonzero"/></g><g clip-path="url(#id2)"><path fill="#bd9d60" d="M 185.605469 333.066406 C 110.839844 333.066406 49.941406 272.167969 49.941406 197.304688 C 49.941406 122.445312 110.839844 61.640625 185.605469 61.640625 C 260.375 61.640625 321.273438 122.539062 321.273438 197.304688 C 321.363281 272.167969 260.46875 333.066406 185.605469 333.066406 Z M 185.605469 63.9375 C 112.03125 63.9375 52.238281 123.734375 52.238281 197.304688 C 52.238281 270.878906 112.125 330.769531 185.605469 330.769531 C 259.089844 330.769531 319.070312 270.878906 319.070312 197.304688 C 319.070312 123.734375 259.179688 63.9375 185.605469 63.9375 Z M 185.605469 63.9375 " fill-opacity="1" fill-rule="nonzero"/></g><g fill="#000000" fill-opacity="1"><g transform="translate(41.104774, 121.796345)"><g><path d="M -11.84375 -8.75 L -9.625 -12.453125 L 3.328125 -10.796875 L 3.109375 -10.40625 L -4.5 -20.96875 L -2.421875 -24.4375 L -1.578125 -24.015625 L -2.09375 -22.515625 C -1.894531 -22.378906 -1.515625 -22.148438 -0.953125 -21.828125 C -0.398438 -21.503906 0.191406 -21.164062 0.828125 -20.8125 L 4.78125 -18.546875 C 5.5 -18.140625 6.101562 -17.796875 6.59375 -17.515625 C 7.09375 -17.242188 7.484375 -17.03125 7.765625 -16.875 C 8.046875 -16.71875 8.269531 -16.601562 8.4375 -16.53125 L 9.5 -17.65625 L 10.296875 -17.125 L 7.5625 -12.59375 L 6.703125 -13.015625 L 7.21875 -14.5 C 7.039062 -14.601562 6.835938 -14.722656 6.609375 -14.859375 C 6.390625 -14.992188 6.070312 -15.1875 5.65625 -15.4375 C 5.238281 -15.6875 4.671875 -16.023438 3.953125 -16.453125 L -3.671875 -20.96875 L -3.34375 -21.515625 L 5.5625 -9.109375 L 5.109375 -8.359375 L -10.109375 -10.296875 L -9.765625 -10.84375 L -2.46875 -6.5 C -1.28125 -5.789062 -0.421875 -5.273438 0.109375 -4.953125 C 0.648438 -4.640625 0.988281 -4.453125 1.125 -4.390625 L 2.296875 -5.671875 L 3.078125 -5.109375 L 0.5625 -0.921875 L -0.296875 -1.34375 L 0.28125 -2.984375 C 0.1875 -3.046875 0.0078125 -3.164062 -0.25 -3.34375 C -0.519531 -3.519531 -0.875 -3.75 -1.3125 -4.03125 C -1.757812 -4.3125 -2.296875 -4.632812 -2.921875 -5 L -7.09375 -7.625 C -7.71875 -8.007812 -8.289062 -8.351562 -8.8125 -8.65625 C -9.34375 -8.96875 -9.726562 -9.195312 -9.96875 -9.34375 L -11.078125 -8.21875 Z M -11.84375 -8.75 "/></g></g></g><g fill="#000000" fill-opacity="1"><g transform="translate(61.760932, 91.257392)"><g><path d="M 8.34375 -8.828125 C 7.976562 -8.503906 7.660156 -8.210938 7.390625 -7.953125 C 7.128906 -7.691406 6.882812 -7.4375 6.65625 -7.1875 L 0.828125 -0.890625 L 0.078125 -1.484375 L 0.890625 -2.859375 C 0.828125 -2.929688 0.691406 -3.070312 0.484375 -3.28125 C 0.273438 -3.5 -0.0078125 -3.785156 -0.375 -4.140625 C -0.75 -4.492188 -1.203125 -4.921875 -1.734375 -5.421875 L -5.1875 -8.609375 C -5.738281 -9.117188 -6.207031 -9.546875 -6.59375 -9.890625 C -6.988281 -10.242188 -7.300781 -10.519531 -7.53125 -10.71875 C -7.769531 -10.914062 -7.910156 -11.03125 -7.953125 -11.0625 L -9.28125 -10.15625 L -9.921875 -10.84375 L -4.484375 -16.734375 C -4.316406 -16.910156 -4.140625 -17.09375 -3.953125 -17.28125 C -3.773438 -17.476562 -3.597656 -17.691406 -3.421875 -17.921875 C -3.242188 -18.160156 -3.0625 -18.398438 -2.875 -18.640625 L -0.109375 -16.78125 L -0.75 -15.828125 L -2.828125 -16.65625 C -2.941406 -16.570312 -3.0625 -16.472656 -3.1875 -16.359375 C -3.3125 -16.253906 -3.4375 -16.128906 -3.5625 -15.984375 L -5.46875 -13.921875 C -5.6875 -13.691406 -5.875 -13.484375 -6.03125 -13.296875 C -6.1875 -13.109375 -6.332031 -12.921875 -6.46875 -12.734375 C -6.414062 -12.679688 -6.273438 -12.546875 -6.046875 -12.328125 C -5.828125 -12.109375 -5.578125 -11.863281 -5.296875 -11.59375 C -5.015625 -11.320312 -4.722656 -11.046875 -4.421875 -10.765625 L 0.515625 -6.1875 C 0.765625 -5.96875 1.015625 -5.742188 1.265625 -5.515625 C 1.523438 -5.285156 1.75 -5.085938 1.9375 -4.921875 C 2.132812 -4.765625 2.28125 -4.640625 2.375 -4.546875 C 2.5625 -4.722656 2.742188 -4.894531 2.921875 -5.0625 C 3.097656 -5.238281 3.296875 -5.441406 3.515625 -5.671875 L 5.15625 -7.453125 C 5.40625 -7.722656 5.601562 -7.941406 5.75 -8.109375 C 5.90625 -8.285156 6.019531 -8.425781 6.09375 -8.53125 C 6.175781 -8.632812 6.238281 -8.726562 6.28125 -8.8125 L 5.4375 -11.390625 L 6.359375 -12.046875 Z M 2.59375 -10.359375 L 1.15625 -11.28125 C 1.070312 -11.25 0.957031 -11.164062 0.8125 -11.03125 C 0.664062 -10.894531 0.492188 -10.722656 0.296875 -10.515625 L -0.984375 -9.125 C -1.140625 -8.957031 -1.296875 -8.773438 -1.453125 -8.578125 C -1.617188 -8.378906 -1.785156 -8.175781 -1.953125 -7.96875 L -2.96875 -8.890625 C -2.769531 -9.078125 -2.582031 -9.257812 -2.40625 -9.4375 C -2.226562 -9.625 -2.0625 -9.800781 -1.90625 -9.96875 L -0.625 -11.359375 C -0.425781 -11.566406 -0.257812 -11.742188 -0.125 -11.890625 C 0 -12.046875 0.078125 -12.171875 0.109375 -12.265625 L -0.953125 -13.640625 L -0.21875 -14.421875 L 3.328125 -11.140625 Z M 2.59375 -10.359375 "/></g></g></g><g fill="#000000" fill-opacity="1"><g transform="translate(82.982109, 70.472547)"><g><path d="M 1.5625 -19.5625 L 4.40625 -16.640625 L 3.609375 -15.890625 L 1.09375 -17.515625 C 0.957031 -17.484375 0.816406 -17.410156 0.671875 -17.296875 C 0.535156 -17.191406 0.414062 -17.101562 0.3125 -17.03125 L -0.40625 -16.5 C -0.539062 -16.394531 -0.722656 -16.257812 -0.953125 -16.09375 C -1.179688 -15.925781 -1.390625 -15.769531 -1.578125 -15.625 C -1.492188 -15.507812 -1.304688 -15.253906 -1.015625 -14.859375 C -0.734375 -14.460938 -0.394531 -14 0 -13.46875 C 0.382812 -12.945312 0.757812 -12.445312 1.125 -11.96875 L 3.125 -9.265625 C 3.75 -8.421875 4.300781 -7.691406 4.78125 -7.078125 C 5.257812 -6.472656 5.570312 -6.070312 5.71875 -5.875 L 7.609375 -6.890625 L 8.140625 -6.046875 L 3.015625 -2.25 L 2.390625 -3.015625 L 3.875 -4.515625 C 3.726562 -4.710938 3.429688 -5.125 2.984375 -5.75 C 2.546875 -6.382812 2.015625 -7.125 1.390625 -7.96875 L -0.609375 -10.671875 C -0.972656 -11.148438 -1.347656 -11.648438 -1.734375 -12.171875 C -2.128906 -12.703125 -2.472656 -13.160156 -2.765625 -13.546875 C -3.054688 -13.941406 -3.253906 -14.191406 -3.359375 -14.296875 C -3.535156 -14.171875 -3.734375 -14.023438 -3.953125 -13.859375 C -4.179688 -13.691406 -4.363281 -13.554688 -4.5 -13.453125 L -5.28125 -12.875 C -5.382812 -12.789062 -5.5 -12.703125 -5.625 -12.609375 C -5.757812 -12.515625 -5.867188 -12.398438 -5.953125 -12.265625 L -5.078125 -9.390625 L -6.078125 -8.84375 L -8.046875 -12.40625 C -7.890625 -12.5 -7.722656 -12.601562 -7.546875 -12.71875 C -7.378906 -12.84375 -7.207031 -12.957031 -7.03125 -13.0625 C -6.851562 -13.164062 -6.679688 -13.28125 -6.515625 -13.40625 C -6.359375 -13.53125 -6.203125 -13.648438 -6.046875 -13.765625 L -0.3125 -18.03125 C -0.164062 -18.144531 -0.0078125 -18.257812 0.15625 -18.375 C 0.320312 -18.5 0.476562 -18.628906 0.625 -18.765625 C 0.78125 -18.910156 0.9375 -19.046875 1.09375 -19.171875 C 1.257812 -19.296875 1.414062 -19.425781 1.5625 -19.5625 Z M 1.5625 -19.5625 "/></g></g></g><g fill="#000000" fill-opacity="1"><g transform="translate(107.654589, 53.910313)"><g><path d="M 0.0625 -0.03125 L -0.390625 -0.875 L 0.5625 -1.71875 L -0.484375 -15.59375 L 0.421875 -17.015625 L 11.375 -6.984375 L 12.640625 -7.234375 L 13 -6.34375 L 8.46875 -4.125 L 7.984375 -4.953125 L 9.21875 -5.9375 L 6.28125 -8.625 L 5.6875 -9.1875 L 0.265625 -14.109375 L 0.640625 -14.65625 L 1.421875 -7.109375 L 1.5 -6.328125 L 1.953125 -2.390625 L 3.46875 -2.75 L 3.828125 -1.875 Z M 1.1875 -5.71875 L 0.609375 -6.90625 C 0.898438 -7.03125 1.289062 -7.207031 1.78125 -7.4375 C 2.28125 -7.664062 2.890625 -7.953125 3.609375 -8.296875 C 4.316406 -8.640625 4.914062 -8.941406 5.40625 -9.203125 C 5.90625 -9.460938 6.285156 -9.664062 6.546875 -9.8125 L 7.125 -8.625 C 6.625 -8.382812 6.117188 -8.144531 5.609375 -7.90625 C 5.097656 -7.675781 4.609375 -7.445312 4.140625 -7.21875 C 3.691406 -7 3.226562 -6.765625 2.75 -6.515625 C 2.269531 -6.273438 1.75 -6.007812 1.1875 -5.71875 Z M 1.1875 -5.71875 "/></g></g></g><g fill="#000000" fill-opacity="1"><g transform="translate(135.46021, 41.926043)"><g><path d="M 8.5 -2 C 7.09375 -1.632812 5.765625 -1.613281 4.515625 -1.9375 C 3.265625 -2.257812 2.1875 -2.890625 1.28125 -3.828125 C 0.382812 -4.765625 -0.25 -5.941406 -0.625 -7.359375 C -1 -8.773438 -1.019531 -10.117188 -0.6875 -11.390625 C -0.363281 -12.660156 0.265625 -13.757812 1.203125 -14.6875 C 2.140625 -15.613281 3.296875 -16.257812 4.671875 -16.625 C 6.023438 -16.976562 7.296875 -16.988281 8.484375 -16.65625 C 9.679688 -16.320312 10.71875 -15.691406 11.59375 -14.765625 C 12.46875 -13.835938 13.09375 -12.660156 13.46875 -11.234375 C 13.75 -10.160156 13.820312 -9.125 13.6875 -8.125 C 13.5625 -7.132812 13.257812 -6.21875 12.78125 -5.375 C 12.3125 -4.539062 11.710938 -3.832031 10.984375 -3.25 C 10.253906 -2.664062 9.425781 -2.25 8.5 -2 Z M 8.359375 -3.375 C 9.242188 -3.601562 9.945312 -4.023438 10.46875 -4.640625 C 10.988281 -5.265625 11.3125 -6.035156 11.4375 -6.953125 C 11.5625 -7.867188 11.472656 -8.894531 11.171875 -10.03125 C 10.828125 -11.332031 10.320312 -12.421875 9.65625 -13.296875 C 8.988281 -14.179688 8.234375 -14.804688 7.390625 -15.171875 C 6.546875 -15.535156 5.648438 -15.59375 4.703125 -15.34375 C 3.335938 -14.988281 2.390625 -14.191406 1.859375 -12.953125 C 1.335938 -11.722656 1.304688 -10.234375 1.765625 -8.484375 C 2.097656 -7.222656 2.597656 -6.164062 3.265625 -5.3125 C 3.941406 -4.46875 4.722656 -3.867188 5.609375 -3.515625 C 6.492188 -3.171875 7.410156 -3.125 8.359375 -3.375 Z M 8.359375 -3.375 "/></g></g></g><g fill="#000000" fill-opacity="1"><g transform="translate(167.656361, 35.19992)"><g><path d="M 1.328125 -0.09375 L 1.1875 -1.03125 L 2.609375 -1.484375 C 2.640625 -1.554688 2.648438 -1.703125 2.640625 -1.921875 C 2.628906 -2.148438 2.613281 -2.507812 2.59375 -3 C 2.570312 -3.5 2.53125 -4.171875 2.46875 -5.015625 L 2.15625 -10.09375 C 2.101562 -10.894531 2.050781 -11.535156 2 -12.015625 C 1.945312 -12.503906 1.910156 -12.863281 1.890625 -13.09375 C 1.867188 -13.320312 1.847656 -13.457031 1.828125 -13.5 L 0.25 -13.765625 L 0.265625 -14.703125 L 5.5625 -15.0625 C 7.21875 -15.175781 8.523438 -14.898438 9.484375 -14.234375 C 10.441406 -13.578125 10.96875 -12.566406 11.0625 -11.203125 C 11.125 -10.285156 10.9375 -9.46875 10.5 -8.75 C 10.070312 -8.039062 9.472656 -7.46875 8.703125 -7.03125 C 7.941406 -6.601562 7.070312 -6.359375 6.09375 -6.296875 C 5.707031 -6.265625 5.351562 -6.257812 5.03125 -6.28125 C 4.707031 -6.300781 4.40625 -6.328125 4.125 -6.359375 L 4.03125 -7.71875 C 4.40625 -7.625 4.738281 -7.5625 5.03125 -7.53125 C 5.320312 -7.5 5.617188 -7.492188 5.921875 -7.515625 C 6.898438 -7.578125 7.648438 -7.867188 8.171875 -8.390625 C 8.691406 -8.921875 8.921875 -9.703125 8.859375 -10.734375 C 8.773438 -11.910156 8.40625 -12.753906 7.75 -13.265625 C 7.09375 -13.785156 6.300781 -14.015625 5.375 -13.953125 L 4.046875 -13.859375 C 4.046875 -13.753906 4.054688 -13.523438 4.078125 -13.171875 C 4.097656 -12.816406 4.117188 -12.378906 4.140625 -11.859375 C 4.171875 -11.347656 4.203125 -10.804688 4.234375 -10.234375 L 4.609375 -5.15625 C 4.671875 -4.3125 4.71875 -3.644531 4.75 -3.15625 C 4.789062 -2.664062 4.832031 -2.316406 4.875 -2.109375 C 4.914062 -1.898438 4.9375 -1.753906 4.9375 -1.671875 L 7.046875 -1.484375 L 7.03125 -0.46875 Z M 1.328125 -0.09375 "/></g></g></g><g fill="#000000" fill-opacity="1"><g transform="translate(196.331748, 34.6577)"><g><path d="M 12.046875 1.5 C 11.578125 1.394531 11.15625 1.3125 10.78125 1.25 C 10.414062 1.195312 10.066406 1.148438 9.734375 1.109375 L 1.203125 0.140625 L 1.265625 -0.828125 L 2.828125 -0.96875 C 2.847656 -1.050781 2.882812 -1.242188 2.9375 -1.546875 C 2.988281 -1.847656 3.046875 -2.253906 3.109375 -2.765625 C 3.179688 -3.273438 3.257812 -3.894531 3.34375 -4.625 L 3.875 -9.296875 C 3.957031 -10.046875 4.023438 -10.675781 4.078125 -11.1875 C 4.128906 -11.707031 4.160156 -12.117188 4.171875 -12.421875 C 4.191406 -12.722656 4.203125 -12.898438 4.203125 -12.953125 L 2.71875 -13.5 L 2.859375 -14.421875 L 10.828125 -13.515625 C 11.066406 -13.484375 11.316406 -13.453125 11.578125 -13.421875 C 11.847656 -13.398438 12.128906 -13.382812 12.421875 -13.375 C 12.710938 -13.363281 13.015625 -13.351562 13.328125 -13.34375 L 13.453125 -10 L 12.3125 -9.953125 L 11.75 -12.125 C 11.625 -12.175781 11.476562 -12.210938 11.3125 -12.234375 C 11.144531 -12.265625 10.96875 -12.289062 10.78125 -12.3125 L 7.984375 -12.640625 C 7.671875 -12.671875 7.394531 -12.695312 7.15625 -12.71875 C 6.914062 -12.738281 6.675781 -12.742188 6.4375 -12.734375 C 6.425781 -12.671875 6.398438 -12.484375 6.359375 -12.171875 C 6.316406 -11.867188 6.265625 -11.519531 6.203125 -11.125 C 6.148438 -10.726562 6.101562 -10.332031 6.0625 -9.9375 L 5.296875 -3.234375 C 5.253906 -2.910156 5.21875 -2.578125 5.1875 -2.234375 C 5.164062 -1.890625 5.144531 -1.585938 5.125 -1.328125 C 5.101562 -1.078125 5.085938 -0.890625 5.078125 -0.765625 C 5.328125 -0.722656 5.566406 -0.679688 5.796875 -0.640625 C 6.035156 -0.597656 6.316406 -0.554688 6.640625 -0.515625 L 9.046875 -0.25 C 9.410156 -0.207031 9.707031 -0.175781 9.9375 -0.15625 C 10.175781 -0.132812 10.363281 -0.125 10.5 -0.125 C 10.632812 -0.125 10.742188 -0.128906 10.828125 -0.140625 L 12.390625 -2.34375 L 13.484375 -2 Z M 9.875 -4.03125 L 9.765625 -5.734375 C 9.691406 -5.785156 9.554688 -5.828125 9.359375 -5.859375 C 9.171875 -5.898438 8.9375 -5.9375 8.65625 -5.96875 L 6.765625 -6.1875 C 6.546875 -6.21875 6.304688 -6.238281 6.046875 -6.25 C 5.796875 -6.257812 5.535156 -6.269531 5.265625 -6.28125 L 5.421875 -7.65625 C 5.679688 -7.601562 5.9375 -7.5625 6.1875 -7.53125 C 6.445312 -7.5 6.6875 -7.46875 6.90625 -7.4375 L 8.796875 -7.21875 C 9.078125 -7.1875 9.3125 -7.160156 9.5 -7.140625 C 9.695312 -7.128906 9.84375 -7.140625 9.9375 -7.171875 L 10.421875 -8.84375 L 11.5 -8.71875 L 10.953125 -3.90625 Z M 9.875 -4.03125 "/></g></g></g><g fill="#000000" fill-opacity="1"><g transform="translate(225.601246, 39.390137)"><g><path d="M 13.09375 0.40625 L 14.78125 -4.9375 C 15.082031 -5.863281 15.316406 -6.613281 15.484375 -7.1875 C 15.660156 -7.757812 15.78125 -8.179688 15.84375 -8.453125 C 15.914062 -8.734375 15.945312 -8.90625 15.9375 -8.96875 L 14.4375 -9.8125 L 14.78125 -10.6875 L 19.296875 -9.25 L 19.09375 -8.34375 L 17.515625 -8.46875 C 17.503906 -8.414062 17.441406 -8.253906 17.328125 -7.984375 C 17.210938 -7.722656 17.054688 -7.304688 16.859375 -6.734375 C 16.660156 -6.160156 16.414062 -5.421875 16.125 -4.515625 L 14.328125 1.171875 C 14.171875 1.671875 14.007812 2.179688 13.84375 2.703125 C 13.675781 3.222656 13.507812 3.765625 13.34375 4.328125 L 12.265625 3.984375 L 7.25 -10.5625 L 7.765625 -10.40625 L 5.734375 -4.015625 C 5.441406 -3.078125 5.210938 -2.3125 5.046875 -1.71875 C 4.890625 -1.132812 4.773438 -0.703125 4.703125 -0.421875 C 4.640625 -0.148438 4.609375 0.0195312 4.609375 0.09375 L 6.125 0.9375 L 5.765625 1.828125 L 1.1875 0.375 L 1.40625 -0.546875 L 2.96875 -0.421875 C 3.019531 -0.484375 3.09375 -0.644531 3.1875 -0.90625 C 3.289062 -1.164062 3.441406 -1.582031 3.640625 -2.15625 C 3.847656 -2.738281 4.097656 -3.5 4.390625 -4.4375 L 5.6875 -8.53125 C 5.914062 -9.238281 6.09375 -9.828125 6.21875 -10.296875 C 6.351562 -10.765625 6.453125 -11.128906 6.515625 -11.390625 C 6.578125 -11.648438 6.609375 -11.828125 6.609375 -11.921875 L 5.265625 -12.71875 L 5.609375 -13.59375 L 8.875 -12.5625 L 13.53125 0.53125 Z M 13.09375 0.40625 "/></g></g></g><g fill="#000000" fill-opacity="1"><g transform="translate(256.107648, 50.762181)"><g><path d="M 7.9375 4.609375 C 6.664062 3.910156 5.644531 3.035156 4.875 1.984375 C 4.113281 0.929688 3.679688 -0.25 3.578125 -1.5625 C 3.484375 -2.882812 3.832031 -4.265625 4.625 -5.703125 C 5.125 -6.617188 5.753906 -7.390625 6.515625 -8.015625 C 7.285156 -8.648438 8.148438 -9.109375 9.109375 -9.390625 C 10.066406 -9.671875 11.085938 -9.742188 12.171875 -9.609375 C 13.253906 -9.472656 14.367188 -9.085938 15.515625 -8.453125 C 16.109375 -8.128906 16.707031 -7.722656 17.3125 -7.234375 C 17.925781 -6.742188 18.429688 -6.242188 18.828125 -5.734375 L 17.34375 -2.65625 L 16.328125 -3.109375 L 16.796875 -5.546875 C 16.617188 -5.890625 16.332031 -6.234375 15.9375 -6.578125 C 15.539062 -6.921875 15.128906 -7.207031 14.703125 -7.4375 C 13.609375 -8.039062 12.582031 -8.296875 11.625 -8.203125 C 10.675781 -8.109375 9.820312 -7.757812 9.0625 -7.15625 C 8.300781 -6.550781 7.660156 -5.773438 7.140625 -4.828125 C 6.453125 -3.585938 6.082031 -2.414062 6.03125 -1.3125 C 5.988281 -0.21875 6.21875 0.75 6.71875 1.59375 C 7.21875 2.4375 7.910156 3.101562 8.796875 3.59375 C 9.253906 3.84375 9.703125 4.019531 10.140625 4.125 C 10.585938 4.238281 11.039062 4.289062 11.5 4.28125 L 13.59375 2.75 L 14.546875 3.421875 L 12.40625 5.828125 C 11.757812 5.796875 11.039062 5.691406 10.25 5.515625 C 9.46875 5.335938 8.695312 5.035156 7.9375 4.609375 Z M 7.9375 4.609375 "/></g></g></g><g fill="#000000" fill-opacity="1"><g transform="translate(282.373443, 66.874836)"><g><path d="M 6.53125 5.796875 C 5.414062 4.859375 4.628906 3.785156 4.171875 2.578125 C 3.722656 1.367188 3.625 0.128906 3.875 -1.140625 C 4.125 -2.410156 4.722656 -3.609375 5.671875 -4.734375 C 6.617188 -5.847656 7.703125 -6.640625 8.921875 -7.109375 C 10.148438 -7.578125 11.410156 -7.695312 12.703125 -7.46875 C 14.003906 -7.238281 15.203125 -6.660156 16.296875 -5.734375 C 17.359375 -4.835938 18.09375 -3.800781 18.5 -2.625 C 18.914062 -1.445312 19 -0.238281 18.75 1 C 18.5 2.238281 17.898438 3.421875 16.953125 4.546875 C 16.234375 5.398438 15.421875 6.0625 14.515625 6.53125 C 13.617188 7 12.691406 7.28125 11.734375 7.375 C 10.785156 7.46875 9.863281 7.382812 8.96875 7.125 C 8.082031 6.863281 7.269531 6.421875 6.53125 5.796875 Z M 7.546875 4.90625 C 8.253906 5.488281 9.007812 5.816406 9.8125 5.890625 C 10.625 5.960938 11.441406 5.785156 12.265625 5.359375 C 13.085938 4.929688 13.875 4.269531 14.625 3.375 C 15.5 2.34375 16.101562 1.304688 16.4375 0.265625 C 16.78125 -0.773438 16.859375 -1.75 16.671875 -2.65625 C 16.484375 -3.5625 16.015625 -4.332031 15.265625 -4.96875 C 14.179688 -5.875 12.984375 -6.1875 11.671875 -5.90625 C 10.367188 -5.632812 9.132812 -4.804688 7.96875 -3.421875 C 7.125 -2.429688 6.546875 -1.414062 6.234375 -0.375 C 5.929688 0.65625 5.882812 1.632812 6.09375 2.5625 C 6.3125 3.488281 6.796875 4.269531 7.546875 4.90625 Z M 7.546875 4.90625 "/></g></g></g><g fill="#000000" fill-opacity="1"><g transform="translate(306.404731, 89.216602)"><g><path d="M 12.265625 -8.109375 L 16.015625 -3.359375 C 17.640625 -1.285156 18.410156 0.710938 18.328125 2.640625 C 18.253906 4.578125 17.332031 6.242188 15.5625 7.640625 C 14.40625 8.546875 13.171875 9.082031 11.859375 9.25 C 10.546875 9.414062 9.265625 9.21875 8.015625 8.65625 C 6.773438 8.09375 5.664062 7.1875 4.6875 5.9375 L 0.75 0.953125 L 1.46875 0.328125 L 2.6875 1.328125 C 2.832031 1.242188 3.1875 0.992188 3.75 0.578125 C 4.3125 0.171875 4.945312 -0.304688 5.65625 -0.859375 L 9.34375 -3.765625 C 10.132812 -4.378906 10.789062 -4.910156 11.3125 -5.359375 C 11.832031 -5.804688 12.117188 -6.066406 12.171875 -6.140625 L 11.5 -7.5625 Z M 13.546875 -4.3125 C 13.421875 -4.207031 13.253906 -4.078125 13.046875 -3.921875 C 12.835938 -3.773438 12.546875 -3.554688 12.171875 -3.265625 C 11.796875 -2.984375 11.289062 -2.59375 10.65625 -2.09375 L 6.96875 0.8125 C 6.570312 1.125 6.203125 1.421875 5.859375 1.703125 C 5.515625 1.984375 5.210938 2.238281 4.953125 2.46875 C 4.703125 2.707031 4.488281 2.90625 4.3125 3.0625 C 4.601562 3.507812 4.859375 3.910156 5.078125 4.265625 C 5.304688 4.628906 5.546875 4.972656 5.796875 5.296875 C 6.890625 6.671875 8.085938 7.429688 9.390625 7.578125 C 10.691406 7.722656 12.039062 7.242188 13.4375 6.140625 C 14.289062 5.472656 14.960938 4.773438 15.453125 4.046875 C 15.941406 3.328125 16.25 2.582031 16.375 1.8125 C 16.5 1.039062 16.441406 0.269531 16.203125 -0.5 C 15.972656 -1.28125 15.546875 -2.0625 14.921875 -2.84375 C 14.734375 -3.082031 14.523438 -3.320312 14.296875 -3.5625 C 14.078125 -3.8125 13.828125 -4.0625 13.546875 -4.3125 Z M 13.546875 -4.3125 "/></g></g></g><g fill="#000000" fill-opacity="1"><g transform="translate(325.343099, 115.96692)"><g><path d="M 5.4375 10.859375 C 5.257812 10.398438 5.09375 10 4.9375 9.65625 C 4.78125 9.320312 4.625 9.007812 4.46875 8.71875 L 0.5625 1.078125 L 1.375 0.59375 L 2.390625 1.8125 C 2.460938 1.78125 2.640625 1.703125 2.921875 1.578125 C 3.203125 1.460938 3.570312 1.289062 4.03125 1.0625 C 4.5 0.832031 5.054688 0.550781 5.703125 0.21875 L 9.890625 -1.921875 C 10.554688 -2.265625 11.117188 -2.554688 11.578125 -2.796875 C 12.035156 -3.046875 12.390625 -3.242188 12.640625 -3.390625 C 12.898438 -3.546875 13.0625 -3.644531 13.125 -3.6875 L 12.734375 -5.234375 L 13.609375 -5.609375 L 17.265625 1.53125 C 17.367188 1.738281 17.476562 1.960938 17.59375 2.203125 C 17.71875 2.441406 17.859375 2.6875 18.015625 2.9375 C 18.171875 3.1875 18.332031 3.441406 18.5 3.703125 L 15.78125 5.65625 L 15.109375 4.734375 L 16.625 3.046875 C 16.582031 2.921875 16.523438 2.78125 16.453125 2.625 C 16.390625 2.46875 16.316406 2.304688 16.234375 2.140625 L 14.953125 -0.359375 C 14.804688 -0.640625 14.671875 -0.882812 14.546875 -1.09375 C 14.429688 -1.300781 14.3125 -1.503906 14.1875 -1.703125 C 14.113281 -1.671875 13.9375 -1.585938 13.65625 -1.453125 C 13.382812 -1.328125 13.066406 -1.175781 12.703125 -1 C 12.347656 -0.820312 11.992188 -0.640625 11.640625 -0.453125 L 5.640625 2.609375 C 5.347656 2.765625 5.050781 2.921875 4.75 3.078125 C 4.445312 3.242188 4.179688 3.390625 3.953125 3.515625 C 3.734375 3.640625 3.570312 3.734375 3.46875 3.796875 C 3.570312 4.015625 3.671875 4.238281 3.765625 4.46875 C 3.859375 4.695312 3.976562 4.957031 4.125 5.25 L 5.234375 7.40625 C 5.398438 7.726562 5.535156 7.988281 5.640625 8.1875 C 5.753906 8.394531 5.847656 8.550781 5.921875 8.65625 C 6.003906 8.769531 6.066406 8.859375 6.109375 8.921875 L 8.84375 9 L 9.125 10.09375 Z M 8.828125 5.984375 L 10.203125 4.953125 C 10.203125 4.859375 10.160156 4.71875 10.078125 4.53125 C 10.003906 4.351562 9.898438 4.140625 9.765625 3.890625 L 8.90625 2.203125 C 8.800781 2.003906 8.6875 1.789062 8.5625 1.5625 C 8.4375 1.34375 8.300781 1.117188 8.15625 0.890625 L 9.375 0.265625 C 9.476562 0.515625 9.582031 0.753906 9.6875 0.984375 C 9.800781 1.210938 9.910156 1.425781 10.015625 1.625 L 10.875 3.3125 C 11.007812 3.5625 11.125 3.773438 11.21875 3.953125 C 11.3125 4.128906 11.398438 4.242188 11.484375 4.296875 L 13.140625 3.78125 L 13.640625 4.734375 L 9.328125 6.9375 Z M 8.828125 5.984375 "/></g></g></g><g fill="#000000" fill-opacity="1"><g transform="translate(337.523857, 143.258108)"><g/></g></g><g clip-path="url(#id3)"><path fill="#bd9d60" d="M 137.429688 100.492188 C 138.457031 99.804688 139.351562 98.601562 140.738281 98.945312 C 140.03125 100.496094 138.429688 101.351562 137.628906 102.828125 C 133.566406 113.449219 126.042969 113.773438 125.648438 118.738281 C 128.742188 116.945312 131.601562 114.746094 134.789062 113.082031 C 135.816406 112.605469 136.660156 111.832031 137.300781 110.90625 C 144.5 101.164062 156.328125 99.15625 168.117188 102.023438 C 168.765625 102.097656 168.960938 102.671875 169.113281 103.214844 C 167.285156 103.472656 165.425781 103.382812 163.601562 103.652344 C 156.292969 105.800781 154.328125 115.441406 142.496094 113.539062 C 140.839844 113.589844 139.214844 113.113281 137.570312 113.136719 C 134.011719 114.886719 126.832031 119.386719 125.160156 121.132812 C 126.347656 121.769531 127.722656 121.578125 129.015625 121.511719 C 131.039062 121.265625 132.652344 119.957031 134.417969 119.066406 C 140.253906 116.03125 140.636719 116.824219 148.453125 117.792969 C 151.261719 118.359375 154.132812 117.878906 156.960938 118.023438 C 156.910156 118.195312 156.800781 118.546875 156.75 118.726562 C 155.15625 119.285156 153.457031 119.359375 151.804688 119.628906 C 148.5 120.859375 145.671875 123.238281 142.214844 124.078125 C 135.457031 124.226562 128.738281 123.183594 121.988281 123.425781 C 117.410156 127.152344 113.007812 131.132812 109.230469 135.6875 C 112.003906 137.453125 116.882812 132.0625 119.128906 130.648438 C 121.0625 129.222656 123.476562 128.640625 125.847656 128.59375 C 137.882812 127.539062 131.425781 128.386719 138.878906 126.773438 C 138.871094 127.007812 138.863281 127.472656 138.859375 127.707031 C 137.390625 128.414062 135.777344 128.746094 134.304688 129.433594 C 131.589844 130.914062 127.683594 135.386719 125.027344 135.726562 C 105.242188 138.769531 107.585938 137.792969 106.375 139.117188 C 102.539062 143.820312 97.714844 151.308594 97.183594 153.15625 C 101.144531 153.09375 103.75 146.230469 107.59375 144.265625 C 112.40625 141.582031 114.5625 143.035156 123.878906 138.460938 C 123.90625 138.6875 123.960938 139.140625 123.984375 139.367188 C 122.539062 140.699219 120.484375 141.179688 119.144531 142.652344 C 116.023438 146.070312 114.539062 148.941406 111.734375 150.050781 C 94.378906 156.328125 95.695312 155.40625 94.835938 157.335938 C 92.597656 162.273438 90.40625 167.292969 89.160156 172.578125 C 92.171875 172.6875 93.796875 165.585938 97.183594 162.125 C 100.710938 159.082031 105.417969 158.027344 109.183594 155.355469 C 110.316406 154.570312 111.386719 153.699219 112.527344 152.921875 C 112.554688 153.382812 112.777344 153.933594 112.351562 154.292969 C 111.253906 155.554688 109.6875 156.351562 108.742188 157.765625 C 106.863281 160.59375 105.855469 164.0625 103.296875 166.40625 C 98.523438 169.476562 89.199219 175.007812 88.066406 176.371094 C 86.921875 181.046875 86.285156 185.824219 85.691406 190.597656 C 88.019531 190.308594 88.332031 183.585938 91.332031 179.585938 C 94.214844 176.347656 98.339844 174.625 101.511719 171.714844 C 102.316406 170.976562 102.371094 169.671875 103.394531 169.125 C 103.515625 170.75 102.207031 171.957031 101.90625 173.484375 C 99.765625 183.566406 97.605469 182.816406 88.476562 191.597656 C 87.535156 192.53125 86.386719 193.261719 85.621094 194.359375 C 85.363281 197.433594 85.484375 206.875 86.296875 210.480469 L 86.875 210.480469 C 87.558594 209.3125 88.15625 208.011719 88.125 206.628906 C 88.175781 196.878906 90.039062 197.960938 97.179688 190.03125 C 98.253906 189.097656 98.589844 187.679688 98.914062 186.359375 C 99.066406 186.3125 99.363281 186.214844 99.515625 186.167969 C 99.710938 187.746094 98.734375 189.121094 98.738281 190.675781 C 98.21875 200.890625 96.988281 196.960938 86.757812 213.375 C 87.375 218.636719 88.839844 223.796875 90.472656 228.839844 C 90.578125 229.488281 91.636719 229.125 91.609375 228.570312 C 92.175781 225.863281 91.527344 223.121094 91.273438 220.421875 C 91.1875 219.476562 90.71875 218.515625 91.09375 217.574219 C 92.328125 213.109375 95.746094 209.734375 97.613281 205.574219 C 98.089844 204.664062 97.460938 203.21875 98.4375 202.65625 C 99.855469 220.699219 100.054688 209.511719 92.304688 230.851562 C 92.140625 231.4375 91.789062 232.054688 91.957031 232.675781 C 93.757812 237.6875 96.304688 242.386719 98.890625 247.027344 C 99.03125 247.070312 99.3125 247.160156 99.449219 247.203125 C 99.59375 245.640625 99.757812 243.976562 99.085938 242.511719 C 95.164062 233.4375 97.578125 233.609375 100.910156 222.691406 C 101.261719 221.363281 100.738281 219.992188 101.058594 218.660156 C 101.5625 219.40625 101.964844 220.246094 101.980469 221.164062 C 102.191406 224.265625 105.886719 231.070312 104.125 235.183594 C 102.425781 239.796875 101.605469 244.660156 100.496094 249.429688 C 104.347656 255.613281 110.328125 262.816406 111.902344 263.875 C 112.296875 259.925781 107.191406 255.375 107.050781 251.179688 C 107.144531 247.246094 108.230469 243.410156 108.464844 239.488281 C 108.628906 238.242188 107.972656 237.125 107.835938 235.917969 C 109.476562 236.675781 109.285156 238.886719 110.167969 240.253906 C 115.902344 248.777344 114.4375 255.617188 113.601562 264.507812 C 113.609375 265 113.3125 265.636719 113.789062 266.007812 C 115.238281 267.449219 124.847656 276.597656 126.773438 276.546875 C 126.820312 273.183594 122.042969 269.128906 119.984375 266.238281 C 117.929688 262.382812 118.898438 257.882812 118.285156 253.738281 C 118.199219 252.394531 117.054688 251.410156 117 250.0625 C 118.5625 251.191406 119.015625 253.199219 120.398438 254.496094 C 123.015625 257.085938 124.835938 260.359375 126.292969 263.710938 C 127.207031 266.628906 127.316406 269.710938 127.796875 272.714844 C 128.210938 279.253906 128.558594 278.09375 130.417969 279.523438 C 134.316406 281.949219 138.292969 284.308594 142.507812 286.140625 C 142.390625 285.679688 142.480469 285.125 142.144531 284.757812 C 140.160156 282.417969 137.21875 281.222656 134.976562 279.191406 C 132.273438 275.496094 130.921875 266.925781 129.804688 264.242188 C 129.300781 263.335938 128.511719 262.628906 128.003906 261.71875 C 129.3125 261.828125 129.972656 263.0625 130.789062 263.917969 C 131.746094 265.066406 136.628906 267.964844 139.363281 272.996094 C 141.871094 278.585938 143.742188 286.902344 145.898438 287.75 C 151.019531 289.921875 156.3125 291.710938 161.71875 293.039062 C 161.769531 292.824219 161.878906 292.390625 161.933594 292.179688 C 160.570312 290.015625 156.300781 288.699219 152.386719 286.492188 C 148.089844 284.089844 148.371094 279.890625 145.253906 275.316406 C 144.382812 273.898438 142.429688 273.445312 141.894531 271.773438 C 143.824219 272.042969 145.214844 273.53125 146.867188 274.417969 C 148.722656 275.5625 150.839844 276.234375 152.617188 277.5 C 158.222656 282.0625 160.523438 289.476562 166.195312 293.960938 C 168.492188 294.542969 177.691406 295.964844 179.34375 295.671875 C 179.308594 292.941406 173.371094 293.003906 169.046875 290.425781 C 165.304688 287.941406 164.558594 282.667969 160.464844 280.585938 C 159.839844 280.238281 159.285156 279.769531 158.914062 279.160156 C 160.695312 279.304688 162.300781 280.21875 164.011719 280.6875 C 166.441406 281.597656 169.183594 281.707031 171.382812 283.175781 C 176.253906 286.433594 178.488281 292.28125 183.171875 295.746094 C 183.960938 296.121094 184.898438 295.910156 185.75 295.980469 C 186.773438 295.894531 187.964844 296.203125 188.835938 295.511719 C 190.390625 294.503906 191.328125 292.859375 192.621094 291.574219 C 201.484375 280.160156 201.101562 283.050781 207.570312 280.710938 C 209.269531 280.148438 210.921875 279.34375 212.71875 279.160156 C 212.039062 280.484375 210.398438 280.773438 209.402344 281.789062 C 206.886719 284.3125 205.820312 287.992188 202.929688 290.191406 C 200.132812 292.136719 196.589844 292.402344 193.589844 293.902344 C 192.898438 294.171875 192.539062 294.832031 192.144531 295.414062 C 192.953125 296.058594 193.972656 295.578125 194.898438 295.574219 C 206.628906 294.160156 205.277344 294.183594 206.855469 292.707031 C 211.152344 288.492188 213.566406 282.789062 217.816406 278.535156 C 219.722656 276.605469 222.40625 275.863281 224.667969 274.472656 C 226.304688 273.53125 227.761719 272.253906 229.589844 271.675781 C 229.582031 271.902344 229.558594 272.355469 229.546875 272.582031 C 228.167969 273.671875 226.636719 274.710938 225.792969 276.304688 C 224.285156 278.699219 223.644531 281.53125 222.085938 283.898438 C 219.472656 288.089844 210.394531 289.226562 209.566406 292.757812 C 212.625 293.027344 223.390625 288.785156 226.386719 287.464844 C 230.867188 281.175781 229.265625 272.003906 239.886719 264.886719 C 241.285156 263.992188 241.796875 261.925781 243.597656 261.703125 C 243.105469 262.867188 241.910156 263.609375 241.601562 264.859375 C 239.230469 273.753906 238.554688 276.414062 236.785156 279.089844 C 234.609375 281.082031 231.765625 282.253906 229.765625 284.457031 C 229.378906 284.882812 229.277344 285.46875 229.128906 286.003906 C 233.414062 284.507812 242.3125 279.101562 243.175781 277.964844 C 243.6875 276.285156 243.996094 269.933594 244.886719 265.515625 C 245.484375 262.636719 247.089844 260.105469 248.65625 257.65625 C 249.792969 255.773438 251.683594 254.472656 252.71875 252.519531 C 253.175781 251.621094 253.738281 250.765625 254.507812 250.105469 C 254.570312 250.277344 254.6875 250.621094 254.75 250.792969 C 251.972656 254.382812 254.191406 256.117188 252.574219 263.792969 C 252.324219 265.191406 251.707031 266.519531 250.714844 267.546875 C 244.84375 273.953125 245.117188 274.539062 244.976562 276.597656 C 247.355469 275.855469 255.117188 268.851562 258.226562 265.667969 C 257.746094 263.550781 257.898438 261.371094 257.535156 259.238281 C 257.085938 252.878906 256.519531 250.933594 259.628906 243.523438 C 260.332031 241.707031 261.777344 240.261719 262.28125 238.359375 C 262.675781 237.472656 262.691406 236.082031 263.882812 235.898438 C 261.683594 240.90625 265.902344 248.914062 264.167969 253.464844 C 262.75 256.890625 259.929688 259.835938 259.683594 263.671875 C 261.570312 263.035156 268.515625 253.628906 270.988281 249.71875 C 271.09375 247.433594 268.820312 239.558594 268.617188 238.566406 C 267.59375 233.773438 266.226562 235.417969 267.691406 228.191406 C 268.355469 224.910156 269.070312 225.90625 269.996094 219.246094 C 270.175781 219.183594 270.53125 219.058594 270.707031 219 C 270.710938 220.167969 270.382812 221.347656 270.664062 222.503906 C 271.859375 226.351562 273.6875 230.011719 274.46875 233.984375 C 275.042969 237.441406 273.230469 240.609375 272.113281 243.746094 C 272.042969 244.921875 271.769531 246.292969 272.511719 247.304688 C 275.320312 242.773438 277.65625 237.960938 279.625 233.011719 C 280.058594 232.234375 279.519531 231.417969 279.308594 230.671875 C 277.59375 226.226562 275.972656 221.726562 273.742188 217.511719 C 270.964844 213.183594 273.472656 209.246094 273.089844 202.925781 C 273.269531 202.902344 273.628906 202.84375 273.804688 202.816406 C 273.828125 203.601562 273.796875 204.390625 273.910156 205.167969 C 275.710938 209.789062 279.785156 213.347656 280.664062 218.347656 C 280.390625 220.859375 278.640625 230.152344 281.097656 229.101562 C 281.710938 227.246094 285.75 214.34375 284.554688 212.796875 C 274.679688 197.453125 274.292969 200.433594 273.277344 194.726562 C 272.90625 193.117188 273.203125 191.441406 272.804688 189.835938 C 272.574219 188.5625 271.851562 187.199219 272.527344 185.949219 C 273.027344 187.246094 273.191406 188.742188 274.199219 189.785156 C 276.222656 192.003906 278.5 193.984375 280.515625 196.210938 C 285.785156 202.65625 281.984375 205.863281 284.609375 210.144531 C 284.765625 210.53125 285.035156 210.636719 285.421875 210.449219 C 285.941406 207.988281 286.460938 198.9375 286.046875 194.324219 C 274.785156 182.789062 272.339844 185.085938 269.816406 173.722656 C 269.441406 172.125 268.292969 170.785156 268.242188 169.101562 C 269.324219 169.792969 269.421875 171.226562 270.4375 171.988281 C 273.703125 174.875 277.980469 176.597656 280.6875 180.121094 C 283.375 184.234375 283.574219 189.980469 285.78125 190.261719 C 285.792969 185.894531 283.65625 176.609375 283.621094 176.269531 C 278.644531 172.605469 273.222656 169.613281 268.085938 166.191406 C 265.664062 163.714844 264.667969 160.246094 262.667969 157.464844 C 261.460938 156.105469 259.902344 155.085938 258.808594 153.617188 C 259.007812 153.417969 259.210938 153.21875 259.414062 153.019531 C 267.519531 159.722656 273.246094 158.9375 276.359375 164.640625 C 277.554688 166.320312 280.210938 173.039062 282.507812 172.550781 C 281.035156 166.84375 278.820312 161.308594 276.097656 156.082031 C 271.34375 153.886719 266.277344 152.417969 261.371094 150.578125 C 260.164062 150.097656 258.773438 149.84375 257.859375 148.847656 C 255.855469 146.816406 254.199219 144.480469 252.242188 142.410156 C 251.035156 141.15625 249.277344 140.703125 247.929688 139.648438 C 247.519531 139.398438 247.621094 138.851562 247.519531 138.460938 C 249.597656 139.058594 251.34375 140.480469 253.472656 140.953125 C 256.957031 142.082031 260.726562 142.417969 263.984375 144.199219 C 268.386719 146.597656 270.226562 152.921875 274.464844 153.125 C 272.097656 148.121094 268.753906 143.621094 265.410156 139.222656 C 264.523438 137.644531 257.898438 137.566406 246.488281 135.703125 C 244.332031 135.34375 240.667969 131.84375 238.398438 130.066406 C 236.933594 128.921875 235.019531 128.75 233.382812 127.964844 C 232.890625 127.785156 232.722656 127.253906 232.527344 126.828125 C 234.667969 126.941406 236.644531 127.984375 238.792969 128.027344 C 241.832031 128.429688 244.917969 128.417969 247.960938 128.78125 C 254.351562 129.648438 256.046875 136.097656 262.183594 136.085938 C 262.191406 135.214844 261.535156 134.625 261.015625 134.023438 C 257.371094 130.292969 253.742188 126.488281 249.535156 123.390625 C 242.515625 123.28125 230.429688 124.605469 228.664062 123.898438 C 226.15625 123.003906 223.890625 121.585938 221.53125 120.371094 C 219.570312 119.101562 217.109375 119.546875 214.960938 118.796875 C 214.9375 118.582031 214.894531 118.140625 214.867188 117.921875 C 226.609375 118.382812 227.589844 116.382812 232.390625 117.074219 C 238.320312 118.457031 241.027344 123.117188 246.386719 121.160156 C 244.386719 118.960938 236.890625 114.585938 234.273438 113.164062 C 232.578125 112.875 225.914062 114.878906 220.507812 112.542969 C 216.308594 110.570312 213.761719 106.339844 209.648438 104.253906 C 207.40625 103.039062 204.773438 103.816406 202.402344 103.101562 C 203.589844 101.320312 206.050781 101.726562 207.878906 101.199219 C 230.65625 99.515625 232.578125 110.792969 236.292969 112.753906 C 239.042969 114.339844 241.78125 115.960938 244.378906 117.792969 C 244.890625 118.167969 245.449219 118.472656 246.050781 118.691406 C 245.367188 113.90625 238.148438 112.914062 234.519531 103.96875 C 233.253906 100.742188 231.214844 100.625 231.089844 98.859375 C 232.4375 98.757812 233.3125 99.886719 234.332031 100.566406 C 236.0625 101.96875 238.347656 102.359375 240.167969 103.617188 C 245.6875 106.960938 246.914062 116.195312 248.398438 120.503906 C 249.542969 121.945312 251.3125 122.730469 252.578125 124.0625 C 254.894531 125.980469 257.015625 128.113281 259.203125 130.175781 C 260.148438 131.160156 260.996094 132.265625 262.125 133.054688 C 262.285156 127.300781 254.210938 123.757812 253.277344 117.164062 C 252.984375 114.785156 252.585938 112.082031 250.535156 110.53125 C 249.386719 109.34375 247.472656 108.742188 246.992188 107.039062 C 248.621094 106.652344 249.605469 108.074219 250.617188 109.054688 C 253.003906 111.53125 256.089844 113.199219 258.503906 115.652344 C 264.671875 122.234375 263.269531 130.980469 264.007812 135.300781 C 266.960938 138.972656 269.894531 142.671875 272.386719 146.679688 C 272.9375 147.480469 273.292969 148.496094 274.234375 148.9375 C 274.5 144.164062 269.195312 140.539062 269.195312 133.128906 C 269.203125 130.824219 269.203125 128.476562 268.414062 126.28125 C 267.507812 123.820312 264.285156 121.839844 264.105469 120.191406 C 264.507812 120.167969 264.910156 120.148438 265.316406 120.136719 C 266.3125 121.171875 267.199219 122.304688 268.015625 123.484375 C 270.679688 126.863281 274.609375 129.5 275.832031 133.824219 C 276.964844 138.960938 275.429688 144.183594 275.628906 149.363281 C 275.273438 153.257812 277.765625 154.277344 282.589844 167.777344 C 282.773438 167.824219 283.136719 167.910156 283.324219 167.957031 C 283.609375 162.679688 279.75 158.554688 281.59375 151.539062 C 281.9375 149.4375 282.488281 147.308594 282.183594 145.167969 C 281.46875 142.261719 279.253906 140.046875 278.320312 137.234375 C 278.742188 137.230469 279.359375 136.886719 279.671875 137.332031 C 281.601562 139.65625 282.742188 142.488281 284.339844 145.027344 C 285.988281 148.015625 287.789062 151.15625 287.828125 154.664062 C 287.609375 160.292969 285.542969 165.597656 284.257812 171.023438 C 283.625 173.632812 285.757812 176.261719 286.722656 186.125 C 286.929688 186.179688 287.347656 186.28125 287.5625 186.335938 C 287.902344 182.707031 286.664062 179.070312 287.460938 175.457031 C 288.121094 172.089844 290.425781 169.324219 291.128906 165.964844 C 291.601562 162.773438 289.515625 159.988281 289.25 156.878906 C 289.496094 156.882812 289.992188 156.886719 290.234375 156.890625 C 291.117188 158.140625 295.378906 169.359375 294.261719 175.71875 C 292.410156 181.949219 288.003906 187.859375 287.300781 190.703125 C 287.933594 196.648438 287.613281 202.644531 287.109375 208.582031 C 289.929688 208.320312 287.96875 199.328125 292.503906 193.257812 C 298.644531 184.683594 295.449219 184.398438 296.0625 178.03125 C 296.292969 178.054688 296.75 178.09375 296.980469 178.117188 C 297.855469 180.773438 297.765625 183.617188 297.976562 186.375 C 298.4375 188.746094 298.308594 191.164062 298.320312 193.566406 C 298.496094 197.882812 294.257812 202.667969 291.054688 206.695312 C 287.296875 211.535156 286.617188 210.480469 286.195312 214.742188 C 285.578125 218.742188 284.390625 222.617188 283.511719 226.554688 C 285.34375 226.203125 285.738281 220.355469 288.378906 216.714844 C 290.125 213.652344 294.855469 212.082031 296.082031 207.761719 C 296.570312 205.96875 296.710938 204.085938 297.320312 202.320312 C 297.597656 201.796875 298.445312 202.261719 298.308594 202.804688 C 297.992188 205.957031 297.003906 209.015625 296.75 212.179688 C 294.929688 219.480469 295.34375 218.808594 290.917969 222.765625 C 288.496094 224.988281 285.828125 226.917969 283.214844 228.914062 C 282.128906 229.652344 281.875 231.023438 281.421875 232.167969 C 280.121094 235.980469 278.128906 239.511719 276.589844 243.21875 C 279.710938 243.03125 280.15625 233.679688 286.984375 231.707031 C 294.910156 229.140625 292.804688 224.832031 295.292969 223.539062 C 295.480469 224.339844 295.378906 225.164062 295.0625 225.917969 C 288.546875 241.953125 286.882812 239.085938 275.277344 245.394531 C 274.8125 245.988281 270.785156 253.519531 264.667969 260.578125 C 264.574219 260.816406 264.386719 261.285156 264.292969 261.519531 C 268.96875 260.097656 269.433594 254.285156 275.226562 251.769531 C 277.464844 250.894531 279.960938 250.625 281.992188 249.273438 C 285.664062 246.804688 284.15625 247.378906 287.515625 242.75 C 287.746094 242.753906 288.203125 242.769531 288.433594 242.777344 C 288.59375 245.015625 286.863281 246.703125 285.878906 248.558594 C 279.128906 259.132812 280.273438 257.152344 263.910156 263.320312 C 262.914062 263.71875 261.785156 263.921875 261.019531 264.734375 C 251.921875 274.335938 249.632812 274.179688 249.292969 276.054688 C 254.613281 274.964844 257.011719 268.996094 262.265625 267.808594 C 265.003906 267.128906 267.988281 268.21875 270.617188 266.945312 C 272.054688 266.070312 273.144531 264.75 274.484375 263.75 C 275.167969 263.320312 275.5 264.445312 275.109375 264.882812 C 273.859375 266.90625 266.742188 273.792969 262.957031 275.445312 C 259.035156 277.296875 247.324219 276.890625 245.902344 277.929688 C 242.085938 280.679688 238.082031 283.191406 233.878906 285.308594 C 233.21875 285.652344 232.507812 285.960938 232.117188 286.632812 C 233.15625 286.667969 234.230469 286.753906 235.246094 286.453125 C 238.613281 285.597656 240.742188 282.21875 244.257812 281.734375 C 247.125 281.539062 250.039062 282.070312 252.878906 281.464844 C 257.445312 280.589844 255.136719 281.484375 260.476562 278.117188 C 260.652344 278.226562 260.996094 278.445312 261.167969 278.558594 C 260.558594 280.417969 258.691406 281.386719 257.195312 282.460938 C 253.285156 285.164062 249.210938 288.382812 244.238281 288.554688 C 229.0625 287.707031 229.386719 287.414062 227.929688 288.242188 C 224.445312 289.832031 220.851562 291.175781 217.210938 292.351562 C 216.105469 292.714844 214.964844 292.988281 213.925781 293.515625 C 217.007812 295.683594 221.753906 292.410156 224.722656 291.441406 C 226.542969 290.878906 228.316406 291.828125 230.0625 292.242188 C 232.542969 292.949219 235.152344 292.730469 237.699219 292.683594 C 240.046875 292.761719 241.878906 291.066406 244.070312 290.53125 C 244.195312 290.671875 244.441406 290.953125 244.5625 291.097656 C 243.167969 292.667969 241.136719 293.445312 239.226562 294.199219 C 234.6875 295.953125 230.0625 298.003906 225.089844 297.945312 C 215.554688 296.769531 213.015625 294.773438 210.933594 294.183594 C 197.785156 297.578125 196.078125 295.894531 194.632812 297.460938 C 196.066406 297.910156 197.566406 298.554688 199.09375 298.128906 C 201.417969 297.800781 203.832031 296.828125 206.152344 297.664062 C 207.414062 298.070312 208.441406 298.960938 209.652344 299.480469 C 212.238281 300.726562 217.183594 301.589844 223.164062 300.402344 C 223.269531 300.566406 223.484375 300.898438 223.589844 301.066406 C 221.964844 302.433594 219.710938 302.429688 217.714844 302.757812 C 204.03125 305.234375 203.71875 303.972656 199.027344 301.828125 C 196.460938 300.582031 193.996094 299.117188 191.753906 297.355469 C 190.816406 297.210938 189.867188 297.3125 188.933594 297.359375 C 189.703125 298.4375 191.035156 298.886719 192.042969 299.710938 C 202.675781 307.707031 202.417969 312.8125 212.128906 312.875 C 207.632812 314.425781 202.816406 315.210938 198.058594 314.949219 C 195.429688 302.617188 188.054688 297.351562 185.441406 297.667969 C 179.023438 299.597656 175.113281 308.226562 173.539062 315.007812 C 168.761719 315.117188 163.929688 314.472656 159.433594 312.84375 C 169.542969 312.683594 169.429688 307.164062 180.152344 299.320312 C 180.945312 298.683594 182.074219 298.359375 182.484375 297.351562 C 181.4375 297.398438 180.203125 296.933594 179.347656 297.742188 C 176.742188 299.746094 173.828125 301.328125 170.835938 302.679688 C 166.308594 305.136719 160.957031 303.960938 156.144531 303.183594 C 153.613281 302.433594 150.808594 302.746094 148.445312 301.445312 C 148.34375 301.101562 148.261719 300.753906 148.207031 300.40625 C 150.214844 300.566406 152.183594 301.242188 154.214844 301.054688 C 156.367188 300.761719 158.582031 300.785156 160.652344 300.046875 C 162.992188 299.386719 164.816406 297.367188 167.339844 297.28125 C 169.378906 297.378906 171.34375 298.011719 173.359375 298.257812 C 174.539062 298.40625 175.648438 297.921875 176.75 297.589844 C 176.769531 297.4375 176.804688 297.128906 176.824219 296.976562 C 171.378906 296.363281 165.945312 295.53125 160.628906 294.160156 C 156.398438 296.203125 151.761719 297.242188 147.128906 297.902344 C 141.730469 298.167969 136.71875 295.804688 131.769531 293.988281 C 130.296875 293.320312 128.710938 292.726562 127.578125 291.53125 C 127.140625 291.167969 127.296875 290.246094 128 290.675781 C 131.574219 291.933594 131.144531 293.207031 140.003906 292.617188 C 142.421875 292.378906 144.746094 290.707031 147.210938 291.546875 C 151.078125 292.664062 152.164062 294.898438 157.066406 293.980469 C 157.175781 293.800781 157.394531 293.4375 157.503906 293.257812 C 152.753906 291.960938 148.101562 290.261719 143.632812 288.191406 C 142.335938 287.457031 140.824219 287.777344 139.414062 287.832031 C 136.195312 288.226562 132.9375 288 129.726562 288.433594 C 127.695312 288.6875 125.621094 288.511719 123.667969 287.902344 C 119.71875 286.53125 112.09375 281.03125 110.84375 279.570312 C 110.632812 279.132812 110.582031 278.101562 111.300781 278.1875 C 113.527344 279.554688 115.175781 282.375 125.867188 281.691406 C 131.339844 281.183594 133.640625 287.671875 139.535156 286.589844 C 139.195312 286.195312 138.792969 285.878906 138.332031 285.660156 C 133.949219 283.332031 129.675781 280.78125 125.644531 277.894531 C 122.976562 277.078125 120.097656 277.324219 117.351562 276.855469 C 110.34375 276.421875 108.046875 276.226562 102.273438 270.804688 C 100.207031 268.808594 97.824219 267.066406 96.324219 264.566406 C 96.417969 264.304688 96.597656 263.785156 96.691406 263.523438 C 98.414062 264.398438 99.484375 266.132812 101.183594 267.039062 C 104.125 268.273438 107.445312 266.921875 110.402344 268.109375 C 115.058594 269.742188 117.386719 275.257812 122.492188 275.945312 C 122.226562 275.449219 121.886719 275 121.4375 274.664062 C 117.644531 271.640625 114.0625 268.355469 110.757812 264.808594 C 109.394531 263.148438 95.367188 259.9375 91.742188 256.550781 C 88.539062 253.496094 86.363281 249.589844 84.125 245.828125 C 83.542969 244.761719 82.601562 243.386719 83.734375 242.351562 C 86.3125 245.050781 85.8125 247.15625 90.230469 249.625 C 92.578125 250.945312 95.402344 251.039062 97.714844 252.429688 C 101.835938 254.699219 103.574219 260.945312 107.691406 261.589844 C 106.847656 260.214844 105.675781 259.089844 104.683594 257.824219 C 90.839844 239.523438 103.03125 249.554688 85.589844 240.058594 C 82.324219 238.230469 80.199219 233.765625 77.929688 229.054688 C 77.1875 227.28125 75.960938 225.535156 76.449219 223.515625 C 78.207031 224.953125 78.167969 227.640625 79.945312 229.101562 C 81.949219 231.359375 85.261719 231.367188 87.566406 233.183594 C 91.488281 236.117188 92.128906 242.386719 95.136719 243.519531 C 95.027344 243.003906 94.894531 242.492188 94.632812 242.035156 C 89.1875 231.21875 89.964844 229.894531 88.730469 229.152344 C 76.296875 219.875 76.269531 218.90625 75.058594 212.878906 C 74.183594 206.308594 73.101562 204.203125 73.488281 202.128906 C 73.707031 202.125 74.136719 202.117188 74.355469 202.109375 C 75.117188 204.832031 75.035156 207.914062 76.871094 210.222656 C 78.726562 212.855469 81.84375 214.269531 83.546875 217.023438 C 86.429688 221.664062 86.140625 226.046875 88.136719 226.277344 C 87.003906 221.894531 85.734375 217.523438 85.207031 213.015625 C 85.007812 210.554688 79.652344 206.863281 74.59375 198.425781 C 72.679688 194.773438 73.296875 190.511719 73.648438 186.574219 C 74.15625 183.769531 73.515625 180.738281 74.769531 178.089844 C 75.003906 178.082031 75.476562 178.078125 75.710938 178.074219 C 75.898438 180.644531 75.183594 183.183594 75.382812 185.753906 C 76.574219 191.949219 81.140625 193.050781 82.171875 201.304688 C 82.640625 204.140625 82.746094 208.234375 84.527344 208.246094 C 84.261719 203.46875 83.664062 198.675781 84.140625 193.882812 C 84.113281 192.328125 84.722656 190.609375 83.84375 189.191406 C 77.574219 177.324219 75.417969 175.277344 78.558594 165.011719 C 79.328125 162.519531 79.816406 159.914062 81.035156 157.585938 C 81.296875 157.0625 81.84375 156.804688 82.304688 156.488281 C 82.507812 159.398438 80.4375 161.976562 80.429688 164.878906 C 80.730469 168.761719 83.53125 171.832031 84.234375 175.597656 C 84.875 182.917969 83.164062 184.417969 84.421875 186.460938 C 85.464844 185.179688 84.449219 184.980469 87.304688 173.6875 C 87.859375 171 86.652344 168.433594 85.980469 165.890625 C 82.804688 152.878906 82.710938 153.226562 88.8125 142.425781 C 89.878906 140.675781 90.664062 138.726562 92.089844 137.21875 C 92.46875 137.121094 92.855469 137.0625 93.25 137.042969 C 92.625 140.257812 89.664062 142.550781 89.398438 145.882812 C 89.230469 149.5625 90.933594 153.105469 90.429688 156.796875 C 90.296875 160.644531 88.011719 164.136719 88.445312 168.042969 C 88.613281 168.019531 88.949219 167.96875 89.117188 167.945312 C 90.578125 162.964844 92.878906 158.269531 95.148438 153.621094 C 96.84375 150.222656 95.433594 142.476562 95.503906 139.464844 C 95.625 133.867188 94.449219 132.886719 102.097656 125.304688 C 103.644531 123.761719 104.632812 121.746094 106.285156 120.300781 C 106.652344 120.183594 107.027344 120.09375 107.414062 120.046875 C 107.316406 120.589844 107.382812 121.238281 106.90625 121.628906 C 102.132812 126.707031 102.945312 126.007812 102.386719 133.476562 C 102.613281 139.710938 97.320312 144.375 97.390625 148.804688 C 98.871094 148.480469 97.527344 147.980469 107.550781 135.449219 C 108.308594 132.429688 107.304688 125.167969 110.75 118.710938 C 112.449219 115.789062 115.25 113.757812 117.898438 111.75 C 119.695312 110.511719 121.074219 108.789062 122.769531 107.433594 C 123.199219 107.035156 123.804688 107.011719 124.347656 106.882812 C 124.347656 107.140625 124.351562 107.660156 124.351562 107.921875 C 122.945312 109.246094 121.1875 110.199219 119.980469 111.726562 C 118.082031 114.347656 118.867188 117.882812 117.203125 120.59375 C 114.671875 125.109375 109.726562 128.171875 109.53125 132.917969 C 110.675781 132.269531 111.457031 131.171875 112.378906 130.257812 C 114.222656 128.445312 116.039062 126.59375 118.046875 124.949219 C 119.601562 123.414062 121.519531 122.296875 123.035156 120.726562 C 124.769531 117.75 125.058594 106.890625 132.511719 103.023438 C 134.117188 102.113281 135.972656 101.667969 137.429688 100.492188 Z M 137.429688 100.492188 " fill-opacity="1" fill-rule="nonzero"/></g><path fill="#bd9d60" d="M 183.765625 126.15625 C 185.105469 126.050781 186.445312 126.085938 187.785156 126.171875 C 188.171875 129.808594 187.773438 133.492188 188.003906 137.140625 C 190.40625 134.753906 191.898438 131.558594 194.335938 129.199219 C 194.101562 155.429688 194.703125 155.515625 193.996094 156.558594 C 192.027344 159.285156 189.875 161.882812 188.015625 164.683594 C 187.875 166.429688 187.851562 168.226562 188.074219 169.96875 C 195.398438 163.332031 201.59375 165.402344 214.632812 163.867188 C 219.9375 163.027344 225.570312 161.875 229.730469 158.234375 C 231.113281 157.039062 231.734375 155.285156 232.148438 153.558594 C 233.746094 151.714844 236.898438 151.382812 238.742188 153.046875 C 240.054688 154.664062 239.964844 157.117188 238.761719 158.773438 C 237.871094 159.820312 236.515625 160.265625 235.375 160.972656 C 235.664062 161.722656 260.925781 218.375 262.609375 219.769531 C 246.582031 236.144531 220.617188 234.972656 206.230469 219.71875 C 207.933594 219.054688 205.542969 223.351562 232.0625 165.097656 C 232.566406 164.011719 233.09375 162.929688 233.441406 161.78125 C 219.125 165.230469 193.828125 166.894531 188.121094 180.042969 C 187.867188 180.644531 187.824219 260.382812 188.050781 262.453125 C 189.882812 261.46875 191.722656 260.492188 193.601562 259.605469 C 191.425781 265.015625 188.746094 270.214844 186.445312 275.578125 C 186.203125 275.890625 186.1875 276.789062 185.621094 276.425781 C 183.070312 270.800781 180.472656 265.203125 177.945312 259.566406 C 179.945312 260.378906 181.726562 261.644531 183.738281 262.441406 C 183.789062 249.957031 183.792969 185.535156 183.734375 180.480469 C 178.433594 166.808594 150.894531 164.921875 138.242188 161.777344 C 138.5 162.796875 136.960938 159.308594 163.765625 218.230469 C 164.003906 218.992188 164.59375 219.472656 165.292969 219.808594 C 150.65625 235.476562 123.910156 235.570312 109.164062 219.769531 C 110.546875 218.546875 135.4375 163.0625 136.246094 160.96875 C 135.140625 160.316406 133.910156 159.800781 132.980469 158.902344 C 129.800781 154.628906 134.199219 149.4375 139.347656 153.25 C 140.21875 155.125 139.621094 158.75 148.710938 161.980469 C 162.441406 166.6875 173.675781 161.921875 181.976562 168.714844 C 182.546875 169.164062 183.117188 169.613281 183.730469 170 C 183.773438 168.308594 183.804688 166.609375 183.757812 164.917969 C 181.867188 161.894531 179.464844 159.207031 177.488281 156.242188 C 177.34375 155.296875 177.425781 129.308594 177.425781 129.175781 C 180.535156 132.800781 182.363281 136.175781 183.726562 137.164062 C 183.84375 133.492188 183.734375 129.824219 183.765625 126.15625 M 184.90625 128.433594 C 185.0625 130.1875 184.554688 132.058594 185.242188 133.726562 C 186.894531 132.996094 186.699219 135.222656 186.667969 128.308594 C 186.082031 128.351562 185.492188 128.386719 184.90625 128.433594 M 188.457031 139.703125 C 187.597656 140.652344 187.894531 142.03125 187.78125 143.199219 C 187.960938 143.148438 188.316406 143.050781 188.496094 143 C 189.753906 141.507812 190.820312 139.84375 192.050781 138.316406 C 193.023438 137.210938 192.609375 135.644531 192.578125 134.3125 C 191.082031 136.011719 189.867188 137.933594 188.457031 139.703125 M 178.894531 134.574219 C 178.894531 135.5 178.851562 136.425781 178.914062 137.351562 C 179.808594 138.898438 181.03125 140.222656 182.058594 141.679688 C 182.542969 142.320312 182.886719 143.210938 183.8125 143.285156 C 183.769531 142.277344 183.949219 141.226562 183.65625 140.25 C 182.8125 138.964844 181.777344 137.824219 180.925781 136.542969 C 180.363281 135.785156 179.929688 134.761719 178.894531 134.574219 M 190.820312 142.796875 C 189.859375 144.195312 188.695312 145.453125 187.808594 146.902344 C 187.710938 147.726562 187.742188 148.558594 187.742188 149.390625 C 187.925781 149.308594 188.292969 149.152344 188.476562 149.074219 C 193.792969 141.816406 192.578125 144.34375 192.667969 140.757812 C 191.78125 141.152344 191.371094 142.0625 190.820312 142.796875 M 178.882812 140.839844 C 178.902344 141.652344 178.785156 142.492188 178.984375 143.292969 C 179.707031 144.558594 180.710938 145.628906 181.542969 146.820312 C 182.199219 147.730469 182.753906 148.777344 183.765625 149.347656 C 183.800781 148.527344 183.84375 147.703125 183.746094 146.886719 C 182.582031 144.847656 181.015625 143.085938 179.605469 141.21875 C 179.425781 141.125 179.066406 140.933594 178.882812 140.839844 M 178.917969 146.707031 C 178.875 147.589844 178.839844 148.476562 178.921875 149.355469 C 179.722656 150.574219 180.710938 151.664062 181.5 152.894531 C 182.109375 153.703125 182.628906 154.78125 183.746094 154.945312 C 183.726562 154.160156 183.878906 153.355469 183.710938 152.582031 C 180.03125 147.363281 179.734375 147.089844 178.917969 146.707031 M 190.203125 149.597656 C 189.488281 150.640625 188.660156 151.601562 187.960938 152.648438 C 187.886719 153.488281 187.925781 154.328125 187.949219 155.167969 C 188.34375 154.957031 188.769531 154.753906 189 154.34375 C 190.175781 152.644531 191.546875 151.085938 192.6875 149.371094 C 192.769531 148.441406 192.707031 147.503906 192.628906 146.578125 C 191.558594 147.355469 190.96875 148.558594 190.203125 149.597656 M 190.226562 155.613281 C 189.425781 156.726562 188.480469 157.734375 187.820312 158.941406 C 187.6875 159.691406 187.902344 160.445312 187.96875 161.191406 C 189.671875 160.050781 190.507812 158.011719 191.882812 156.523438 C 192.949219 155.539062 192.695312 154.054688 192.636719 152.757812 C 191.570312 153.460938 191.003906 154.644531 190.226562 155.613281 M 178.871094 152.960938 C 178.886719 153.746094 178.808594 154.539062 178.953125 155.320312 C 179.671875 156.5 180.59375 157.535156 181.351562 158.6875 C 182.085938 159.628906 182.664062 160.777344 183.769531 161.355469 C 183.589844 157.683594 184.949219 160.476562 180.214844 153.867188 C 179.910156 153.375 179.421875 153.082031 178.871094 152.960938 M 112.578125 216.011719 C 112.085938 217.148438 111.421875 218.234375 111.230469 219.476562 C 128.472656 219.539062 145.714844 219.515625 162.957031 219.488281 C 162.101562 217.039062 137.765625 163.546875 136.933594 162.628906 C 128.746094 180.390625 120.699219 198.21875 112.578125 216.011719 M 234.363281 162.824219 C 207.523438 221.8125 208.960938 218.339844 208.789062 219.496094 C 226.03125 219.523438 243.273438 219.519531 260.515625 219.492188 C 260.117188 218.066406 245.566406 186.449219 235.234375 163.667969 C 235.058594 163.257812 234.910156 162.761719 234.363281 162.824219 Z M 234.363281 162.824219 " fill-opacity="1" fill-rule="nonzero"/><g clip-path="url(#id4)"><path fill="#bd9d60" d="M 24.671875 135.457031 C 19.503906 135.457031 15.3125 139.648438 15.3125 144.816406 C 15.3125 149.984375 19.503906 154.175781 24.671875 154.175781 C 29.84375 154.175781 34.03125 149.984375 34.03125 144.816406 C 34.03125 139.648438 29.84375 135.457031 24.671875 135.457031 " fill-opacity="1" fill-rule="nonzero"/></g><g clip-path="url(#id5)"><path fill="#bd9d60" d="M 347.054688 135.457031 C 341.882812 135.457031 337.695312 139.648438 337.695312 144.816406 C 337.695312 149.984375 341.882812 154.175781 347.054688 154.175781 C 352.222656 154.175781 356.414062 149.984375 356.414062 144.816406 C 356.414062 139.648438 352.222656 135.457031 347.054688 135.457031 " fill-opacity="1" fill-rule="nonzero"/></g><g fill="#000000" fill-opacity="1"><g transform="translate(11.620666, 174.280533)"><g><path d="M -0.71875 7.703125 C -0.625 6.390625 -0.273438 5.238281 0.328125 4.25 C 0.941406 3.269531 1.742188 2.523438 2.734375 2.015625 C 3.722656 1.503906 4.835938 1.289062 6.078125 1.375 C 7.359375 1.46875 8.476562 1.835938 9.4375 2.484375 C 10.394531 3.128906 11.125 3.984375 11.625 5.046875 C 12.132812 6.109375 12.34375 7.300781 12.25 8.625 C 12.15625 9.894531 11.804688 10.992188 11.203125 11.921875 C 10.609375 12.859375 9.816406 13.578125 8.828125 14.078125 C 7.847656 14.578125 6.726562 14.78125 5.46875 14.6875 C 4.363281 14.613281 3.414062 14.34375 2.625 13.875 C 1.832031 13.40625 1.175781 12.828125 0.65625 12.140625 C 0.132812 11.453125 -0.234375 10.71875 -0.453125 9.9375 C -0.679688 9.164062 -0.769531 8.421875 -0.71875 7.703125 Z M 0.875 7.984375 C 0.832031 8.648438 0.96875 9.210938 1.28125 9.671875 C 1.601562 10.140625 2.09375 10.507812 2.75 10.78125 C 3.40625 11.050781 4.210938 11.21875 5.171875 11.28125 C 6.273438 11.351562 7.242188 11.273438 8.078125 11.046875 C 8.910156 10.816406 9.566406 10.46875 10.046875 10 C 10.523438 9.53125 10.789062 8.953125 10.84375 8.265625 C 10.914062 7.273438 10.5625 6.472656 9.78125 5.859375 C 9.007812 5.242188 7.898438 4.890625 6.453125 4.796875 C 5.398438 4.722656 4.460938 4.8125 3.640625 5.0625 C 2.828125 5.3125 2.175781 5.6875 1.6875 6.1875 C 1.195312 6.6875 0.925781 7.285156 0.875 7.984375 Z M 0.875 7.984375 "/></g></g></g><g fill="#000000" fill-opacity="1"><g transform="translate(11.181626, 208.357777)"><g><path d="M 0.109375 0.90625 L 1.171875 0.71875 L 1.65625 1.953125 C 1.707031 1.972656 1.882812 1.972656 2.1875 1.953125 C 2.488281 1.929688 2.878906 1.898438 3.359375 1.859375 C 3.835938 1.816406 4.375 1.757812 4.96875 1.6875 L 8.109375 1.359375 C 8.703125 1.285156 9.234375 1.210938 9.703125 1.140625 C 10.179688 1.066406 10.5625 1.003906 10.84375 0.953125 C 11.132812 0.910156 11.304688 0.875 11.359375 0.84375 L 11.5625 -0.53125 L 12.640625 -0.59375 L 13.390625 5.765625 C 13.421875 6.066406 13.460938 6.421875 13.515625 6.828125 C 13.566406 7.242188 13.625 7.648438 13.6875 8.046875 C 13.757812 8.441406 13.820312 8.753906 13.875 8.984375 L 10.765625 9.96875 L 10.453125 8.75 L 12.234375 7.6875 C 12.253906 7.507812 12.265625 7.34375 12.265625 7.1875 C 12.265625 7.039062 12.253906 6.882812 12.234375 6.71875 L 12.046875 5.109375 C 12.015625 4.867188 11.972656 4.632812 11.921875 4.40625 C 11.878906 4.175781 11.832031 3.984375 11.78125 3.828125 C 11.707031 3.835938 11.625 3.84375 11.53125 3.84375 C 11.4375 3.851562 11.304688 3.867188 11.140625 3.890625 C 10.972656 3.910156 10.734375 3.9375 10.421875 3.96875 C 10.109375 4 9.691406 4.046875 9.171875 4.109375 L 4.234375 4.703125 C 3.972656 4.734375 3.675781 4.773438 3.34375 4.828125 C 3.019531 4.878906 2.726562 4.929688 2.46875 4.984375 C 2.21875 5.035156 2.066406 5.070312 2.015625 5.09375 L 1.9375 6.859375 L 0.796875 6.921875 Z M 4.984375 7.75 L 6.5 7.375 C 6.507812 7.1875 6.503906 6.984375 6.484375 6.765625 C 6.472656 6.554688 6.457031 6.347656 6.4375 6.140625 L 6.28125 4.921875 C 6.257812 4.660156 6.222656 4.425781 6.171875 4.21875 C 6.128906 4.019531 6.09375 3.835938 6.0625 3.671875 L 7.5625 3.5 C 7.570312 3.65625 7.582031 3.84375 7.59375 4.0625 C 7.601562 4.289062 7.617188 4.523438 7.640625 4.765625 L 7.796875 5.984375 C 7.828125 6.265625 7.863281 6.515625 7.90625 6.734375 C 7.945312 6.960938 7.972656 7.117188 7.984375 7.203125 L 9.40625 7.234375 L 9.546875 8.484375 L 5.125 9 Z M 4.984375 7.75 "/></g></g></g><g fill="#000000" fill-opacity="1"><g transform="translate(16.300047, 238.304488)"><g><path d="M 0.265625 0.875 L 1.265625 0.5 L 1.96875 1.625 C 2.03125 1.644531 2.207031 1.617188 2.5 1.546875 C 2.789062 1.472656 3.164062 1.375 3.625 1.25 C 4.09375 1.125 4.609375 0.976562 5.171875 0.8125 L 8.21875 -0.0625 C 8.800781 -0.238281 9.316406 -0.398438 9.765625 -0.546875 C 10.222656 -0.703125 10.585938 -0.828125 10.859375 -0.921875 C 11.128906 -1.023438 11.285156 -1.09375 11.328125 -1.125 L 11.296875 -2.53125 L 12.34375 -2.765625 L 14.171875 3.375 C 14.253906 3.65625 14.359375 3.992188 14.484375 4.390625 C 14.609375 4.785156 14.738281 5.171875 14.875 5.546875 C 15.007812 5.929688 15.117188 6.238281 15.203125 6.46875 L 12.328125 7.953125 L 11.8125 6.8125 L 13.375 5.453125 C 13.375 5.285156 13.359375 5.125 13.328125 4.96875 C 13.296875 4.820312 13.253906 4.664062 13.203125 4.5 L 12.75 2.953125 C 12.675781 2.722656 12.59375 2.5 12.5 2.28125 C 12.414062 2.0625 12.335938 1.875 12.265625 1.71875 C 12.191406 1.738281 12.109375 1.757812 12.015625 1.78125 C 11.929688 1.8125 11.804688 1.847656 11.640625 1.890625 C 11.472656 1.941406 11.238281 2.007812 10.9375 2.09375 C 10.644531 2.1875 10.25 2.304688 9.75 2.453125 L 4.984375 3.890625 C 4.722656 3.960938 4.4375 4.050781 4.125 4.15625 C 3.820312 4.269531 3.546875 4.375 3.296875 4.46875 C 3.054688 4.570312 2.910156 4.632812 2.859375 4.65625 L 3.078125 6.40625 L 1.984375 6.671875 Z M 6.25 6.78125 L 7.65625 6.140625 C 7.632812 5.953125 7.597656 5.753906 7.546875 5.546875 C 7.503906 5.335938 7.453125 5.132812 7.390625 4.9375 L 7.03125 3.75 C 6.957031 3.5 6.878906 3.28125 6.796875 3.09375 C 6.722656 2.90625 6.65625 2.726562 6.59375 2.5625 L 8.046875 2.125 C 8.085938 2.289062 8.128906 2.476562 8.171875 2.6875 C 8.222656 2.90625 8.28125 3.128906 8.34375 3.359375 L 8.703125 4.546875 C 8.785156 4.816406 8.863281 5.054688 8.9375 5.265625 C 9.019531 5.484375 9.070312 5.632812 9.09375 5.71875 L 10.515625 5.515625 L 10.875 6.71875 L 6.609375 7.984375 Z M 6.25 6.78125 "/></g></g></g><g fill="#000000" fill-opacity="1"><g transform="translate(26.533704, 266.808275)"><g><path d="M 0.359375 0.734375 L 1.296875 0.203125 L 2.203125 1.28125 C 2.273438 1.269531 2.453125 1.210938 2.734375 1.109375 C 3.015625 1.003906 3.375 0.847656 3.8125 0.640625 C 4.25 0.441406 4.726562 0.21875 5.25 -0.03125 L 8.078125 -1.390625 C 8.609375 -1.648438 9.085938 -1.890625 9.515625 -2.109375 C 9.953125 -2.335938 10.300781 -2.523438 10.5625 -2.671875 C 10.832031 -2.828125 10.976562 -2.925781 11 -2.96875 L 10.71875 -4.359375 L 11.71875 -4.765625 L 14.234375 0.4375 L 13.296875 0.96875 L 12.375 -0.125 C 12.3125 -0.125 12.140625 -0.0664062 11.859375 0.046875 C 11.578125 0.171875 11.21875 0.332031 10.78125 0.53125 C 10.34375 0.726562 9.863281 0.957031 9.34375 1.21875 L 6.515625 2.578125 C 6.003906 2.828125 5.535156 3.054688 5.109375 3.265625 C 4.691406 3.484375 4.347656 3.664062 4.078125 3.8125 C 3.804688 3.96875 3.640625 4.070312 3.578125 4.125 L 3.875 5.53125 L 2.875 5.9375 Z M 0.359375 0.734375 "/></g></g></g><g fill="#000000" fill-opacity="1"><g transform="translate(39.093548, 289.771668)"><g><path d="M 4.5 6.671875 C 3.6875 5.535156 3.175781 4.390625 2.96875 3.234375 C 2.769531 2.085938 2.878906 1 3.296875 -0.03125 C 3.710938 -1.0625 4.460938 -1.960938 5.546875 -2.734375 C 6.390625 -3.328125 7.253906 -3.710938 8.140625 -3.890625 C 9.023438 -4.078125 9.90625 -4.0625 10.78125 -3.84375 C 11.65625 -3.625 12.484375 -3.226562 13.265625 -2.65625 C 14.046875 -2.082031 14.75 -1.347656 15.375 -0.453125 C 15.757812 0.078125 16.085938 0.648438 16.359375 1.265625 C 16.628906 1.890625 16.8125 2.445312 16.90625 2.9375 L 14.296875 4.953125 L 13.453125 3.921875 L 14.875 2 C 14.832031 1.695312 14.742188 1.390625 14.609375 1.078125 C 14.472656 0.773438 14.304688 0.484375 14.109375 0.203125 C 13.628906 -0.472656 13.0625 -0.929688 12.40625 -1.171875 C 11.757812 -1.421875 11.054688 -1.460938 10.296875 -1.296875 C 9.546875 -1.128906 8.773438 -0.765625 7.984375 -0.203125 C 7.078125 0.429688 6.40625 1.128906 5.96875 1.890625 C 5.53125 2.660156 5.316406 3.414062 5.328125 4.15625 C 5.335938 4.90625 5.5625 5.585938 6 6.203125 C 6.226562 6.535156 6.492188 6.828125 6.796875 7.078125 C 7.109375 7.328125 7.425781 7.488281 7.75 7.5625 L 9.796875 7.0625 L 10.53125 8.328125 L 7.828125 9.453125 C 7.328125 9.273438 6.765625 8.9375 6.140625 8.4375 C 5.523438 7.9375 4.976562 7.347656 4.5 6.671875 Z M 4.5 6.671875 "/></g></g></g><g fill="#000000" fill-opacity="1"><g transform="translate(59.111136, 314.873249)"><g><path d="M 0.578125 0.578125 L 1.296875 -0.234375 L 2.484375 0.5 C 2.554688 0.46875 2.707031 0.351562 2.9375 0.15625 C 3.164062 -0.03125 3.457031 -0.289062 3.8125 -0.625 C 4.164062 -0.96875 4.546875 -1.34375 4.953125 -1.75 L 7.171875 -3.96875 C 7.585938 -4.382812 7.960938 -4.765625 8.296875 -5.109375 C 8.628906 -5.460938 8.894531 -5.753906 9.09375 -5.984375 C 9.300781 -6.210938 9.410156 -6.351562 9.421875 -6.40625 L 8.71875 -7.625 L 9.515625 -8.328125 L 13.59375 -4.234375 L 12.890625 -3.421875 L 11.671875 -4.171875 C 11.609375 -4.140625 11.457031 -4.019531 11.21875 -3.8125 C 10.988281 -3.613281 10.703125 -3.347656 10.359375 -3.015625 C 10.015625 -2.679688 9.632812 -2.3125 9.21875 -1.90625 L 7 0.3125 C 6.59375 0.707031 6.222656 1.078125 5.890625 1.421875 C 5.566406 1.765625 5.300781 2.050781 5.09375 2.28125 C 4.894531 2.507812 4.773438 2.660156 4.734375 2.734375 L 5.46875 3.96875 L 4.65625 4.671875 Z M 0.578125 0.578125 "/></g></g></g><g fill="#000000" fill-opacity="1"><g transform="translate(78.484884, 332.464865)"><g><path d="M -0.015625 -0.015625 L 0.546875 -0.921875 L 1.671875 -0.5625 L 11.359375 -6.609375 L 13.4375 -6.375 L 10.703125 5.921875 L 11.40625 6.84375 L 10.734375 7.6875 L 6.046875 4.328125 L 6.625 3.421875 L 7.9375 3.9375 L 8.609375 1.015625 L 8.84375 0.28125 L 10.0625 -5.09375 L 10.453125 -4.59375 L 6.203125 -1.6875 L 5.65625 -1.296875 L 3.109375 0.484375 L 4.03125 1.5625 L 3.359375 2.40625 Z M 4.828125 -1.03125 L 5.671875 -2.21875 C 5.910156 -2.039062 6.171875 -1.835938 6.453125 -1.609375 C 6.734375 -1.378906 7.113281 -1.09375 7.59375 -0.75 C 8.0625 -0.414062 8.453125 -0.148438 8.765625 0.046875 C 9.085938 0.253906 9.363281 0.429688 9.59375 0.578125 L 8.765625 1.75 C 8.535156 1.59375 8.269531 1.394531 7.96875 1.15625 C 7.664062 0.925781 7.285156 0.648438 6.828125 0.328125 C 6.359375 -0.015625 5.960938 -0.289062 5.640625 -0.5 C 5.328125 -0.707031 5.054688 -0.882812 4.828125 -1.03125 Z M 4.828125 -1.03125 "/></g></g></g><g fill="#000000" fill-opacity="1"><g transform="translate(105.406042, 349.611232)"><g><path d="M 9.640625 4.734375 C 9.304688 4.535156 8.945312 4.335938 8.5625 4.140625 C 8.1875 3.941406 7.820312 3.75 7.46875 3.5625 C 7.125 3.382812 6.851562 3.25 6.65625 3.15625 L 0.765625 0.359375 L 1.171875 -0.640625 L 2.5625 -0.359375 C 2.601562 -0.421875 2.703125 -0.59375 2.859375 -0.875 C 3.015625 -1.164062 3.203125 -1.519531 3.421875 -1.9375 C 3.640625 -2.363281 3.863281 -2.816406 4.09375 -3.296875 L 5.4375 -6.125 C 5.675781 -6.625 5.890625 -7.09375 6.078125 -7.53125 C 6.265625 -7.976562 6.414062 -8.347656 6.53125 -8.640625 C 6.65625 -8.929688 6.726562 -9.113281 6.75 -9.1875 L 5.65625 -10.109375 L 6.171875 -11.046875 L 11.765625 -8.390625 L 11.34375 -7.34375 L 9.609375 -7.828125 C 9.578125 -7.773438 9.488281 -7.617188 9.34375 -7.359375 C 9.195312 -7.109375 9.007812 -6.765625 8.78125 -6.328125 C 8.5625 -5.898438 8.328125 -5.414062 8.078125 -4.875 L 6.734375 -2.046875 C 6.378906 -1.285156 6.097656 -0.671875 5.890625 -0.203125 C 5.691406 0.253906 5.550781 0.566406 5.46875 0.734375 C 5.675781 0.890625 5.894531 1.03125 6.125 1.15625 C 6.351562 1.28125 6.640625 1.425781 6.984375 1.59375 L 7.71875 1.9375 C 7.988281 2.0625 8.242188 2.160156 8.484375 2.234375 C 8.722656 2.316406 8.925781 2.382812 9.09375 2.4375 L 11.171875 0.828125 L 12.21875 1.6875 Z M 9.640625 4.734375 "/></g></g></g><g fill="#000000" fill-opacity="1"><g transform="translate(133.639205, 361.112123)"><g/></g></g><g fill="#000000" fill-opacity="1"><g transform="translate(155.930674, 366.645208)"><g><path d="M 11.578125 -2.53125 L 12 -5.78125 C 12.082031 -6.488281 12.15625 -7.117188 12.21875 -7.671875 C 12.289062 -8.234375 12.335938 -8.691406 12.359375 -9.046875 C 12.390625 -9.398438 12.394531 -9.617188 12.375 -9.703125 L 10.9375 -10.234375 L 11.140625 -11.28125 L 15.6875 -10.703125 L 15.59375 -9.625 L 14.1875 -9.46875 C 14.15625 -9.394531 14.101562 -9.1875 14.03125 -8.84375 C 13.96875 -8.5 13.894531 -8.046875 13.8125 -7.484375 C 13.726562 -6.921875 13.644531 -6.285156 13.5625 -5.578125 L 13.03125 -1.53125 C 12.945312 -0.863281 12.867188 -0.28125 12.796875 0.21875 C 12.734375 0.726562 12.671875 1.234375 12.609375 1.734375 L 11.3125 1.578125 L 4.03125 -9.453125 L 5.140625 -9.3125 L 4.59375 -5.0625 C 4.5 -4.300781 4.421875 -3.625 4.359375 -3.03125 C 4.296875 -2.445312 4.25 -1.96875 4.21875 -1.59375 C 4.195312 -1.21875 4.203125 -0.984375 4.234375 -0.890625 L 5.65625 -0.34375 L 5.453125 0.703125 L 0.859375 0.109375 L 0.9375 -0.953125 L 2.328125 -1.125 C 2.359375 -1.21875 2.40625 -1.453125 2.46875 -1.828125 C 2.539062 -2.210938 2.625 -2.703125 2.71875 -3.296875 C 2.8125 -3.898438 2.90625 -4.554688 3 -5.265625 L 3.359375 -8.109375 C 3.410156 -8.484375 3.453125 -8.867188 3.484375 -9.265625 C 3.515625 -9.660156 3.535156 -10 3.546875 -10.28125 C 3.566406 -10.5625 3.578125 -10.742188 3.578125 -10.828125 L 2.28125 -11.34375 L 2.484375 -12.40625 L 5.84375 -11.96875 L 12.46875 -2.40625 Z M 11.578125 -2.53125 "/></g></g></g><g fill="#000000" fill-opacity="1"><g transform="translate(189.702114, 369.103042)"><g><path d="M 0.90625 -0.046875 L 0.78125 -1.125 L 2.046875 -1.546875 C 2.078125 -1.597656 2.085938 -1.773438 2.078125 -2.078125 C 2.078125 -2.378906 2.066406 -2.769531 2.046875 -3.25 C 2.035156 -3.726562 2.015625 -4.265625 1.984375 -4.859375 L 1.84375 -8 C 1.8125 -8.601562 1.773438 -9.144531 1.734375 -9.625 C 1.691406 -10.101562 1.65625 -10.488281 1.625 -10.78125 C 1.59375 -11.070312 1.5625 -11.242188 1.53125 -11.296875 L 0.15625 -11.578125 L 0.15625 -12.65625 L 6.546875 -13.015625 C 6.847656 -13.023438 7.207031 -13.046875 7.625 -13.078125 C 8.039062 -13.109375 8.445312 -13.144531 8.84375 -13.1875 C 9.25 -13.226562 9.570312 -13.265625 9.8125 -13.296875 L 10.59375 -10.140625 L 9.359375 -9.90625 L 8.40625 -11.75 C 8.238281 -11.78125 8.078125 -11.800781 7.921875 -11.8125 C 7.773438 -11.820312 7.613281 -11.820312 7.4375 -11.8125 L 5.828125 -11.71875 C 5.585938 -11.707031 5.347656 -11.679688 5.109375 -11.640625 C 4.867188 -11.609375 4.671875 -11.570312 4.515625 -11.53125 C 4.523438 -11.457031 4.53125 -11.375 4.53125 -11.28125 C 4.53125 -11.1875 4.53125 -11.050781 4.53125 -10.875 C 4.539062 -10.707031 4.554688 -10.46875 4.578125 -10.15625 C 4.597656 -9.84375 4.617188 -9.425781 4.640625 -8.90625 L 4.9375 -3.953125 C 4.945312 -3.679688 4.96875 -3.378906 5 -3.046875 C 5.039062 -2.722656 5.078125 -2.429688 5.109375 -2.171875 C 5.148438 -1.921875 5.175781 -1.769531 5.1875 -1.71875 L 6.953125 -1.515625 L 6.953125 -0.390625 Z M 8.046875 -4.515625 L 7.734375 -6.03125 C 7.554688 -6.050781 7.359375 -6.054688 7.140625 -6.046875 C 6.929688 -6.046875 6.722656 -6.039062 6.515625 -6.03125 L 5.28125 -5.96875 C 5.019531 -5.945312 4.785156 -5.921875 4.578125 -5.890625 C 4.378906 -5.859375 4.195312 -5.832031 4.03125 -5.8125 L 3.953125 -7.328125 C 4.109375 -7.328125 4.296875 -7.328125 4.515625 -7.328125 C 4.734375 -7.328125 4.960938 -7.332031 5.203125 -7.34375 L 6.4375 -7.40625 C 6.71875 -7.425781 6.96875 -7.445312 7.1875 -7.46875 C 7.414062 -7.5 7.570312 -7.519531 7.65625 -7.53125 L 7.796875 -8.953125 L 9.046875 -9.03125 L 9.296875 -4.59375 Z M 8.046875 -4.515625 "/></g></g></g><g fill="#000000" fill-opacity="1"><g transform="translate(219.940959, 365.818463)"><g><path d="M 9.03125 -15.234375 L 10.40625 -11.640625 L 9.125 -11.234375 L 7.734375 -13.421875 C 7.578125 -13.421875 7.421875 -13.40625 7.265625 -13.375 C 7.117188 -13.351562 6.953125 -13.320312 6.765625 -13.28125 L 6.046875 -13.109375 C 5.929688 -13.078125 5.789062 -13.039062 5.625 -13 C 5.46875 -12.96875 5.347656 -12.925781 5.265625 -12.875 C 5.285156 -12.800781 5.34375 -12.546875 5.4375 -12.109375 C 5.53125 -11.671875 5.644531 -11.148438 5.78125 -10.546875 C 5.914062 -9.941406 6.0625 -9.332031 6.21875 -8.71875 L 6.671875 -6.765625 C 6.859375 -5.984375 7.035156 -5.28125 7.203125 -4.65625 C 7.367188 -4.039062 7.492188 -3.578125 7.578125 -3.265625 L 9.46875 -3.40625 L 9.671875 -2.296875 L 3.15625 -0.75 L 2.828125 -1.828125 L 4.578125 -2.5625 C 4.523438 -2.875 4.425781 -3.34375 4.28125 -3.96875 C 4.144531 -4.601562 3.984375 -5.3125 3.796875 -6.09375 L 3.34375 -8.046875 C 3.1875 -8.660156 3.035156 -9.265625 2.890625 -9.859375 C 2.742188 -10.453125 2.617188 -10.96875 2.515625 -11.40625 C 2.410156 -11.84375 2.34375 -12.097656 2.3125 -12.171875 C 2.21875 -12.179688 2.09375 -12.164062 1.9375 -12.125 C 1.78125 -12.09375 1.640625 -12.0625 1.515625 -12.03125 L 0.78125 -11.859375 C 0.613281 -11.816406 0.441406 -11.769531 0.265625 -11.71875 C 0.0859375 -11.664062 -0.0546875 -11.609375 -0.171875 -11.546875 L -0.40625 -8.921875 L -1.734375 -8.75 L -2.171875 -12.578125 C -2.035156 -12.609375 -1.832031 -12.644531 -1.5625 -12.6875 C -1.300781 -12.738281 -1.023438 -12.789062 -0.734375 -12.84375 C -0.453125 -12.894531 -0.175781 -12.945312 0.09375 -13 C 0.375 -13.0625 0.609375 -13.117188 0.796875 -13.171875 L 6.109375 -14.4375 C 6.304688 -14.476562 6.535156 -14.53125 6.796875 -14.59375 C 7.066406 -14.664062 7.34375 -14.742188 7.625 -14.828125 C 7.914062 -14.921875 8.179688 -15.003906 8.421875 -15.078125 C 8.671875 -15.148438 8.875 -15.203125 9.03125 -15.234375 Z M 9.03125 -15.234375 "/></g></g></g><g fill="#000000" fill-opacity="1"><g transform="translate(250.449151, 356.699047)"><g/></g></g><g fill="#000000" fill-opacity="1"><g transform="translate(271.202985, 346.961057)"><g><path d="M -0.015625 0.015625 L -0.640625 -0.875 L 0.140625 -1.75 L -1.625 -13.046875 L -0.59375 -14.859375 L 9.640625 -7.53125 L 10.765625 -7.8125 L 11.28125 -6.859375 L 6.359375 -3.859375 L 5.734375 -4.75 L 6.734375 -5.765625 L 4.3125 -7.515625 L 3.71875 -8.03125 L -0.75 -11.25 L -0.125 -11.421875 L 0.859375 -6.375 L 1.03125 -5.71875 L 1.671875 -2.6875 L 3.015625 -3.09375 L 3.53125 -2.140625 Z M 0.9375 -4.859375 L 0.1875 -6.09375 C 0.445312 -6.238281 0.734375 -6.394531 1.046875 -6.5625 C 1.367188 -6.726562 1.785156 -6.96875 2.296875 -7.28125 C 2.785156 -7.570312 3.1875 -7.828125 3.5 -8.046875 C 3.8125 -8.265625 4.078125 -8.445312 4.296875 -8.59375 L 5.046875 -7.375 C 4.816406 -7.226562 4.53125 -7.0625 4.1875 -6.875 C 3.851562 -6.6875 3.445312 -6.445312 2.96875 -6.15625 C 2.46875 -5.851562 2.0625 -5.597656 1.75 -5.390625 C 1.4375 -5.179688 1.164062 -5.003906 0.9375 -4.859375 Z M 0.9375 -4.859375 "/></g></g></g><g fill="#000000" fill-opacity="1"><g transform="translate(297.625071, 328.922504)"><g><path d="M -7.890625 -9.890625 L -3.625 -13.734375 L -2.84375 -12.984375 L -3.625 -11.796875 C -3.539062 -11.679688 -3.398438 -11.503906 -3.203125 -11.265625 C -3.003906 -11.023438 -2.765625 -10.738281 -2.484375 -10.40625 C -2.203125 -10.070312 -1.867188 -9.691406 -1.484375 -9.265625 L 0 -7.625 C 0.5625 -7 1.125 -6.554688 1.6875 -6.296875 C 2.25 -6.035156 2.796875 -5.953125 3.328125 -6.046875 C 3.859375 -6.140625 4.367188 -6.40625 4.859375 -6.84375 C 5.347656 -7.289062 5.65625 -7.765625 5.78125 -8.265625 C 5.914062 -8.765625 5.875 -9.296875 5.65625 -9.859375 C 5.4375 -10.429688 5.039062 -11.035156 4.46875 -11.671875 L 3.25 -13.015625 C 2.8125 -13.503906 2.398438 -13.945312 2.015625 -14.34375 C 1.640625 -14.738281 1.332031 -15.050781 1.09375 -15.28125 C 0.851562 -15.519531 0.707031 -15.644531 0.65625 -15.65625 L -0.703125 -14.921875 L -1.390625 -15.765625 L 2.171875 -18.96875 L 2.953125 -18.21875 L 2.171875 -17.03125 C 2.179688 -16.988281 2.289062 -16.832031 2.5 -16.5625 C 2.707031 -16.300781 2.992188 -15.960938 3.359375 -15.546875 C 3.722656 -15.140625 4.125 -14.691406 4.5625 -14.203125 L 6.015625 -12.59375 C 6.773438 -11.75 7.273438 -10.878906 7.515625 -9.984375 C 7.753906 -9.097656 7.738281 -8.234375 7.46875 -7.390625 C 7.195312 -6.554688 6.671875 -5.785156 5.890625 -5.078125 C 4.566406 -3.878906 3.222656 -3.304688 1.859375 -3.359375 C 0.503906 -3.421875 -0.753906 -4.097656 -1.921875 -5.390625 L -3.65625 -7.3125 C -4.050781 -7.75 -4.414062 -8.144531 -4.75 -8.5 C -5.09375 -8.863281 -5.367188 -9.148438 -5.578125 -9.359375 C -5.785156 -9.566406 -5.910156 -9.675781 -5.953125 -9.6875 L -7.21875 -9.03125 Z M -7.890625 -9.890625 "/></g></g></g><g fill="#000000" fill-opacity="1"><g transform="translate(321.552812, 304.784971)"><g><path d="M 5 -6.3125 C 4.164062 -5.195312 3.226562 -4.363281 2.1875 -3.8125 C 1.15625 -3.269531 0.0859375 -3.039062 -1.015625 -3.125 C -2.128906 -3.207031 -3.21875 -3.65625 -4.28125 -4.46875 C -5.101562 -5.082031 -5.734375 -5.785156 -6.171875 -6.578125 C -6.617188 -7.367188 -6.867188 -8.210938 -6.921875 -9.109375 C -6.972656 -10.015625 -6.84375 -10.921875 -6.53125 -11.828125 C -6.226562 -12.742188 -5.75 -13.640625 -5.09375 -14.515625 C -4.695312 -15.035156 -4.242188 -15.519531 -3.734375 -15.96875 C -3.234375 -16.414062 -2.757812 -16.757812 -2.3125 -17 L 0.40625 -15.125 L -0.328125 -14.015625 L -2.578125 -14.78125 C -2.859375 -14.644531 -3.125 -14.46875 -3.375 -14.25 C -3.632812 -14.03125 -3.867188 -13.78125 -4.078125 -13.5 C -4.578125 -12.84375 -4.84375 -12.171875 -4.875 -11.484375 C -4.914062 -10.796875 -4.738281 -10.113281 -4.34375 -9.4375 C -3.957031 -8.757812 -3.375 -8.125 -2.59375 -7.53125 C -1.71875 -6.875 -0.851562 -6.445312 0 -6.25 C 0.851562 -6.0625 1.632812 -6.082031 2.34375 -6.3125 C 3.0625 -6.550781 3.648438 -6.976562 4.109375 -7.59375 C 4.347656 -7.914062 4.539062 -8.257812 4.6875 -8.625 C 4.832031 -8.988281 4.894531 -9.335938 4.875 -9.671875 L 3.765625 -11.484375 L 4.75 -12.546875 L 6.65625 -10.328125 C 6.625 -9.796875 6.460938 -9.15625 6.171875 -8.40625 C 5.890625 -7.664062 5.5 -6.96875 5 -6.3125 Z M 5 -6.3125 "/></g></g></g><g fill="#000000" fill-opacity="1"><g transform="translate(339.553535, 278.041924)"><g><path d="M -5.890625 -16.703125 L -2.265625 -15.453125 L -2.765625 -14.21875 L -5.34375 -14.53125 C -5.445312 -14.425781 -5.535156 -14.304688 -5.609375 -14.171875 C -5.679688 -14.035156 -5.757812 -13.882812 -5.84375 -13.71875 L -6.171875 -13.0625 C -6.222656 -12.945312 -6.285156 -12.816406 -6.359375 -12.671875 C -6.441406 -12.523438 -6.488281 -12.398438 -6.5 -12.296875 C -6.425781 -12.265625 -6.191406 -12.144531 -5.796875 -11.9375 C -5.398438 -11.726562 -4.925781 -11.484375 -4.375 -11.203125 C -3.832031 -10.929688 -3.28125 -10.648438 -2.71875 -10.359375 L -0.921875 -9.46875 C -0.203125 -9.113281 0.445312 -8.796875 1.03125 -8.515625 C 1.625 -8.234375 2.066406 -8.03125 2.359375 -7.90625 L 3.46875 -9.453125 L 4.4375 -8.890625 L 1.453125 -2.90625 L 0.421875 -3.359375 L 0.984375 -5.15625 C 0.703125 -5.3125 0.273438 -5.539062 -0.296875 -5.84375 C -0.867188 -6.144531 -1.515625 -6.472656 -2.234375 -6.828125 L -4.03125 -7.71875 C -4.59375 -8.007812 -5.148438 -8.285156 -5.703125 -8.546875 C -6.253906 -8.816406 -6.726562 -9.050781 -7.125 -9.25 C -7.53125 -9.457031 -7.773438 -9.570312 -7.859375 -9.59375 C -7.921875 -9.53125 -7.988281 -9.425781 -8.0625 -9.28125 C -8.132812 -9.132812 -8.203125 -9 -8.265625 -8.875 L -8.59375 -8.203125 C -8.664062 -8.054688 -8.738281 -7.898438 -8.8125 -7.734375 C -8.894531 -7.566406 -8.953125 -7.410156 -8.984375 -7.265625 L -7.09375 -5.421875 L -7.8125 -4.296875 L -11.03125 -6.40625 C -10.96875 -6.53125 -10.867188 -6.707031 -10.734375 -6.9375 C -10.597656 -7.175781 -10.457031 -7.421875 -10.3125 -7.671875 C -10.175781 -7.921875 -10.039062 -8.171875 -9.90625 -8.421875 C -9.78125 -8.671875 -9.675781 -8.882812 -9.59375 -9.0625 L -7.15625 -13.9375 C -7.0625 -14.125 -6.957031 -14.335938 -6.84375 -14.578125 C -6.726562 -14.828125 -6.609375 -15.09375 -6.484375 -15.375 C -6.359375 -15.65625 -6.242188 -15.910156 -6.140625 -16.140625 C -6.046875 -16.378906 -5.960938 -16.566406 -5.890625 -16.703125 Z M -5.890625 -16.703125 "/></g></g></g><g fill="#000000" fill-opacity="1"><g transform="translate(352.18605, 248.745335)"><g><path d="M 0.234375 -0.78125 L -0.8125 -1.03125 L -0.734375 -2.4375 C -0.804688 -2.488281 -0.976562 -2.566406 -1.25 -2.671875 C -1.519531 -2.773438 -1.882812 -2.90625 -2.34375 -3.0625 C -2.8125 -3.21875 -3.320312 -3.378906 -3.875 -3.546875 L -6.875 -4.46875 C -7.4375 -4.632812 -7.945312 -4.78125 -8.40625 -4.90625 C -8.875 -5.039062 -9.257812 -5.144531 -9.5625 -5.21875 C -9.875 -5.289062 -10.050781 -5.316406 -10.09375 -5.296875 L -10.828125 -4.09375 L -11.84375 -4.484375 L -10.140625 -10.015625 L -9.09375 -9.75 L -9.171875 -8.328125 C -9.117188 -8.285156 -8.945312 -8.207031 -8.65625 -8.09375 C -8.363281 -7.988281 -7.988281 -7.863281 -7.53125 -7.71875 C -7.070312 -7.570312 -6.566406 -7.414062 -6.015625 -7.25 L -3.015625 -6.328125 C -2.472656 -6.160156 -1.972656 -6.007812 -1.515625 -5.875 C -1.066406 -5.738281 -0.691406 -5.632812 -0.390625 -5.5625 C -0.0976562 -5.5 0.09375 -5.46875 0.1875 -5.46875 L 0.921875 -6.6875 L 1.9375 -6.3125 Z M 0.234375 -0.78125 "/></g></g></g><g fill="#000000" fill-opacity="1"><g transform="translate(358.621835, 223.327225)"><g><path d="M 1.15625 -7.65625 C 0.988281 -6.351562 0.570312 -5.222656 -0.09375 -4.265625 C -0.757812 -3.316406 -1.597656 -2.613281 -2.609375 -2.15625 C -3.628906 -1.707031 -4.753906 -1.5625 -5.984375 -1.71875 C -7.253906 -1.875 -8.351562 -2.300781 -9.28125 -3 C -10.207031 -3.707031 -10.890625 -4.601562 -11.328125 -5.6875 C -11.773438 -6.78125 -11.914062 -7.984375 -11.75 -9.296875 C -11.59375 -10.554688 -11.179688 -11.632812 -10.515625 -12.53125 C -9.859375 -13.4375 -9.023438 -14.109375 -8.015625 -14.546875 C -7.015625 -14.992188 -5.890625 -15.140625 -4.640625 -14.984375 C -3.546875 -14.835938 -2.613281 -14.507812 -1.84375 -14 C -1.070312 -13.488281 -0.445312 -12.875 0.03125 -12.15625 C 0.507812 -11.4375 0.835938 -10.6875 1.015625 -9.90625 C 1.191406 -9.125 1.238281 -8.375 1.15625 -7.65625 Z M -0.421875 -8.015625 C -0.335938 -8.679688 -0.441406 -9.253906 -0.734375 -9.734375 C -1.023438 -10.222656 -1.492188 -10.617188 -2.140625 -10.921875 C -2.785156 -11.234375 -3.582031 -11.445312 -4.53125 -11.5625 C -5.625 -11.707031 -6.59375 -11.6875 -7.4375 -11.5 C -8.289062 -11.3125 -8.96875 -10.992188 -9.46875 -10.546875 C -9.976562 -10.109375 -10.273438 -9.546875 -10.359375 -8.859375 C -10.484375 -7.878906 -10.175781 -7.0625 -9.4375 -6.40625 C -8.695312 -5.75 -7.609375 -5.332031 -6.171875 -5.15625 C -5.117188 -5.019531 -4.175781 -5.050781 -3.34375 -5.25 C -2.519531 -5.457031 -1.847656 -5.796875 -1.328125 -6.265625 C -0.804688 -6.742188 -0.503906 -7.328125 -0.421875 -8.015625 Z M -0.421875 -8.015625 "/></g></g></g><g fill="#000000" fill-opacity="1"><g transform="translate(361.042409, 189.258317)"><g><path d="M -4.75 -10.84375 L -8.03125 -10.625 C -8.738281 -10.570312 -9.367188 -10.523438 -9.921875 -10.484375 C -10.472656 -10.441406 -10.925781 -10.394531 -11.28125 -10.34375 C -11.644531 -10.300781 -11.863281 -10.257812 -11.9375 -10.21875 L -12.171875 -8.71875 L -13.265625 -8.703125 L -13.578125 -13.265625 L -12.5 -13.40625 L -12.0625 -12.046875 C -11.988281 -12.035156 -11.773438 -12.03125 -11.421875 -12.03125 C -11.078125 -12.03125 -10.617188 -12.046875 -10.046875 -12.078125 C -9.484375 -12.109375 -8.847656 -12.148438 -8.140625 -12.203125 L -4.078125 -12.484375 C -3.398438 -12.523438 -2.804688 -12.5625 -2.296875 -12.59375 C -1.785156 -12.632812 -1.28125 -12.671875 -0.78125 -12.703125 L -0.6875 -11.390625 L -10.046875 -2.09375 L -10.125 -3.203125 L -5.859375 -3.5 C -5.085938 -3.550781 -4.410156 -3.601562 -3.828125 -3.65625 C -3.242188 -3.71875 -2.765625 -3.769531 -2.390625 -3.8125 C -2.023438 -3.863281 -1.796875 -3.914062 -1.703125 -3.96875 L -1.46875 -5.46875 L -0.375 -5.484375 L -0.0625 -0.859375 L -1.140625 -0.71875 L -1.578125 -2.0625 C -1.671875 -2.070312 -1.90625 -2.070312 -2.28125 -2.0625 C -2.664062 -2.0625 -3.160156 -2.046875 -3.765625 -2.015625 C -4.367188 -1.992188 -5.03125 -1.957031 -5.75 -1.90625 L -8.609375 -1.703125 C -8.992188 -1.679688 -9.378906 -1.644531 -9.765625 -1.59375 C -10.148438 -1.550781 -10.484375 -1.507812 -10.765625 -1.46875 C -11.054688 -1.425781 -11.242188 -1.394531 -11.328125 -1.375 L -11.578125 0 L -12.65625 0.015625 L -12.890625 -3.359375 L -4.8125 -11.734375 Z M -4.75 -10.84375 "/></g></g></g><g clip-path="url(#id6)"><path fill="#bd9d60" d="M 185.976562 86.757812 L 188.011719 93.164062 C 188.0625 93.3125 188.191406 93.394531 188.339844 93.394531 L 195.539062 93.34375 C 195.863281 93.34375 195.992188 93.753906 195.734375 93.949219 L 189.871094 98.140625 C 189.757812 98.222656 189.707031 98.386719 189.757812 98.515625 L 192.035156 105.351562 C 192.132812 105.660156 191.792969 105.921875 191.53125 105.726562 L 185.796875 101.53125 C 185.621094 101.402344 185.40625 101.402344 185.230469 101.53125 L 179.511719 105.742188 C 179.25 105.9375 178.894531 105.675781 179.007812 105.367188 L 181.289062 98.53125 C 181.335938 98.402344 181.289062 98.238281 181.171875 98.15625 L 175.308594 93.964844 C 175.050781 93.769531 175.179688 93.363281 175.503906 93.363281 L 182.703125 93.410156 C 182.851562 93.410156 182.980469 93.3125 183.03125 93.183594 L 185.050781 86.757812 C 185.210938 86.28125 185.832031 86.28125 185.976562 86.757812 Z M 185.976562 86.757812 " fill-opacity="1" fill-rule="nonzero"/></g><g clip-path="url(#id7)"><path fill="#bd9d60" d="M 185.859375 196.398438 C 191.761719 196.398438 196.546875 191.609375 196.546875 185.703125 L 175.175781 185.703125 C 175.175781 191.609375 179.957031 196.398438 185.859375 196.398438 Z M 185.859375 196.398438 " fill-opacity="1" fill-rule="nonzero"/></g><g clip-path="url(#id8)"><path fill="#bd9d60" d="M 185.371094 274.691406 C 201.984375 274.691406 215.453125 260.921875 215.453125 243.9375 L 155.285156 243.9375 C 155.285156 260.921875 168.753906 274.691406 185.371094 274.691406 Z M 185.371094 274.691406 " fill-opacity="1" fill-rule="nonzero"/></g><g clip-path="url(#id9)"><path fill="#bd9d60" d="M 192.980469 214.417969 C 192.980469 214.898438 192.933594 215.378906 192.839844 215.851562 C 192.746094 216.324219 192.605469 216.785156 192.421875 217.230469 C 192.234375 217.675781 192.007812 218.101562 191.742188 218.5 C 191.472656 218.902344 191.167969 219.273438 190.828125 219.617188 C 190.484375 219.957031 190.113281 220.261719 189.710938 220.53125 C 189.3125 220.800781 188.886719 221.027344 188.441406 221.210938 C 187.996094 221.394531 187.535156 221.535156 187.0625 221.628906 C 186.585938 221.722656 186.109375 221.769531 185.625 221.769531 C 185.144531 221.769531 184.664062 221.722656 184.191406 221.628906 C 183.71875 221.535156 183.257812 221.394531 182.8125 221.210938 C 182.367188 221.027344 181.941406 220.800781 181.542969 220.53125 C 181.140625 220.261719 180.769531 219.957031 180.425781 219.617188 C 180.085938 219.273438 179.78125 218.902344 179.511719 218.5 C 179.242188 218.101562 179.015625 217.675781 178.832031 217.230469 C 178.648438 216.785156 178.507812 216.324219 178.414062 215.851562 C 178.320312 215.378906 178.273438 214.898438 178.273438 214.417969 C 178.273438 213.933594 178.320312 213.457031 178.414062 212.980469 C 178.507812 212.507812 178.648438 212.046875 178.832031 211.601562 C 179.015625 211.15625 179.242188 210.730469 179.511719 210.332031 C 179.78125 209.929688 180.085938 209.558594 180.425781 209.214844 C 180.769531 208.875 181.140625 208.570312 181.542969 208.300781 C 181.941406 208.035156 182.367188 207.808594 182.8125 207.621094 C 183.257812 207.4375 183.71875 207.296875 184.191406 207.203125 C 184.664062 207.109375 185.144531 207.0625 185.625 207.0625 C 186.109375 207.0625 186.585938 207.109375 187.0625 207.203125 C 187.535156 207.296875 187.996094 207.4375 188.441406 207.621094 C 188.886719 207.808594 189.3125 208.035156 189.710938 208.300781 C 190.113281 208.570312 190.484375 208.875 190.828125 209.214844 C 191.167969 209.558594 191.472656 209.929688 191.742188 210.332031 C 192.007812 210.730469 192.234375 211.15625 192.421875 211.601562 C 192.605469 212.046875 192.746094 212.507812 192.839844 212.980469 C 192.933594 213.457031 192.980469 213.933594 192.980469 214.417969 Z M 192.980469 214.417969 " fill-opacity="1" fill-rule="nonzero"/></g></svg>